<svg width="671" height="970" viewBox="0 0 671 970" fill="none" xmlns="http://www.w3.org/2000/svg">
<g clip-path="url(#clip0_32_3)">
<rect width="671" height="970" fill="#F5F8F9"/>
<g clip-path="url(#clip1_32_3)">
<path d="M302.861 530.261C324.39 519.394 353.827 528.859 364.988 550.237C376.15 571.616 367.089 601.18 345.865 612.633C324.642 624.086 294.957 615.431 283.214 594.367C271.471 573.302 279.059 542.276 302.861 530.261Z" fill="#A5DBE2"/>
<path d="M481.258 639.55C489.536 651.295 499.083 662.016 508.826 672.549C523.764 689.408 540.184 704.852 556.052 720.819C558.769 723.423 561.51 726.002 564.274 728.558C562.153 725.554 560.028 722.554 557.9 719.556C549.237 706.478 534.263 687.122 530.093 681.981C522.152 671.114 501.568 645.871 497.009 639.864C476.708 613.487 471.211 606.028 450.527 580.401C440.57 568.725 431.364 556.372 420.647 545.37C422.743 543.209 424.456 540.707 425.713 537.972C430.801 527.168 429.645 514.674 426.57 503.461C424.947 497.852 422.69 491.903 417.67 488.491C416.083 487.656 414.355 487.124 412.574 486.92C412.21 482.578 411.87 478.233 411.587 473.885C410.741 461.475 410.206 449.036 408.808 436.671C407.946 428.44 407.457 417.162 397.785 414.684C392.388 413.269 386.824 414.371 381.41 415.119C371.263 416.748 369.521 417.067 359.697 417.98C331.107 419.95 302.321 420.848 274.096 426.18C263.464 428.051 251.411 428.685 243.679 437.191C242.534 438.259 241.45 439.392 240.393 440.548C242.239 439.164 244.155 437.876 246.134 436.69C254.945 431.03 264.874 432.894 275.175 432.287C295.715 431.223 316.284 432.083 336.832 431.284C347.402 431.16 357.958 430.486 368.458 429.264C377.773 428.301 385.087 426.444 390.657 426.21C391.649 426.141 392.646 426.149 393.637 426.234C393.978 426.305 394.32 426.38 394.658 426.471C394.69 426.505 394.726 426.535 394.758 426.57C394.823 426.68 394.899 426.808 395.005 426.988C395.044 427.095 395.068 427.154 395.099 427.238C395.296 427.783 395.45 428.342 395.559 428.911C397.65 440.763 398.735 465.261 399.995 482.744C402.114 505.929 404.32 529.121 407.235 552.222C410.73 577.438 410.615 602.953 412.599 628.3C413.477 640.292 415.119 652.225 415.59 664.245C415.99 681.49 415.451 697.218 412.843 710.389C410.139 722.495 407.723 731.116 403.487 733.631C403.381 733.675 403.268 733.723 403.101 733.799C400.376 734.605 401.119 734.298 395.868 734.068C384.322 733.318 372.785 732.431 361.278 731.216C348.526 730.099 337.849 727.569 322.174 725.844C309.168 724.532 296.13 723.532 283.121 722.23C275.909 721.607 269.985 720.935 266.823 719.434C262.245 716.631 262.942 717.167 262.063 706.311C261.469 691.257 260.612 676.22 259.585 661.19C258.639 645.845 257.825 630.483 256.236 615.188C254.513 599.267 252.201 583.413 250.626 567.475C248.574 542.281 246.831 517.056 244.397 491.892C242.498 473.302 239.847 454.795 238.156 436.183C236.286 454.817 236.049 473.558 235.83 492.269C235.722 497.572 235.664 502.874 235.659 508.176C231.323 510.657 227.208 513.563 224.647 517.968C217.58 528.553 218.392 542.632 228.329 551.106C231.064 553.393 234.164 555.202 237.501 556.458C237.881 561.574 238.381 566.679 238.92 571.78C233.416 575.525 228.111 579.8 225.724 586.225C222.901 593.209 222.561 600.95 224.761 608.154C226.526 613.523 230.885 617.585 235.526 620.58C238.452 622.358 241.615 623.713 244.921 624.604C245.38 629.604 245.789 634.608 246.058 639.626C246.794 652.018 247.644 664.404 248.391 676.796C245.562 675.298 242.953 673.418 240.636 671.21C232.588 663.729 229.12 651.414 233.123 639.208C235.053 633.77 239.688 630.055 243.66 626.119C238.548 628.76 233.141 631.503 229.928 636.487C221.57 649.327 226.3 668.104 240.118 674.988C240.438 675.163 240.771 675.312 241.098 675.474C236.441 679.57 231.655 683.944 229.632 689.984C225.453 700.418 232.348 710.725 242.017 714.798C244.689 715.984 247.569 716.63 250.491 716.697C250.596 716.692 250.7 716.692 250.805 716.697C252.001 722.339 255.108 727.328 260.67 729.962C268.484 733.846 277.497 733.672 285.99 734.691C297.124 735.785 308.271 736.72 319.411 737.735C329.534 738.911 339.917 740.617 353.492 742.494C368.921 744.4 384.435 745.588 399.952 746.487C402.336 746.608 404.72 746.234 406.952 745.389C409.185 744.543 411.218 743.244 412.924 741.574C421.119 751.268 427.548 760.067 435.473 770.276C446.623 784.39 458.498 797.904 470.284 811.486C488.984 833.13 507.947 854.758 530.74 872.241C531.837 873.109 532.941 873.968 534.053 874.816C532.307 872.58 530.553 870.35 528.792 868.126C513.412 849.196 498.795 827.503 481.089 806.388C470.125 793.687 457.66 782.408 445.49 770.893C434.799 760.94 424.499 750.549 413.105 741.386C417.233 737.359 419.886 731.474 421.606 725.637C427.066 707.602 427.974 688.604 427.941 669.871C427.819 656.893 426.065 644.018 425.02 631.099C423.772 615.708 423.199 600.271 422.374 584.854C421.895 572.245 420.37 559.731 418.814 547.221C419.439 546.626 420.046 546.013 420.635 545.383C441.118 576.579 458.372 609.949 481.258 639.55ZM235.961 555.244C232.707 552.822 229.97 549.775 227.909 546.281C223.011 537.76 224.21 527.531 228.929 518.19C230.682 515.042 232.96 512.216 235.663 509.833C235.682 523.496 236.089 537.153 237.122 550.786C237.232 552.667 237.358 554.546 237.498 556.424C236.982 556.036 236.467 555.646 235.961 555.244ZM236.656 616.839C229.87 610.474 228.685 604.341 229.06 594.768C229.217 589.871 230.602 585.091 233.088 580.869C234.853 578.134 236.853 575.558 239.067 573.172C240.844 589.667 243.157 606.11 244.737 622.624C241.798 621.063 239.081 619.118 236.656 616.839V616.839ZM250.649 716.541C247.578 715.392 244.721 713.738 242.195 711.648C229.222 700.584 232.099 689.675 241.184 675.517C243.499 676.654 245.946 677.5 248.468 678.037C248.744 682.66 249.001 687.284 249.239 691.909C249.533 698.501 249.714 705.102 250.227 711.682C250.263 713.332 250.449 714.974 250.783 716.59C250.741 716.575 250.704 716.561 250.649 716.541V716.541ZM418.511 544.784C418.267 542.821 418.025 540.857 417.785 538.894C416.045 521.822 414.084 504.763 412.635 487.662C414.126 488.232 415.5 489.07 416.69 490.134C418.961 492.929 420.465 496.267 421.056 499.819C422.717 507.766 423.231 514.086 423.759 523.01C424.024 528.529 423.224 534.046 421.405 539.263C420.6 541.183 419.632 543.03 418.511 544.784V544.784Z" fill="#333333"/>
<path d="M320.932 452.931C307.09 451.151 293.043 451.834 279.438 454.948C290.548 455.636 301.695 455.418 312.769 454.295C315.836 453.97 318.894 453.547 321.936 453.044C321.601 453.008 321.267 452.968 320.932 452.931Z" fill="#333333"/>
<path d="M349.994 446.6C341.958 446.799 341.979 458.572 349.994 458.793C358.03 458.594 358.009 446.821 349.994 446.6Z" fill="#333333"/>
<path d="M356.291 550.727C354.452 543.663 350.414 537.368 344.761 532.751C345.886 529.227 347.035 525.71 348.27 522.224C346.219 525.092 344.324 528.069 342.594 531.142C339.503 529.041 336.003 527.617 332.324 526.964C328.558 526.507 324.499 525.982 320.874 527.371C315.253 530.068 311.178 535.309 307.85 540.463C305.996 541.841 304.368 543.499 303.022 545.376C296.422 555.365 298.691 568.281 302.062 579.037C307.357 597.829 331.076 618.162 347.841 599.254C352.529 593.677 355.041 586.656 356.597 579.625C359.189 568.297 358.539 560.097 356.291 550.727ZM347.603 577.754C345.262 586.108 343.631 590.371 338.509 595.199C334.997 598.088 329.307 599.587 320.939 593.286C318.165 591.323 315.652 589.016 313.46 586.419C311.3 583.356 309.436 580.096 307.891 576.682C303.937 567.212 300.525 556.556 304.766 546.879C306.888 542.36 310.985 539.283 314.405 535.792C312.406 537.251 310.276 538.605 308.288 540.114C310.385 537.817 312.734 535.764 315.291 533.995C317.511 532.454 319.855 530.797 322.589 530.4C325.706 530.291 328.813 530.811 331.725 531.929C334.637 533.047 337.294 534.739 339.538 536.906L339.532 536.919C334.712 546.399 331.093 556.442 328.759 566.818C325.526 562.454 321.978 558.333 318.144 554.486C320.492 558.85 322.895 563.186 325.038 567.656C326.439 569.938 327.312 575.565 331.037 573.734C332.375 572.83 332.69 571.108 333.231 569.685C333.991 567.375 334.754 565.066 335.519 562.758C338.003 555.271 340.21 547.699 342.481 540.146C344.296 542.495 345.826 545.052 347.039 547.763C348.692 552.481 349.534 557.446 349.531 562.445C349.561 569.542 349.273 570.682 347.603 577.754V577.754Z" fill="#333333"/>
</g>
<path opacity="0.4" d="M883.925 -129.776C895.565 -142.021 887.669 -162.265 870.814 -163.434L72.7709 -218.792C-122.184 -227.909 -220.189 64.525 -92.4438 212.093C35.3011 359.661 277.31 354.409 444.563 253.815C601.277 159.561 739.965 21.6545 883.925 -129.776Z" fill="#A5DBE2"/>
<path d="M-174.339 352.536L-149.521 994.568C-143.501 1150.3 53.3248 1213.66 141.768 1104.49C230.212 995.319 211.926 802.827 136.022 674.672C60.1185 546.517 -58.2296 467.382 -174.339 352.536Z" fill="#A5DBE2"/>
<path d="M526.495 1617.35C277.671 1059.86 630.751 333.946 1307.05 -84.4032C851.398 437.688 609.276 1051.31 526.495 1617.35Z" fill="#4AC0CF"/>
</g>
<defs>
<clipPath id="clip0_32_3">
<rect width="671" height="970" fill="white"/>
</clipPath>
<clipPath id="clip1_32_3">
<rect width="344.274" height="460.816" fill="white" transform="translate(220 414)"/>
</clipPath>
</defs>
</svg>
