<svg width="802" height="294" viewBox="0 0 802 294" fill="none" xmlns="http://www.w3.org/2000/svg">
<circle cx="393" cy="147" r="123" stroke="#F5F8F9" stroke-width="24"/>
<path d="M258 147C258 72.4416 318.442 12 393 12" stroke="#D9F4F8" stroke-width="24"/>
<path d="M393 12C467.558 12 528 72.4416 528 147" stroke="#2F838D" stroke-width="24"/>
<path d="M528 147C528 221.558 467.558 282 393 282C318.442 282 258 221.558 258 147" stroke="#A5DBE2" stroke-width="24"/>
<path d="M258 42H5.5" stroke="#333333"/>
<path d="M252.5 237H0" stroke="#333333"/>
<path d="M549 86H801.5" stroke="#333333"/>
<circle cx="258" cy="41" r="5" fill="#D9F4F8"/>
<circle cx="252.5" cy="236" r="5" fill="#A5DBE2"/>
<circle r="5" transform="matrix(-1 0 0 1 549 85)" fill="#2F838D"/>
<path d="M7.67898 35H19.1676V32.7415H11.3097V32.6136L14.7784 28.983C17.9744 25.7528 18.8864 24.2102 18.8864 22.2585C18.8864 19.4545 16.6023 17.3068 13.3125 17.3068C10.0483 17.3068 7.66193 19.4205 7.66193 22.608H10.1761C10.1676 20.733 11.3778 19.5057 13.2614 19.5057C15.0341 19.5057 16.3807 20.5966 16.3807 22.3352C16.3807 23.8778 15.4602 24.9858 13.5852 26.9716L7.67898 33.0909V35ZM28.1591 35.2386C31.6705 35.2386 34.1761 32.7585 34.1676 29.358C34.1761 25.983 31.8239 23.5284 28.6449 23.5284C27.3494 23.5284 26.1477 24.0227 25.4659 24.6875H25.3636L25.9176 19.804H33.3239V17.5455H23.7273L22.7472 26.3409L25.1591 26.6989C25.8153 26.1108 26.9915 25.7102 28.0483 25.7102C30.1193 25.7273 31.6193 27.2784 31.6193 29.4091C31.6193 31.5057 30.1619 33.0227 28.1591 33.0227C26.4716 33.0227 25.1335 31.9489 24.9972 30.4489H22.4403C22.5426 33.2273 24.9545 35.2386 28.1591 35.2386ZM46.3913 31.7273C46.3999 33.696 47.6357 35.358 49.9453 35.358C52.2294 35.358 53.4822 33.696 53.4822 31.7273V30.8068C53.4822 28.8295 52.2635 27.1761 49.9453 27.1761C47.6697 27.1761 46.3999 28.8381 46.3913 30.8068V31.7273ZM37.6129 21.7386C37.6129 23.7074 38.8572 25.3693 41.1669 25.3693C43.4425 25.3693 44.7038 23.7159 44.6953 21.7386V20.8182C44.7038 18.8409 43.4766 17.1875 41.1669 17.1875C38.8999 17.1875 37.6129 18.8409 37.6129 20.8182V21.7386ZM38.3288 35H40.3658L52.3658 17.5455H50.3288L38.3288 35ZM48.3771 30.8068C48.3857 29.8267 48.8118 28.8807 49.9453 28.8807C51.1214 28.8807 51.4879 29.8267 51.4879 30.8068V31.7273C51.4879 32.7074 51.0874 33.6534 49.9453 33.6534C48.7862 33.6534 48.3857 32.6989 48.3771 31.7273V30.8068ZM39.6072 20.8182C39.6072 19.8466 40.0334 18.892 41.1669 18.892C42.343 18.892 42.7095 19.8381 42.7095 20.8182V21.7386C42.7095 22.7188 42.3089 23.6648 41.1669 23.6648C40.0078 23.6648 39.6072 22.7188 39.6072 21.7386V20.8182Z" fill="#333333"/>
<path d="M7.94034 230.239C11.4517 230.239 13.9574 227.759 13.9489 224.358C13.9574 220.983 11.6051 218.528 8.42614 218.528C7.13068 218.528 5.92898 219.023 5.24716 219.688H5.14489L5.69886 214.804H13.1051V212.545H3.50852L2.52841 221.341L4.94034 221.699C5.59659 221.111 6.77273 220.71 7.82955 220.71C9.90057 220.727 11.4006 222.278 11.4006 224.409C11.4006 226.506 9.94318 228.023 7.94034 228.023C6.25284 228.023 4.91477 226.949 4.77841 225.449H2.22159C2.32386 228.227 4.7358 230.239 7.94034 230.239ZM23.1385 230.29C27.1697 230.29 29.5305 227 29.5305 221.281C29.5305 215.605 27.1357 212.307 23.1385 212.307C19.1328 212.307 16.7464 215.597 16.7379 221.281C16.7379 226.991 19.0987 230.281 23.1385 230.29ZM23.1385 228.014C20.7777 228.014 19.3544 225.645 19.3544 221.281C19.3629 216.935 20.7862 214.54 23.1385 214.54C25.4822 214.54 26.9141 216.935 26.9141 221.281C26.9141 225.645 25.4908 228.014 23.1385 228.014ZM41.6648 226.727C41.6733 228.696 42.9091 230.358 45.2188 230.358C47.5028 230.358 48.7557 228.696 48.7557 226.727V225.807C48.7557 223.83 47.5369 222.176 45.2188 222.176C42.9432 222.176 41.6733 223.838 41.6648 225.807V226.727ZM32.8864 216.739C32.8864 218.707 34.1307 220.369 36.4403 220.369C38.7159 220.369 39.9773 218.716 39.9688 216.739V215.818C39.9773 213.841 38.75 212.188 36.4403 212.188C34.1733 212.188 32.8864 213.841 32.8864 215.818V216.739ZM33.6023 230H35.6392L47.6392 212.545H45.6023L33.6023 230ZM43.6506 225.807C43.6591 224.827 44.0852 223.881 45.2188 223.881C46.3949 223.881 46.7614 224.827 46.7614 225.807V226.727C46.7614 227.707 46.3608 228.653 45.2188 228.653C44.0597 228.653 43.6591 227.699 43.6506 226.727V225.807ZM34.8807 215.818C34.8807 214.847 35.3068 213.892 36.4403 213.892C37.6165 213.892 37.983 214.838 37.983 215.818V216.739C37.983 217.719 37.5824 218.665 36.4403 218.665C35.2812 218.665 34.8807 217.719 34.8807 216.739V215.818Z" fill="#333333"/>
<path d="M753.679 79H765.168V76.7415H757.31V76.6136L760.778 72.983C763.974 69.7528 764.886 68.2102 764.886 66.2585C764.886 63.4545 762.602 61.3068 759.312 61.3068C756.048 61.3068 753.662 63.4205 753.662 66.608H756.176C756.168 64.733 757.378 63.5057 759.261 63.5057C761.034 63.5057 762.381 64.5966 762.381 66.3352C762.381 67.8778 761.46 68.9858 759.585 70.9716L753.679 77.0909V79ZM774.159 79.2386C777.67 79.2386 780.176 76.7585 780.168 73.358C780.176 69.983 777.824 67.5284 774.645 67.5284C773.349 67.5284 772.148 68.0227 771.466 68.6875H771.364L771.918 63.804H779.324V61.5455H769.727L768.747 70.3409L771.159 70.6989C771.815 70.1108 772.991 69.7102 774.048 69.7102C776.119 69.7273 777.619 71.2784 777.619 73.4091C777.619 75.5057 776.162 77.0227 774.159 77.0227C772.472 77.0227 771.134 75.9489 770.997 74.4489H768.44C768.543 77.2273 770.955 79.2386 774.159 79.2386ZM792.391 75.7273C792.4 77.696 793.636 79.358 795.945 79.358C798.229 79.358 799.482 77.696 799.482 75.7273V74.8068C799.482 72.8295 798.263 71.1761 795.945 71.1761C793.67 71.1761 792.4 72.8381 792.391 74.8068V75.7273ZM783.613 65.7386C783.613 67.7074 784.857 69.3693 787.167 69.3693C789.442 69.3693 790.704 67.7159 790.695 65.7386V64.8182C790.704 62.8409 789.477 61.1875 787.167 61.1875C784.9 61.1875 783.613 62.8409 783.613 64.8182V65.7386ZM784.329 79H786.366L798.366 61.5455H796.329L784.329 79ZM794.377 74.8068C794.386 73.8267 794.812 72.8807 795.945 72.8807C797.121 72.8807 797.488 73.8267 797.488 74.8068V75.7273C797.488 76.7074 797.087 77.6534 795.945 77.6534C794.786 77.6534 794.386 76.6989 794.377 75.7273V74.8068ZM785.607 64.8182C785.607 63.8466 786.033 62.892 787.167 62.892C788.343 62.892 788.71 63.8381 788.71 64.8182V65.7386C788.71 66.7188 788.309 67.6648 787.167 67.6648C786.008 67.6648 785.607 66.7188 785.607 65.7386V64.8182Z" fill="#333333"/>
<path d="M16.7727 63C16.3409 60.6136 14.4318 59.2045 12.0909 59.2045C9.11364 59.2045 6.95455 61.5 6.95455 65.1818C6.95455 68.8636 9.11364 71.1591 12.0909 71.1591C14.4318 71.1591 16.3409 69.75 16.7727 67.3636H15.3636C15.0227 68.9773 13.6364 69.8409 12.0909 69.8409C9.97727 69.8409 8.31818 68.2045 8.31818 65.1818C8.31818 62.1591 9.97727 60.5227 12.0909 60.5227C13.6364 60.5227 15.0227 61.3864 15.3636 63H16.7727ZM24.3679 67.4318C24.3679 69.0682 23.1179 69.8182 22.1179 69.8182C21.0043 69.8182 20.2088 69 20.2088 67.7273V62.2727H18.8679V67.8182C18.8679 70.0455 20.0497 71.1136 21.6861 71.1136C23.0043 71.1136 23.8679 70.4091 24.277 69.5227H24.3679V71H25.7088V62.2727H24.3679V67.4318ZM28.1648 71H29.5057V65.4773C29.5057 64.2955 30.4375 63.4318 31.7102 63.4318C32.0682 63.4318 32.4375 63.5 32.5284 63.5227V62.1591C32.375 62.1477 32.0227 62.1364 31.8239 62.1364C30.7784 62.1364 29.8693 62.7273 29.5511 63.5909H29.4602V62.2727H28.1648V71ZM40.2997 64.2273C39.8793 62.9886 38.9361 62.1591 37.2088 62.1591C35.3679 62.1591 34.0043 63.2045 34.0043 64.6818C34.0043 65.8864 34.7202 66.6932 36.3224 67.0682L37.777 67.4091C38.6577 67.6136 39.0724 68.0341 39.0724 68.6364C39.0724 69.3864 38.277 70 37.027 70C35.9304 70 35.2429 69.5284 35.0043 68.5909L33.7315 68.9091C34.044 70.392 35.2656 71.1818 37.0497 71.1818C39.0781 71.1818 40.4588 70.0739 40.4588 68.5682C40.4588 67.3523 39.6974 66.5852 38.1406 66.2045L36.8452 65.8864C35.8111 65.6307 35.3452 65.2841 35.3452 64.6136C35.3452 63.8636 36.1406 63.3182 37.2088 63.3182C38.3793 63.3182 38.8622 63.9659 39.0952 64.5682L40.2997 64.2273ZM46.0227 71.1818C48.3864 71.1818 49.9773 69.3864 49.9773 66.6818C49.9773 63.9545 48.3864 62.1591 46.0227 62.1591C43.6591 62.1591 42.0682 63.9545 42.0682 66.6818C42.0682 69.3864 43.6591 71.1818 46.0227 71.1818ZM46.0227 69.9773C44.2273 69.9773 43.4091 68.4318 43.4091 66.6818C43.4091 64.9318 44.2273 63.3636 46.0227 63.3636C47.8182 63.3636 48.6364 64.9318 48.6364 66.6818C48.6364 68.4318 47.8182 69.9773 46.0227 69.9773ZM58.206 64.2273C57.7855 62.9886 56.8423 62.1591 55.1151 62.1591C53.2741 62.1591 51.9105 63.2045 51.9105 64.6818C51.9105 65.8864 52.6264 66.6932 54.2287 67.0682L55.6832 67.4091C56.5639 67.6136 56.9787 68.0341 56.9787 68.6364C56.9787 69.3864 56.1832 70 54.9332 70C53.8366 70 53.1491 69.5284 52.9105 68.5909L51.6378 68.9091C51.9503 70.392 53.1719 71.1818 54.956 71.1818C56.9844 71.1818 58.3651 70.0739 58.3651 68.5682C58.3651 67.3523 57.6037 66.5852 56.0469 66.2045L54.7514 65.8864C53.7173 65.6307 53.2514 65.2841 53.2514 64.6136C53.2514 63.8636 54.0469 63.3182 55.1151 63.3182C56.2855 63.3182 56.7685 63.9659 57.0014 64.5682L58.206 64.2273ZM68.5426 71.1818C70.3153 71.1818 71.6108 70.2955 72.0199 68.9773L70.7244 68.6136C70.3835 69.5227 69.5938 69.9773 68.5426 69.9773C66.9688 69.9773 65.8835 68.9602 65.821 67.0909H72.1562V66.5227C72.1562 63.2727 70.2244 62.1591 68.4062 62.1591C66.0426 62.1591 64.4744 64.0227 64.4744 66.7045C64.4744 69.3864 66.0199 71.1818 68.5426 71.1818ZM65.821 65.9318C65.9119 64.5739 66.8722 63.3636 68.4062 63.3636C69.8608 63.3636 70.7926 64.4545 70.7926 65.9318H65.821ZM74.196 71H75.5369V65.5455C75.5369 64.267 76.4688 63.3636 77.5142 63.3636C78.5312 63.3636 79.2415 64.0284 79.2415 65.0227V71H80.6051V65.3182C80.6051 64.1932 81.3097 63.3636 82.5369 63.3636C83.4915 63.3636 84.3097 63.8693 84.3097 65.1591V71H85.6506V65.1591C85.6506 63.108 84.5483 62.1591 82.9915 62.1591C81.7415 62.1591 80.8267 62.733 80.3778 63.6364H80.2869C79.8551 62.7045 79.0938 62.1591 77.946 62.1591C76.8097 62.1591 75.9688 62.7045 75.6051 63.6364H75.4915V62.2727H74.196V71ZM92.6023 74.2727H93.9432V69.6591H94.0568C94.3523 70.1364 94.9205 71.1818 96.6023 71.1818C98.7841 71.1818 100.307 69.4318 100.307 66.6591C100.307 63.9091 98.7841 62.1591 96.5795 62.1591C94.875 62.1591 94.3523 63.2045 94.0568 63.6591H93.8977V62.2727H92.6023V74.2727ZM93.9205 66.6364C93.9205 64.6818 94.7841 63.3636 96.4205 63.3636C98.125 63.3636 98.9659 64.7955 98.9659 66.6364C98.9659 68.5 98.1023 69.9773 96.4205 69.9773C94.8068 69.9773 93.9205 68.6136 93.9205 66.6364ZM102.352 71H103.693V65.4773C103.693 64.2955 104.625 63.4318 105.898 63.4318C106.256 63.4318 106.625 63.5 106.716 63.5227V62.1591C106.562 62.1477 106.21 62.1364 106.011 62.1364C104.966 62.1364 104.057 62.7273 103.739 63.5909H103.648V62.2727H102.352V71ZM111.585 71.1818C113.949 71.1818 115.54 69.3864 115.54 66.6818C115.54 63.9545 113.949 62.1591 111.585 62.1591C109.222 62.1591 107.631 63.9545 107.631 66.6818C107.631 69.3864 109.222 71.1818 111.585 71.1818ZM111.585 69.9773C109.79 69.9773 108.972 68.4318 108.972 66.6818C108.972 64.9318 109.79 63.3636 111.585 63.3636C113.381 63.3636 114.199 64.9318 114.199 66.6818C114.199 68.4318 113.381 69.9773 111.585 69.9773ZM121.109 74.4545C123.2 74.4545 124.882 73.5 124.882 71.25V62.2727H123.587V63.6591H123.45C123.155 63.2045 122.609 62.1591 120.905 62.1591C118.7 62.1591 117.178 63.9091 117.178 66.5909C117.178 69.3182 118.768 70.8636 120.882 70.8636C122.587 70.8636 123.132 69.8636 123.428 69.3864H123.541V71.1591C123.541 72.6136 122.518 73.2727 121.109 73.2727C119.524 73.2727 118.967 72.4375 118.609 71.9545L117.541 72.7045C118.087 73.6193 119.161 74.4545 121.109 74.4545ZM121.064 69.6591C119.382 69.6591 118.518 68.3864 118.518 66.5682C118.518 64.7955 119.359 63.3636 121.064 63.3636C122.7 63.3636 123.564 64.6818 123.564 66.5682C123.564 68.5 122.678 69.6591 121.064 69.6591ZM127.337 71H128.678V65.4773C128.678 64.2955 129.609 63.4318 130.882 63.4318C131.24 63.4318 131.609 63.5 131.7 63.5227V62.1591C131.547 62.1477 131.195 62.1364 130.996 62.1364C129.95 62.1364 129.041 62.7273 128.723 63.5909H128.632V62.2727H127.337V71ZM136.683 71.1818C138.456 71.1818 139.751 70.2955 140.161 68.9773L138.865 68.6136C138.524 69.5227 137.734 69.9773 136.683 69.9773C135.109 69.9773 134.024 68.9602 133.962 67.0909H140.297V66.5227C140.297 63.2727 138.365 62.1591 136.547 62.1591C134.183 62.1591 132.615 64.0227 132.615 66.7045C132.615 69.3864 134.161 71.1818 136.683 71.1818ZM133.962 65.9318C134.053 64.5739 135.013 63.3636 136.547 63.3636C138.001 63.3636 138.933 64.4545 138.933 65.9318H133.962ZM148.518 64.2273C148.098 62.9886 147.155 62.1591 145.428 62.1591C143.587 62.1591 142.223 63.2045 142.223 64.6818C142.223 65.8864 142.939 66.6932 144.541 67.0682L145.996 67.4091C146.876 67.6136 147.291 68.0341 147.291 68.6364C147.291 69.3864 146.496 70 145.246 70C144.149 70 143.462 69.5284 143.223 68.5909L141.95 68.9091C142.263 70.392 143.484 71.1818 145.268 71.1818C147.297 71.1818 148.678 70.0739 148.678 68.5682C148.678 67.3523 147.916 66.5852 146.359 66.2045L145.064 65.8864C144.03 65.6307 143.564 65.2841 143.564 64.6136C143.564 63.8636 144.359 63.3182 145.428 63.3182C146.598 63.3182 147.081 63.9659 147.314 64.5682L148.518 64.2273ZM156.878 64.2273C156.457 62.9886 155.514 62.1591 153.787 62.1591C151.946 62.1591 150.582 63.2045 150.582 64.6818C150.582 65.8864 151.298 66.6932 152.901 67.0682L154.355 67.4091C155.236 67.6136 155.651 68.0341 155.651 68.6364C155.651 69.3864 154.855 70 153.605 70C152.509 70 151.821 69.5284 151.582 68.5909L150.31 68.9091C150.622 70.392 151.844 71.1818 153.628 71.1818C155.656 71.1818 157.037 70.0739 157.037 68.5682C157.037 67.3523 156.276 66.5852 154.719 66.2045L153.423 65.8864C152.389 65.6307 151.923 65.2841 151.923 64.6136C151.923 63.8636 152.719 63.3182 153.787 63.3182C154.957 63.3182 155.44 63.9659 155.673 64.5682L156.878 64.2273ZM162.601 71.1818C164.964 71.1818 166.555 69.3864 166.555 66.6818C166.555 63.9545 164.964 62.1591 162.601 62.1591C160.237 62.1591 158.646 63.9545 158.646 66.6818C158.646 69.3864 160.237 71.1818 162.601 71.1818ZM162.601 69.9773C160.805 69.9773 159.987 68.4318 159.987 66.6818C159.987 64.9318 160.805 63.3636 162.601 63.3636C164.396 63.3636 165.214 64.9318 165.214 66.6818C165.214 68.4318 164.396 69.9773 162.601 69.9773Z" fill="#898989"/>
<path d="M11.2727 258C10.8409 255.614 8.93182 254.205 6.59091 254.205C3.61364 254.205 1.45455 256.5 1.45455 260.182C1.45455 263.864 3.61364 266.159 6.59091 266.159C8.93182 266.159 10.8409 264.75 11.2727 262.364H9.86364C9.52273 263.977 8.13636 264.841 6.59091 264.841C4.47727 264.841 2.81818 263.205 2.81818 260.182C2.81818 257.159 4.47727 255.523 6.59091 255.523C8.13636 255.523 9.52273 256.386 9.86364 258H11.2727ZM18.8679 262.432C18.8679 264.068 17.6179 264.818 16.6179 264.818C15.5043 264.818 14.7088 264 14.7088 262.727V257.273H13.3679V262.818C13.3679 265.045 14.5497 266.114 16.1861 266.114C17.5043 266.114 18.3679 265.409 18.777 264.523H18.8679V266H20.2088V257.273H18.8679V262.432ZM22.6648 266H24.0057V260.477C24.0057 259.295 24.9375 258.432 26.2102 258.432C26.5682 258.432 26.9375 258.5 27.0284 258.523V257.159C26.875 257.148 26.5227 257.136 26.3239 257.136C25.2784 257.136 24.3693 257.727 24.0511 258.591H23.9602V257.273H22.6648V266ZM34.7997 259.227C34.3793 257.989 33.4361 257.159 31.7088 257.159C29.8679 257.159 28.5043 258.205 28.5043 259.682C28.5043 260.886 29.2202 261.693 30.8224 262.068L32.277 262.409C33.1577 262.614 33.5724 263.034 33.5724 263.636C33.5724 264.386 32.777 265 31.527 265C30.4304 265 29.7429 264.528 29.5043 263.591L28.2315 263.909C28.544 265.392 29.7656 266.182 31.5497 266.182C33.5781 266.182 34.9588 265.074 34.9588 263.568C34.9588 262.352 34.1974 261.585 32.6406 261.205L31.3452 260.886C30.3111 260.631 29.8452 260.284 29.8452 259.614C29.8452 258.864 30.6406 258.318 31.7088 258.318C32.8793 258.318 33.3622 258.966 33.5952 259.568L34.7997 259.227ZM40.5227 266.182C42.8864 266.182 44.4773 264.386 44.4773 261.682C44.4773 258.955 42.8864 257.159 40.5227 257.159C38.1591 257.159 36.5682 258.955 36.5682 261.682C36.5682 264.386 38.1591 266.182 40.5227 266.182ZM40.5227 264.977C38.7273 264.977 37.9091 263.432 37.9091 261.682C37.9091 259.932 38.7273 258.364 40.5227 258.364C42.3182 258.364 43.1364 259.932 43.1364 261.682C43.1364 263.432 42.3182 264.977 40.5227 264.977ZM52.706 259.227C52.2855 257.989 51.3423 257.159 49.6151 257.159C47.7741 257.159 46.4105 258.205 46.4105 259.682C46.4105 260.886 47.1264 261.693 48.7287 262.068L50.1832 262.409C51.0639 262.614 51.4787 263.034 51.4787 263.636C51.4787 264.386 50.6832 265 49.4332 265C48.3366 265 47.6491 264.528 47.4105 263.591L46.1378 263.909C46.4503 265.392 47.6719 266.182 49.456 266.182C51.4844 266.182 52.8651 265.074 52.8651 263.568C52.8651 262.352 52.1037 261.585 50.5469 261.205L49.2514 260.886C48.2173 260.631 47.7514 260.284 47.7514 259.614C47.7514 258.864 48.5469 258.318 49.6151 258.318C50.7855 258.318 51.2685 258.966 51.5014 259.568L52.706 259.227ZM63.2699 257.273H61.3153V256.386C61.3153 255.523 61.679 255.068 62.5653 255.068C62.9517 255.068 63.179 255.159 63.3153 255.205L63.7017 254.045C63.4972 253.955 63.0881 253.818 62.429 253.818C61.179 253.818 59.9744 254.568 59.9744 256.068V257.273H58.5653V258.409H59.9744V266H61.3153V258.409H63.2699V257.273ZM67.4673 266.205C68.9901 266.205 69.7855 265.386 70.0582 264.818H70.1264V266H71.4673V260.25C71.4673 257.477 69.3537 257.159 68.2401 257.159C66.9219 257.159 65.4219 257.614 64.7401 259.205L66.0128 259.659C66.3082 259.023 67.0071 258.341 68.2855 258.341C69.5185 258.341 70.1264 258.994 70.1264 260.114V260.159C70.1264 260.807 69.4673 260.75 67.8764 260.955C66.2571 261.165 64.4901 261.523 64.4901 263.523C64.4901 265.227 65.8082 266.205 67.4673 266.205ZM67.6719 265C66.6037 265 65.831 264.523 65.831 263.591C65.831 262.568 66.7628 262.25 67.8082 262.114C68.3764 262.045 69.8991 261.886 70.1264 261.614V262.841C70.1264 263.932 69.2628 265 67.6719 265ZM80.7386 257.273H79.2841L76.875 264.227H76.7841L74.375 257.273H72.9205L76.1477 266H77.5114L80.7386 257.273ZM85.7415 266.182C88.1051 266.182 89.696 264.386 89.696 261.682C89.696 258.955 88.1051 257.159 85.7415 257.159C83.3778 257.159 81.7869 258.955 81.7869 261.682C81.7869 264.386 83.3778 266.182 85.7415 266.182ZM85.7415 264.977C83.946 264.977 83.1278 263.432 83.1278 261.682C83.1278 259.932 83.946 258.364 85.7415 258.364C87.5369 258.364 88.3551 259.932 88.3551 261.682C88.3551 263.432 87.5369 264.977 85.7415 264.977ZM91.7429 266H93.0838V260.477C93.0838 259.295 94.0156 258.432 95.2884 258.432C95.6463 258.432 96.0156 258.5 96.1065 258.523V257.159C95.9531 257.148 95.6009 257.136 95.402 257.136C94.3565 257.136 93.4474 257.727 93.1293 258.591H93.0384V257.273H91.7429V266ZM97.696 266H99.0369V257.273H97.696V266ZM98.3778 255.818C98.9006 255.818 99.3324 255.409 99.3324 254.909C99.3324 254.409 98.9006 254 98.3778 254C97.8551 254 97.4233 254.409 97.4233 254.909C97.4233 255.409 97.8551 255.818 98.3778 255.818ZM105.288 257.273H103.425V255.182H102.084V257.273H100.766V258.409H102.084V263.864C102.084 265.386 103.311 266.114 104.447 266.114C104.947 266.114 105.266 266.023 105.447 265.955L105.175 264.75C105.061 264.773 104.879 264.818 104.584 264.818C103.993 264.818 103.425 264.636 103.425 263.5V258.409H105.288V257.273ZM109.874 266.205C111.396 266.205 112.192 265.386 112.464 264.818H112.533V266H113.874V260.25C113.874 257.477 111.76 257.159 110.646 257.159C109.328 257.159 107.828 257.614 107.146 259.205L108.419 259.659C108.714 259.023 109.413 258.341 110.692 258.341C111.925 258.341 112.533 258.994 112.533 260.114V260.159C112.533 260.807 111.874 260.75 110.283 260.955C108.663 261.165 106.896 261.523 106.896 263.523C106.896 265.227 108.214 266.205 109.874 266.205ZM110.078 265C109.01 265 108.237 264.523 108.237 263.591C108.237 262.568 109.169 262.25 110.214 262.114C110.783 262.045 112.305 261.886 112.533 261.614V262.841C112.533 263.932 111.669 265 110.078 265ZM119.616 266.182C121.298 266.182 121.866 265.136 122.162 264.659H122.321V266H123.616V254.364H122.276V258.659H122.162C121.866 258.205 121.344 257.159 119.639 257.159C117.435 257.159 115.912 258.909 115.912 261.659C115.912 264.432 117.435 266.182 119.616 266.182ZM119.798 264.977C118.116 264.977 117.253 263.5 117.253 261.636C117.253 259.795 118.094 258.364 119.798 258.364C121.435 258.364 122.298 259.682 122.298 261.636C122.298 263.614 121.412 264.977 119.798 264.977ZM129.804 266.182C132.168 266.182 133.759 264.386 133.759 261.682C133.759 258.955 132.168 257.159 129.804 257.159C127.44 257.159 125.849 258.955 125.849 261.682C125.849 264.386 127.44 266.182 129.804 266.182ZM129.804 264.977C128.009 264.977 127.19 263.432 127.19 261.682C127.19 259.932 128.009 258.364 129.804 258.364C131.599 258.364 132.418 259.932 132.418 261.682C132.418 263.432 131.599 264.977 129.804 264.977ZM141.987 259.227C141.567 257.989 140.624 257.159 138.896 257.159C137.055 257.159 135.692 258.205 135.692 259.682C135.692 260.886 136.408 261.693 138.01 262.068L139.464 262.409C140.345 262.614 140.76 263.034 140.76 263.636C140.76 264.386 139.964 265 138.714 265C137.618 265 136.93 264.528 136.692 263.591L135.419 263.909C135.732 265.392 136.953 266.182 138.737 266.182C140.766 266.182 142.146 265.074 142.146 263.568C142.146 262.352 141.385 261.585 139.828 261.205L138.533 260.886C137.499 260.631 137.033 260.284 137.033 259.614C137.033 258.864 137.828 258.318 138.896 258.318C140.067 258.318 140.55 258.966 140.783 259.568L141.987 259.227Z" fill="#898989"/>
<path d="M672.773 107C672.341 104.614 670.432 103.205 668.091 103.205C665.114 103.205 662.955 105.5 662.955 109.182C662.955 112.864 665.114 115.159 668.091 115.159C670.432 115.159 672.341 113.75 672.773 111.364H671.364C671.023 112.977 669.636 113.841 668.091 113.841C665.977 113.841 664.318 112.205 664.318 109.182C664.318 106.159 665.977 104.523 668.091 104.523C669.636 104.523 671.023 105.386 671.364 107H672.773ZM680.368 111.432C680.368 113.068 679.118 113.818 678.118 113.818C677.004 113.818 676.209 113 676.209 111.727V106.273H674.868V111.818C674.868 114.045 676.05 115.114 677.686 115.114C679.004 115.114 679.868 114.409 680.277 113.523H680.368V115H681.709V106.273H680.368V111.432ZM684.165 115H685.506V109.477C685.506 108.295 686.438 107.432 687.71 107.432C688.068 107.432 688.438 107.5 688.528 107.523V106.159C688.375 106.148 688.023 106.136 687.824 106.136C686.778 106.136 685.869 106.727 685.551 107.591H685.46V106.273H684.165V115ZM696.3 108.227C695.879 106.989 694.936 106.159 693.209 106.159C691.368 106.159 690.004 107.205 690.004 108.682C690.004 109.886 690.72 110.693 692.322 111.068L693.777 111.409C694.658 111.614 695.072 112.034 695.072 112.636C695.072 113.386 694.277 114 693.027 114C691.93 114 691.243 113.528 691.004 112.591L689.732 112.909C690.044 114.392 691.266 115.182 693.05 115.182C695.078 115.182 696.459 114.074 696.459 112.568C696.459 111.352 695.697 110.585 694.141 110.205L692.845 109.886C691.811 109.631 691.345 109.284 691.345 108.614C691.345 107.864 692.141 107.318 693.209 107.318C694.379 107.318 694.862 107.966 695.095 108.568L696.3 108.227ZM702.023 115.182C704.386 115.182 705.977 113.386 705.977 110.682C705.977 107.955 704.386 106.159 702.023 106.159C699.659 106.159 698.068 107.955 698.068 110.682C698.068 113.386 699.659 115.182 702.023 115.182ZM702.023 113.977C700.227 113.977 699.409 112.432 699.409 110.682C699.409 108.932 700.227 107.364 702.023 107.364C703.818 107.364 704.636 108.932 704.636 110.682C704.636 112.432 703.818 113.977 702.023 113.977ZM714.206 108.227C713.786 106.989 712.842 106.159 711.115 106.159C709.274 106.159 707.911 107.205 707.911 108.682C707.911 109.886 708.626 110.693 710.229 111.068L711.683 111.409C712.564 111.614 712.979 112.034 712.979 112.636C712.979 113.386 712.183 114 710.933 114C709.837 114 709.149 113.528 708.911 112.591L707.638 112.909C707.95 114.392 709.172 115.182 710.956 115.182C712.984 115.182 714.365 114.074 714.365 112.568C714.365 111.352 713.604 110.585 712.047 110.205L710.751 109.886C709.717 109.631 709.251 109.284 709.251 108.614C709.251 107.864 710.047 107.318 711.115 107.318C712.286 107.318 712.768 107.966 713.001 108.568L714.206 108.227ZM724.429 115.182C726.361 115.182 727.634 114 727.861 112.455H726.52C726.27 113.409 725.474 113.977 724.429 113.977C722.838 113.977 721.815 112.659 721.815 110.636C721.815 108.659 722.861 107.364 724.429 107.364C725.611 107.364 726.315 108.091 726.52 108.886H727.861C727.634 107.25 726.247 106.159 724.406 106.159C722.043 106.159 720.474 108.023 720.474 110.682C720.474 113.295 721.974 115.182 724.429 115.182ZM733.366 115.182C735.73 115.182 737.321 113.386 737.321 110.682C737.321 107.955 735.73 106.159 733.366 106.159C731.003 106.159 729.412 107.955 729.412 110.682C729.412 113.386 731.003 115.182 733.366 115.182ZM733.366 113.977C731.571 113.977 730.753 112.432 730.753 110.682C730.753 108.932 731.571 107.364 733.366 107.364C735.162 107.364 735.98 108.932 735.98 110.682C735.98 112.432 735.162 113.977 733.366 113.977ZM740.709 109.75C740.709 108.227 741.652 107.364 742.936 107.364C744.18 107.364 744.936 108.176 744.936 109.545V115H746.277V109.455C746.277 107.227 745.089 106.159 743.322 106.159C742.004 106.159 741.186 106.75 740.777 107.636H740.663V106.273H739.368V115H740.709V109.75ZM752.273 115.182C754.205 115.182 755.477 114 755.705 112.455H754.364C754.114 113.409 753.318 113.977 752.273 113.977C750.682 113.977 749.659 112.659 749.659 110.636C749.659 108.659 750.705 107.364 752.273 107.364C753.455 107.364 754.159 108.091 754.364 108.886H755.705C755.477 107.25 754.091 106.159 752.25 106.159C749.886 106.159 748.318 108.023 748.318 110.682C748.318 113.295 749.818 115.182 752.273 115.182ZM759.006 103.364H757.665V115H759.006V103.364ZM766.962 111.432C766.962 113.068 765.712 113.818 764.712 113.818C763.598 113.818 762.803 113 762.803 111.727V106.273H761.462V111.818C761.462 114.045 762.643 115.114 764.28 115.114C765.598 115.114 766.462 114.409 766.871 113.523H766.962V115H768.303V106.273H766.962V111.432ZM770.759 115H772.099V106.273H770.759V115ZM770.827 105.091H772.009L773.781 102.455H772.213L770.827 105.091ZM777.851 115.182C779.533 115.182 780.101 114.136 780.396 113.659H780.555V115H781.851V103.364H780.51V107.659H780.396C780.101 107.205 779.578 106.159 777.874 106.159C775.669 106.159 774.146 107.909 774.146 110.659C774.146 113.432 775.669 115.182 777.851 115.182ZM778.033 113.977C776.351 113.977 775.487 112.5 775.487 110.636C775.487 108.795 776.328 107.364 778.033 107.364C779.669 107.364 780.533 108.682 780.533 110.636C780.533 112.614 779.646 113.977 778.033 113.977ZM788.038 115.182C790.402 115.182 791.993 113.386 791.993 110.682C791.993 107.955 790.402 106.159 788.038 106.159C785.675 106.159 784.084 107.955 784.084 110.682C784.084 113.386 785.675 115.182 788.038 115.182ZM788.038 113.977C786.243 113.977 785.425 112.432 785.425 110.682C785.425 108.932 786.243 107.364 788.038 107.364C789.834 107.364 790.652 108.932 790.652 110.682C790.652 112.432 789.834 113.977 788.038 113.977ZM800.222 108.227C799.801 106.989 798.858 106.159 797.131 106.159C795.29 106.159 793.926 107.205 793.926 108.682C793.926 109.886 794.642 110.693 796.244 111.068L797.699 111.409C798.58 111.614 798.994 112.034 798.994 112.636C798.994 113.386 798.199 114 796.949 114C795.852 114 795.165 113.528 794.926 112.591L793.653 112.909C793.966 114.392 795.188 115.182 796.972 115.182C799 115.182 800.381 114.074 800.381 112.568C800.381 111.352 799.619 110.585 798.062 110.205L796.767 109.886C795.733 109.631 795.267 109.284 795.267 108.614C795.267 107.864 796.062 107.318 797.131 107.318C798.301 107.318 798.784 107.966 799.017 108.568L800.222 108.227Z" fill="#898989"/>
<path d="M11.2102 95.1591C13.6989 95.1591 15.5114 93.733 15.5057 91.767C15.5114 90.3125 14.6023 89.267 12.9716 89.0341V88.9432C14.233 88.6705 15.0795 87.733 15.0739 86.4261C15.0795 84.6534 13.5682 83.2045 11.2443 83.2045C8.98295 83.2045 7.23295 84.5511 7.1875 86.5H9.21591C9.25 85.5227 10.1591 84.9148 11.233 84.9148C12.3182 84.9148 13.0398 85.5739 13.0341 86.5511C13.0398 87.5682 12.1989 88.2443 10.9943 88.2443H9.96591V89.8693H10.9943C12.4659 89.8693 13.3409 90.608 13.3352 91.6591C13.3409 92.6875 12.4489 93.392 11.2045 93.392C10.0341 93.392 9.13068 92.7841 9.07955 91.8352H6.94318C7 93.8011 8.75568 95.1591 11.2102 95.1591Z" fill="#2F838D"/>
<path d="M5.79545 290.159C8.30682 290.176 9.99432 288.449 9.98864 286.148C9.99432 283.949 8.42614 282.358 6.38636 282.358C5.13636 282.358 4.03409 282.966 3.47727 283.966H3.39773C3.40341 281.517 4.30114 280.028 5.91477 280.028C6.91477 280.028 7.59091 280.608 7.80682 281.5H9.88068C9.63068 279.619 8.11364 278.205 5.91477 278.205C3.11932 278.205 1.35227 280.534 1.35227 284.511C1.34659 288.778 3.5625 290.148 5.79545 290.159ZM5.78409 288.455C4.53977 288.455 3.63068 287.426 3.625 286.21C3.63636 284.989 4.57955 283.966 5.8125 283.966C7.04545 283.966 7.94886 284.943 7.94318 286.193C7.94886 287.466 7.01705 288.455 5.78409 288.455Z" fill="#2F838D"/>
<path d="M796.21 139.159C798.699 139.159 800.511 137.733 800.506 135.767C800.511 134.312 799.602 133.267 797.972 133.034V132.943C799.233 132.67 800.08 131.733 800.074 130.426C800.08 128.653 798.568 127.205 796.244 127.205C793.983 127.205 792.233 128.551 792.188 130.5H794.216C794.25 129.523 795.159 128.915 796.233 128.915C797.318 128.915 798.04 129.574 798.034 130.551C798.04 131.568 797.199 132.244 795.994 132.244H794.966V133.869H795.994C797.466 133.869 798.341 134.608 798.335 135.659C798.341 136.688 797.449 137.392 796.205 137.392C795.034 137.392 794.131 136.784 794.08 135.835H791.943C792 137.801 793.756 139.159 796.21 139.159Z" fill="#2F838D"/>
<rect x="332" y="86" width="122" height="122" rx="61" fill="#F5F8F9"/>
<path fill-rule="evenodd" clip-rule="evenodd" d="M417.553 135C413.462 132.771 409.368 131.654 405.277 131.654C401.186 131.654 397.091 132.771 393 135V165.415C397.091 163.368 401.186 162.346 405.277 162.346C409.368 162.346 413.462 163.368 417.553 165.415V135Z" stroke="#2F838D" stroke-width="1.15094" stroke-linecap="round" stroke-linejoin="round"/>
<path fill-rule="evenodd" clip-rule="evenodd" d="M411.587 138.676C409.485 138.087 407.382 137.792 405.277 137.792C403.171 137.792 401.072 138.087 398.967 138.676H411.587ZM411.587 144.815C409.485 144.225 407.382 143.931 405.277 143.931C403.171 143.931 401.072 144.225 398.967 144.815H411.587ZM411.587 150.953C409.485 150.364 407.382 150.069 405.277 150.069C403.171 150.069 401.072 150.364 398.967 150.953H411.587ZM411.587 157.092C409.485 156.502 407.382 156.208 405.277 156.208C403.171 156.208 401.072 156.502 398.967 157.092H411.587ZM387.034 138.676C384.928 138.087 382.829 137.792 380.723 137.792C378.618 137.792 376.519 138.087 374.413 138.676H387.034ZM387.034 144.815C384.928 144.225 382.829 143.931 380.723 143.931C378.618 143.931 376.519 144.225 374.413 144.815H387.034ZM387.034 150.953C384.931 150.364 382.829 150.069 380.723 150.069C378.618 150.069 376.519 150.364 374.413 150.953H387.034ZM387.034 157.092C384.931 156.502 382.829 156.208 380.723 156.208C378.618 156.208 376.519 156.502 374.413 157.092" fill="#2F838D"/>
<path d="M387.034 157.092C384.931 156.502 382.829 156.208 380.723 156.208C378.618 156.208 376.519 156.502 374.413 157.092M411.587 138.676C409.485 138.087 407.382 137.792 405.277 137.792C403.171 137.792 401.072 138.087 398.967 138.676H411.587ZM411.587 144.815C409.485 144.225 407.382 143.931 405.277 143.931C403.171 143.931 401.072 144.225 398.967 144.815H411.587ZM411.587 150.953C409.485 150.364 407.382 150.069 405.277 150.069C403.171 150.069 401.072 150.364 398.967 150.953H411.587ZM411.587 157.092C409.485 156.502 407.382 156.208 405.277 156.208C403.171 156.208 401.072 156.502 398.967 157.092H411.587ZM387.034 138.676C384.928 138.087 382.829 137.792 380.723 137.792C378.618 137.792 376.519 138.087 374.413 138.676H387.034ZM387.034 144.815C384.928 144.225 382.829 143.931 380.723 143.931C378.618 143.931 376.519 144.225 374.413 144.815H387.034ZM387.034 150.953C384.931 150.364 382.829 150.069 380.723 150.069C378.618 150.069 376.519 150.364 374.413 150.953H387.034Z" stroke="#2F838D" stroke-width="0.575472" stroke-linecap="round" stroke-linejoin="round"/>
<path fill-rule="evenodd" clip-rule="evenodd" d="M393 135C388.909 132.771 384.814 131.654 380.723 131.654C376.632 131.654 372.538 132.771 368.446 135V165.415C372.538 163.368 376.632 162.346 380.723 162.346C384.814 162.346 388.909 163.368 393 165.415V135Z" stroke="#2F838D" stroke-width="1.15094" stroke-linecap="round" stroke-linejoin="round"/>
</svg>
