<svg width="50" height="28" viewBox="0 0 50 28" fill="none" xmlns="http://www.w3.org/2000/svg">
<g clip-path="url(#clip0_60_216)">
<path d="M35.0502 10.8516C37.4651 11.34 39.8552 12.3311 42.1904 13.8125C39.8641 10.9014 37.4008 8.59667 34.8473 6.94207C31.0807 4.36997 27.1394 3.03047 23.2038 3.45367C20.0309 3.66665 16.8443 4.64064 13.8649 7.22525C13.0463 7.96404 12.1925 8.63683 11.4722 9.81334C11.7126 9.61585 11.9605 9.46832 12.2126 9.37254C13.2356 8.97798 14.2672 8.70826 15.3029 8.56454C19.4024 7.93298 23.4983 9.00179 27.5908 9.46275C30.0837 9.73248 32.5693 10.2443 35.0502 10.8516Z" fill="#D9F4F8"/>
<path fill-rule="evenodd" clip-rule="evenodd" d="M34.3726 24.6394C31.2734 26.0864 28.1445 27.3394 24.9855 27.8445C23.3888 28.1247 21.7838 28.0421 20.1944 27.5978C18.9915 27.1954 17.8241 26.3768 16.6708 25.521C15.2564 24.4519 13.8764 22.9807 12.7354 20.7686C12.0829 19.4713 11.499 18.006 10.9954 16.402C11.0123 16.4352 11.0293 16.4685 11.0462 16.5018C11.1005 16.6083 11.1548 16.7148 11.2097 16.8196C12.1746 18.7446 13.3878 20.4436 14.4067 21.2663C16.5452 23.0022 18.8083 23.7686 20.5426 24.0361C24.2435 24.1112 27.0412 23.1023 30.275 21.9361C30.5121 21.8506 30.7515 21.7643 30.9937 21.6774C33.9475 20.5349 36.8651 18.9672 39.7685 17.2951C41.861 16.1187 43.9517 14.8537 45.9812 13.1942C45.2328 12.7317 44.4536 12.2444 43.6581 11.7468C38.9585 8.80747 33.6872 5.51053 30.7961 4.85076C28.3303 4.17603 25.8433 4.08131 23.3627 4.21149C21.0136 4.40084 19.0887 4.643 17.1283 5.67615C15.5178 6.65099 14.0596 8.29685 12.538 10.0143C11.9034 10.7306 11.2578 11.4593 10.5855 12.157L10.4367 12.1307C10.8954 11.422 11.3501 10.6876 11.8057 9.95181C13.3666 7.43075 14.938 4.89288 16.714 3.31295C18.4294 1.83772 20.257 1.15749 22.0685 0.610258C25.4123 -0.349997 28.8035 -0.12571 32.1378 0.924038C35.4032 1.99277 38.5997 3.87012 41.7916 5.7448C42.4346 6.12243 43.0774 6.49994 43.7205 6.87072C45.4867 7.91668 47.2554 8.9401 49.0264 9.94099C50.2162 10.5967 50.35 13.8551 49.2366 14.9408C46.2662 18.3299 39.2771 22.288 34.3726 24.6394Z" fill="#333333"/>
</g>
<defs>
<clipPath id="clip0_60_216">
<rect width="28" height="50" fill="white" transform="translate(50) rotate(90)"/>
</clipPath>
</defs>
</svg>
