<svg width="87" height="73" viewBox="0 0 87 73" fill="none" xmlns="http://www.w3.org/2000/svg">
<path d="M79.7989 21.2804C79.7989 12.5148 72.6929 5.40881 63.9273 5.40881C55.1616 5.40881 48.0557 12.5148 48.0557 21.2804" stroke="#A5DBE2" stroke-width="1.76351"/>
<path d="M84.2078 21.2804C84.2078 10.0798 75.095 1 63.8539 1C52.6127 1 43.5 10.0798 43.5 21.2804" stroke="#4AC0CF" stroke-width="1.76351"/>
<path d="M7.2006 51.2601C7.2006 60.0257 14.3066 67.1317 23.0722 67.1317C31.8379 67.1317 38.9438 60.0257 38.9438 51.2601" stroke="#A5DBE2" stroke-width="1.76351"/>
<path d="M2.79223 51.2601C2.79223 62.4607 11.905 71.5405 23.1461 71.5405C34.3873 71.5405 43.5 62.4607 43.5 51.2601" stroke="#4AC0CF" stroke-width="1.76351"/>
<path d="M2.58849 44.6959H5.17698V36.346H9.85296C10.0408 36.346 10.2183 36.346 10.3957 36.3355L14.9047 44.6959H17.9107L13.0781 35.8658C15.8023 34.9369 17.0757 32.7137 17.0757 29.8747C17.0757 26.0964 14.8212 23.32 9.81121 23.32H2.58849V44.6959ZM5.17698 34.008V25.6162H9.72771C13.193 25.6162 14.5289 27.3071 14.5289 29.8747C14.5289 32.4423 13.193 34.008 9.76946 34.008H5.17698ZM27.6045 45.0299C30.861 45.0299 33.2407 43.4017 33.9922 40.9802L31.6125 40.3122C30.9862 41.9822 29.5354 42.8172 27.6045 42.8172C24.7133 42.8172 22.7197 40.9489 22.6049 37.5149H34.2427V36.4712C34.2427 30.501 30.694 28.4552 27.354 28.4552C23.012 28.4552 20.1313 31.8787 20.1313 36.8052C20.1313 41.7317 22.9702 45.0299 27.6045 45.0299ZM22.6049 35.3857C22.7719 32.8912 24.5359 30.668 27.354 30.668C30.026 30.668 31.7377 32.672 31.7377 35.3857H22.6049ZM44.5027 45.0299C48.0515 45.0299 50.3895 42.8589 50.807 40.0199H48.3437C47.8845 41.7734 46.4232 42.8172 44.5027 42.8172C41.5802 42.8172 39.7015 40.3957 39.7015 36.68C39.7015 33.0477 41.622 30.668 44.5027 30.668C46.6737 30.668 47.968 32.004 48.3437 33.4652H50.807C50.3895 30.4592 47.8427 28.4552 44.461 28.4552C40.119 28.4552 37.2383 31.8787 37.2383 36.7635C37.2383 41.5647 39.9937 45.0299 44.5027 45.0299ZM60.9209 45.0299C65.2628 45.0299 68.1853 41.7317 68.1853 36.7635C68.1853 31.7535 65.2628 28.4552 60.9209 28.4552C56.5789 28.4552 53.6564 31.7535 53.6564 36.7635C53.6564 41.7317 56.5789 45.0299 60.9209 45.0299ZM60.9209 42.8172C57.6226 42.8172 56.1196 39.9782 56.1196 36.7635C56.1196 33.5487 57.6226 30.668 60.9209 30.668C64.2191 30.668 65.7221 33.5487 65.7221 36.7635C65.7221 39.9782 64.2191 42.8172 60.9209 42.8172ZM74.4087 35.0517C74.4087 32.2545 76.1413 30.668 78.5002 30.668C80.786 30.668 82.1741 32.1605 82.1741 34.676V44.6959H84.6374V34.509C84.6374 30.4175 82.4559 28.4552 79.2099 28.4552C76.7884 28.4552 75.2854 29.5407 74.5339 31.169H74.3252V28.664H71.9454V44.6959H74.4087V35.0517Z" fill="#333333"/>
</svg>
