<svg width="112" height="112" viewBox="0 0 112 112" fill="none" xmlns="http://www.w3.org/2000/svg">
<path d="M0 16C0 7.16344 7.16344 0 16 0H96C104.837 0 112 7.16344 112 16V96C112 104.837 104.837 112 96 112H16C7.16344 112 0 104.837 0 96V16Z" fill="#F5F8F9"/>
<path d="M57.1737 62.6429C58.1061 59.1191 58.3909 55.33 57.2799 51.8589C56.1693 48.3872 53.4956 45.2907 49.9759 44.2986C46.4558 43.307 42.2059 44.8355 40.6478 48.1327C39.4816 50.6008 39.6688 53.9406 37.3998 55.4693C34.6755 57.3049 31.0425 54.8618 27.7705 55.1986C24.7468 55.5094 22.4 58.3721 22.0547 61.3805C21.7089 64.3887 23.0407 67.3962 24.9954 69.7153C26.9505 72.0339 29.4898 73.7773 31.9962 75.4904C36.1456 78.3272 40.295 81.1637 44.4443 84C49.7421 77.505 55.0368 70.7129 57.1737 62.6429Z" fill="#A5DBE2"/>
<path d="M55.5238 87.3045C57.7591 82.8642 60.1264 78.4862 62.6535 74.2048C68.3594 64.8535 75.3354 55.4385 77.9525 46.4306C79.759 40.8511 79.4137 36.3717 76.2606 31.8118C74.987 30.4266 75.4458 30.786 74.1003 30.0223C72.8605 29.7294 72.2351 29.1401 70.0085 29.8958C68.5172 30.5037 66.8937 31.5658 64.8657 34.0434C64.8301 34.0877 64.7965 34.1302 64.7648 34.1706L64.3245 34.8049C64.0754 35.0951 63.3564 36.6091 63.0769 37.2066C62.5721 38.4466 62.1359 39.7123 61.6947 40.9758C61.6914 40.9843 61.6875 40.9925 61.6828 41.0003C61.5404 41.6489 61.3266 42.2797 61.0453 42.8812C60.3805 44.1753 58.6708 44.8041 57.3934 44.0046C56.477 43.4498 56.1514 42.4062 55.8735 41.4321C55.3526 39.8964 55.5484 40.4129 55.1395 39.5362C53.1703 36.0527 51.659 35.0585 48.1373 36.4938C43.8278 38.0065 39.0369 43.8061 37.9141 50.4381C37.3486 53.4698 37.6188 57.7683 38.8592 62.0275C40.1543 67.1887 42.9709 71.8359 46.2184 77.3612C49.5337 82.803 52.6828 88.3312 55.615 93.9888C53.7664 91.6547 52.0383 89.2294 50.2301 86.8645C48.6979 84.8954 45.8108 81.4564 43.9156 78.904C39.7161 73.4812 35.6821 67.7236 33.9667 60.9856C32.359 55.2175 32.5387 48.8705 35.4016 43.5212C37.9932 38.6253 41.9653 34.232 47.2433 32.2515C52.9138 29.8224 56.7039 33.2807 58.784 36.9091C60.2214 33.5554 62.1665 30.4226 65.0512 28.1104C68.4735 24.9681 73.4435 23.8567 77.5279 26.4221C82.0539 29.801 83.4911 34.1274 83.9679 39.4264C84.2056 43.0011 83.0862 46.496 81.8361 49.8006C80.7943 52.5989 79.4837 55.2896 77.9225 57.8349L77.6579 58.285C75.9604 60.9997 74.115 63.6191 72.1302 66.1315C66.001 73.8218 60.9462 79.5885 55.5238 87.3045Z" fill="#333333"/>
<path d="M49.2534 47.0758C45.3532 47.1725 45.3635 52.8864 49.2536 52.9937C53.154 52.8971 53.1437 47.1831 49.2534 47.0758Z" fill="#333333"/>
<path d="M65.0629 44.3657C61.1627 44.4624 61.1728 50.1764 65.0631 50.2836C68.9633 50.1869 68.9532 44.473 65.0629 44.3657Z" fill="#333333"/>
<path d="M59.4483 62.3496C58.3699 63.1243 57.2238 63.8 56.0239 64.3684C54.2616 65.0455 52.3828 65.3509 50.542 65.7367C54.4652 66.1566 57.431 65.5627 59.9238 62.286C60.765 61.221 60.0536 61.9495 59.4483 62.3496Z" fill="#333333"/>
</svg>
