<svg width="106" height="106" viewBox="0 0 106 106" fill="none" xmlns="http://www.w3.org/2000/svg">
<rect width="106" height="106" rx="53" fill="#F5F8F9"/>
<path fill-rule="evenodd" clip-rule="evenodd" d="M51.6666 75.6667C63.5013 75.6667 73 66.264 73 54.4293C73 42.5947 63.5013 33 51.6666 33C39.832 33 30.3333 42.5947 30.3333 54.4293C30.3333 66.264 39.832 75.6667 51.6666 75.6667Z" stroke="#2F838D" stroke-linecap="round" stroke-linejoin="round"/>
<path d="M33 46.3334H70.3333" stroke="#2F838D" stroke-linecap="round" stroke-linejoin="round"/>
<path d="M33 62.3334H70.3333" stroke="#2F838D" stroke-linecap="round" stroke-linejoin="round"/>
<path fill-rule="evenodd" clip-rule="evenodd" d="M51.6666 75.6667C57.5839 75.6667 62.3333 66.264 62.3333 54.4293C62.3333 42.5947 57.5839 33 51.6666 33C45.7493 33 40.9999 42.5947 40.9999 54.4293C40.9999 66.264 45.7493 75.6667 51.6666 75.6667Z" stroke="#2F838D" stroke-linecap="round" stroke-linejoin="round"/>
</svg>
