<svg width="48" height="48" viewBox="0 0 48 48" fill="none" xmlns="http://www.w3.org/2000/svg">
<rect width="48" height="48" rx="24" fill="#A5DBE2"/>
<path d="M35.643 16.937C34.808 17.307 33.911 17.557 32.968 17.67C33.941 17.0877 34.669 16.1714 35.016 15.092C34.1019 15.6349 33.1014 16.0172 32.058 16.222C31.3564 15.4728 30.4271 14.9763 29.4143 14.8094C28.4016 14.6426 27.3621 14.8147 26.4572 15.2992C25.5524 15.7837 24.8328 16.5533 24.4102 17.4887C23.9875 18.424 23.8855 19.4727 24.12 20.472C22.2677 20.379 20.4556 19.8975 18.8014 19.0589C17.1472 18.2202 15.6879 17.0431 14.518 15.604C14.118 16.294 13.888 17.094 13.888 17.946C13.8876 18.713 14.0764 19.4682 14.4379 20.1447C14.7993 20.8212 15.3222 21.398 15.96 21.824C15.2203 21.8004 14.4969 21.6005 13.85 21.241V21.301C13.8499 22.3767 14.222 23.4193 14.9032 24.252C15.5843 25.0846 16.5326 25.6559 17.587 25.869C16.9008 26.0547 16.1813 26.082 15.483 25.949C15.7805 26.8746 16.36 27.684 17.1404 28.2639C17.9208 28.8438 18.8629 29.1651 19.835 29.183C18.1848 30.4784 16.1469 31.181 14.049 31.178C13.6774 31.1781 13.3061 31.1564 12.937 31.113C15.0665 32.4821 17.5454 33.2088 20.077 33.206C28.647 33.206 33.332 26.108 33.332 19.952C33.332 19.752 33.327 19.55 33.318 19.35C34.2293 18.6909 35.0159 17.8749 35.641 16.94L35.643 16.937Z" fill="#333333"/>
</svg>
