<svg width="48" height="48" viewBox="0 0 48 48" fill="none" xmlns="http://www.w3.org/2000/svg">
<rect width="48" height="48" rx="24" fill="#A5DBE2"/>
<path d="M20 31H17V21H20V31ZM31 31H28V25.658C28 24.266 27.504 23.573 26.521 23.573C25.742 23.573 25.248 23.961 25 24.738V31H22C22 31 22.04 22 22 21H24.368L24.551 23H24.613C25.228 22 26.211 21.322 27.559 21.322C28.584 21.322 29.413 21.607 30.046 22.323C30.683 23.04 31 24.002 31 25.353V31Z" fill="#333333"/>
<path d="M18.5 20C19.3561 20 20.05 19.3284 20.05 18.5C20.05 17.6716 19.3561 17 18.5 17C17.644 17 16.95 17.6716 16.95 18.5C16.95 19.3284 17.644 20 18.5 20Z" fill="#333333"/>
</svg>
