<svg width="48" height="48" viewBox="0 0 48 48" fill="none" xmlns="http://www.w3.org/2000/svg">
<rect width="48" height="48" rx="24" fill="#A5DBE2"/>
<path d="M32.947 20.305C32.9369 19.5476 32.7951 18.7977 32.528 18.089C32.2964 17.4911 31.9425 16.9482 31.4892 16.4948C31.0358 16.0414 30.4929 15.6876 29.895 15.456C29.1953 15.1933 28.4562 15.0513 27.709 15.036C26.747 14.993 26.442 14.981 24 14.981C21.558 14.981 21.245 14.981 20.29 15.036C19.5432 15.0514 18.8044 15.1934 18.105 15.456C17.5071 15.6874 16.964 16.0412 16.5106 16.4946C16.0573 16.948 15.7035 17.491 15.472 18.089C15.2088 18.7881 15.0671 19.5271 15.053 20.274C15.01 21.237 14.997 21.542 14.997 23.984C14.997 26.426 14.997 26.738 15.053 27.694C15.068 28.442 15.209 29.18 15.472 29.881C15.7039 30.4787 16.0579 31.0215 16.5114 31.4747C16.965 31.9279 17.5081 32.2815 18.106 32.513C18.8034 32.7862 19.5424 32.9383 20.291 32.963C21.254 33.006 21.559 33.019 24.001 33.019C26.443 33.019 26.756 33.019 27.711 32.963C28.4582 32.9482 29.1974 32.8066 29.897 32.544C30.4947 32.312 31.0375 31.9581 31.4909 31.5048C31.9442 31.0515 32.2981 30.5086 32.53 29.911C32.793 29.211 32.934 28.473 32.949 27.724C32.992 26.762 33.005 26.457 33.005 24.014C33.003 21.572 33.003 21.262 32.947 20.305ZM23.994 28.602C21.44 28.602 19.371 26.533 19.371 23.979C19.371 21.425 21.44 19.356 23.994 19.356C25.2201 19.356 26.396 19.843 27.263 20.71C28.1299 21.577 28.617 22.7529 28.617 23.979C28.617 25.2051 28.1299 26.3809 27.263 27.2479C26.396 28.1149 25.2201 28.602 23.994 28.602ZM28.801 20.263C28.6594 20.2631 28.5192 20.2353 28.3883 20.1812C28.2575 20.127 28.1386 20.0476 28.0385 19.9475C27.9383 19.8474 27.8589 19.7285 27.8048 19.5976C27.7507 19.4668 27.7229 19.3266 27.723 19.185C27.723 19.0435 27.7509 18.9033 27.805 18.7726C27.8592 18.6419 27.9385 18.5231 28.0386 18.423C28.1387 18.323 28.2574 18.2436 28.3882 18.1895C28.5189 18.1353 28.659 18.1075 28.8005 18.1075C28.942 18.1075 29.0821 18.1353 29.2129 18.1895C29.3436 18.2436 29.4624 18.323 29.5624 18.423C29.6625 18.5231 29.7418 18.6419 29.796 18.7726C29.8501 18.9033 29.878 19.0435 29.878 19.185C29.878 19.781 29.396 20.263 28.801 20.263Z" fill="#333333"/>
<path d="M23.994 26.982C25.6525 26.982 26.997 25.6375 26.997 23.979C26.997 22.3204 25.6525 20.976 23.994 20.976C22.3355 20.976 20.991 22.3204 20.991 23.979C20.991 25.6375 22.3355 26.982 23.994 26.982Z" fill="#333333"/>
</svg>
