<svg width="106" height="106" viewBox="0 0 106 106" fill="none" xmlns="http://www.w3.org/2000/svg">
<rect width="106" height="106" rx="53" fill="#F5F8F9"/>
<path d="M37 44.1067H61" stroke="#2F838D" stroke-linecap="round" stroke-linejoin="round"/>
<path fill-rule="evenodd" clip-rule="evenodd" d="M39.616 52.2079L42.2827 52.1599C42.9359 52.1473 43.571 52.375 44.0675 52.7997C44.564 53.2244 44.8873 53.8166 44.976 54.4639L45 54.8239V57.4479C45.0001 58.1465 44.7261 58.8172 44.2369 59.3158C43.7478 59.8145 43.0824 60.1013 42.384 60.1146L39.7173 60.1626C39.0641 60.1752 38.429 59.9475 37.9325 59.5228C37.436 59.0981 37.1127 58.5059 37.024 57.8586L37 57.4959V54.8746C36.9999 54.176 37.2739 53.5053 37.7631 53.0067C38.2522 52.508 38.9176 52.2212 39.616 52.2079V52.2079Z" stroke="#2F838D" stroke-linecap="round" stroke-linejoin="round"/>
<path fill-rule="evenodd" clip-rule="evenodd" d="M34.3333 36.0667H63.6667C65.0812 36.0667 66.4377 36.6286 67.4379 37.6287C68.4381 38.6289 69 39.9855 69 41.4V68.1067H34.3333C32.9188 68.1067 31.5623 67.5447 30.5621 66.5445C29.5619 65.5444 29 64.1878 29 62.7733V41.4026C29 39.9882 29.5619 38.6316 30.5621 37.6314C31.5623 36.6312 32.9188 36.0693 34.3333 36.0693V36.0667Z" stroke="#2F838D" stroke-linecap="round" stroke-linejoin="round"/>
<path d="M50.3333 52.1067H61" stroke="#2F838D" stroke-linecap="round" stroke-linejoin="round"/>
<path d="M50.3333 60.1067H61" stroke="#2F838D" stroke-linecap="round" stroke-linejoin="round"/>
<path d="M67.6667 68.1067C69.4348 68.1067 71.1305 67.4043 72.3807 66.1541C73.631 64.9038 74.3333 63.2081 74.3333 61.44V44.1067H69" stroke="#2F838D" stroke-linecap="round" stroke-linejoin="round"/>
</svg>
