<svg width="106" height="106" viewBox="0 0 106 106" fill="none" xmlns="http://www.w3.org/2000/svg">
<rect width="106" height="106" rx="53" fill="#F5F8F9"/>
<path d="M39.6667 45H66.3333C67.7478 45 69.1044 45.5619 70.1046 46.5621C71.1048 47.5623 71.6667 48.9188 71.6667 50.3333V63.6667C71.6667 65.0812 71.1048 66.4377 70.1046 67.4379C69.1044 68.4381 67.7478 69 66.3333 69H39.6667C38.2522 69 36.8956 68.4381 35.8954 67.4379C34.8952 66.4377 34.3333 65.0812 34.3333 63.6667V50.3333C34.3333 48.9188 34.8952 47.5623 35.8954 46.5621C36.8956 45.5619 38.2522 45 39.6667 45V45ZM50.3333 37H55.6667C57.0812 37 58.4377 37.5619 59.4379 38.5621C60.4381 39.5623 61 40.9188 61 42.3333V45H45V42.3333C45 40.9188 45.5619 39.5623 46.5621 38.5621C47.5623 37.5619 48.9189 37 50.3333 37Z" stroke="#2F838D" stroke-linecap="round" stroke-linejoin="round"/>
</svg>
