<svg width="532" height="428" viewBox="0 0 532 428" fill="none" xmlns="http://www.w3.org/2000/svg">
<g clip-path="url(#clip0_17_355)">
<path d="M502.398 47.8428L469.488 101.686C461.505 114.747 470.647 128.579 482.149 123.485C493.651 118.391 502.826 101.772 504.873 87.9151C506.92 74.058 503.628 62.3685 502.398 47.8428Z" fill="#A5DBE2"/>
<path d="M341.347 331.678L336.593 394.608C335.44 409.873 349.88 418.016 357.796 408.237C365.712 398.458 366.305 379.483 361.812 366.216C357.319 352.949 349.062 344.046 341.347 331.678Z" fill="#A5DBE2"/>
<path d="M46.6403 33.5641L43.7416 95.5725C43.0385 110.614 65.591 118.175 76.9714 108.319C88.3519 98.4633 87.9468 79.7917 80.189 66.8877C72.4313 53.9837 59.2426 45.485 46.6403 33.5641Z" fill="#A5DBE2"/>
<path d="M173.902 306.14L148.814 338.346C142.729 346.158 150.087 357.48 159.04 355.886C167.994 354.293 174.967 344.182 176.385 334.781C177.803 325.38 175.063 316.58 173.902 306.14Z" fill="#A5DBE2"/>
<path d="M220.686 10.5648L217.788 72.5732C217.085 87.6145 239.637 95.1758 251.018 85.3199C262.398 75.4641 261.993 56.7925 254.235 43.8885C246.478 30.9844 233.289 22.4857 220.686 10.5648Z" fill="#A5DBE2"/>
<path d="M303.634 150.805L300.735 212.813C300.032 227.854 322.585 235.416 333.965 225.56C345.345 215.704 344.94 197.032 337.183 184.128C329.425 171.224 316.236 162.726 303.634 150.805Z" fill="#A5DBE2"/>
<path d="M161.709 117.205L202.059 165.719C211.847 177.487 227.883 173.287 226.768 160.754C225.654 148.221 212.884 134.177 200.429 127.773C187.975 121.369 175.852 120.72 161.709 117.205Z" fill="#A5DBE2"/>
<path d="M435.209 161.381C432.12 163.891 428.346 165.078 424.027 166.568C418.184 168.447 412.277 170.122 406.45 172.054C401.922 173.559 397.183 174.53 392.896 176.681C390.815 177.839 388.838 179.174 386.987 180.671C387.809 178.47 388.516 176.227 389.105 173.952C390.733 166.709 391.56 159.309 391.57 151.886C391.575 145.522 390.565 139.213 389.37 132.978C389.309 132.67 389.243 132.363 389.18 132.055C390.106 128.117 390.668 124.102 390.862 120.06C391.067 115.569 390.649 111.08 390.24 106.611C389.616 98.9566 388.004 91.4148 385.444 84.1742C383.428 78.2325 381.054 72.4188 378.333 66.7651C377.847 65.8007 377.345 64.8449 376.825 63.8978C377.232 65.7488 377.625 67.6029 377.994 69.4619C380.521 82.501 383.309 95.4873 385.754 108.543C386.847 113.978 388.022 119.616 388.518 124.187C388.621 125.126 388.86 128.717 389.007 131.212C388.542 128.995 388.028 126.787 387.411 124.607C387.418 126.147 387.403 127.686 387.379 129.225C386.314 128.234 385.248 127.243 384.281 126.156C383.261 124.862 382.329 123.5 381.492 122.08C377.973 116.088 376.176 110.56 374.072 103.252C372.048 96.1895 370.562 88.9838 369.625 81.6967C369.153 76.6672 367.954 62.6725 366.724 54.7219C365.987 49.559 365.405 45.2802 364.896 39.4889C365.333 39.7856 365.441 39.9221 365.843 40.1973C367.968 41.5944 371.608 47.0037 374.418 52.2823C377.467 57.7988 380.414 63.3701 383.26 68.9962C385.836 74.1714 387.57 78.7018 389.584 85.556C390.923 90.1405 391.625 94.8799 392.294 99.6C392.259 99.3398 392.224 99.0796 392.189 98.8195C393.278 106.888 393.665 115.036 393.346 123.172C393.329 125.462 393.067 127.743 392.564 129.977C392.149 131.753 391.471 133.456 390.554 135.032C395.35 130.321 396.434 123.344 397.56 117.001C398.639 110.324 398.722 103.523 397.806 96.8215C397.215 92.0956 396.254 87.4235 394.931 82.8483C392.389 73.9884 388.362 65.6788 383.963 57.6104C381.808 53.5897 379.627 49.5812 377.306 45.6536C374.53 40.9106 371.051 36.4031 366.205 33.6441C363.744 32.3042 359.984 31.5362 358.956 34.989C358.552 37.6358 359.193 40.3419 359.352 42.9963C360.14 50.3204 360.978 55.2757 361.692 61.1117C362.611 68.2529 363.093 75.4729 363.972 82.6268C363.564 81.959 362.913 81.4753 362.156 81.2774C361.399 81.0795 360.594 81.1827 359.912 81.5654C359.477 81.8137 359.109 82.1622 358.836 82.5819C358.099 83.4958 357.357 84.4062 356.61 85.313C354.333 88.0956 351.9 90.7805 350.01 93.8523C347.77 97.6483 346.109 101.757 345.081 106.043C343.341 113.355 343.729 120.929 343.283 128.376C342.892 131.689 342.228 134.965 341.296 138.168C340.92 137.864 340.542 137.555 340.158 137.236C335.063 132.88 332.924 129.786 330.033 123.36C329.572 122.191 329.141 121.011 328.741 119.821C327.682 116.734 327.002 113.53 326.717 110.279C326.441 106.382 326.542 102.468 327.02 98.591C327.232 98.5841 327.443 98.567 327.654 98.5436C327.705 99.0318 327.763 99.5195 327.827 100.007C327.874 99.5047 327.938 98.9998 327.995 98.496C329.18 98.325 330.3 97.8499 331.246 97.1169C333.545 95.4014 335.592 93.3719 337.328 91.0877C346.368 80.1745 347.179 65.2722 346.899 51.6975C346.901 39.0429 345.737 26.4441 344.598 13.854C344.642 11.0936 341.875 9.14158 339.601 11.2117C339.118 11.7848 338.776 12.4629 338.602 13.1918C338.216 14.3669 337.796 15.5303 337.386 16.6973C335.126 22.9741 332.871 28.4637 330.906 32.9858C327.46 40.9987 322.848 50.5581 322.348 56.2705C321.599 61.2592 321.75 66.3382 322.11 71.3551C322.553 76.9088 323.8 83.5287 327.402 89.1546C327.387 89.4749 327.378 89.7954 327.368 90.1158C326.367 92.7744 325.386 95.4566 324.546 98.1777C324.392 98.1705 324.239 98.1578 324.086 98.137C324.226 98.1924 324.368 98.2423 324.512 98.2869C323.425 101.687 322.679 105.187 322.283 108.734C321.259 118.527 324.603 128.483 330.741 136.102C333.409 139.502 336.85 142.171 340.247 144.801C343.74 147.457 347.22 150.131 350.751 152.737C353.57 154.886 356.995 157.289 360.406 161.302L360.454 161.363C360.476 161.396 360.522 161.464 360.614 161.594C361.846 163.387 362.981 165.245 364.013 167.159C364.221 167.529 364.419 167.883 364.609 168.224C363.301 168.135 362.018 168.051 360.761 167.956C360.715 167.737 360.669 167.518 360.624 167.298C360.384 166.003 359.961 164.749 359.37 163.572C357.62 160.441 354.953 157.935 352.422 155.437C348.731 151.933 344.745 148.753 340.508 145.933C336.695 143.529 332.612 141.6 328.591 139.577C320.829 135.696 313.099 131.377 304.581 129.412C302.517 129.086 300.235 128.194 298.225 129.107C297.916 129.277 297.645 129.507 297.427 129.784C297.208 130.06 297.047 130.377 296.954 130.717C296.86 131.056 296.835 131.411 296.88 131.76C296.926 132.11 297.04 132.446 297.218 132.751C297.602 133.287 298.071 133.757 298.606 134.141C298.555 134.128 299.559 134.988 299.874 135.238C302.802 137.548 305.664 139.941 308.502 142.36C316.349 149.028 324.299 155.616 332.794 161.448C338.896 165.509 345.798 168.806 353.172 169.492C357.073 169.684 360.96 169.149 364.822 168.61C366.901 172.15 368.627 175.886 369.975 179.764C371.595 185.183 372.71 190.739 373.305 196.363C371.491 199.505 369.451 202.51 367.2 205.354C364.115 209.297 360.322 212.57 356.505 215.779C349.461 221.749 339.829 226.908 330.578 229.98C326.57 231.391 322.737 232.561 318.982 233.534C320.13 229.476 321.176 224.687 322.575 222.124C324.132 219.613 326.125 217.404 327.783 214.961C328.163 214.42 328.533 213.869 328.894 213.313C335.897 212.546 341.362 210.107 345.258 203.879C345.426 203.623 345.58 203.358 345.738 203.097C345.23 203.476 344.723 203.854 344.207 204.222C339.555 207.763 334.394 210.508 329.113 212.977C330.53 210.816 331.67 208.487 332.507 206.042C334.768 204.552 336.917 202.898 338.935 201.092C342.092 197.663 344.017 193.377 345.153 190.252C345.369 189.573 345.542 188.881 345.671 188.18C349.482 194.64 350.401 200.137 346.148 206.438C343.727 209.901 340.117 214.381 335.602 216.922C334.283 217.733 332.863 218.367 331.378 218.805C333.798 219.005 338.092 217.562 340.808 216.115C346.665 212.511 352.734 207.204 354.03 200.131C355.174 193.19 351.543 186.488 347.183 181.344C346.471 180.412 345.665 179.557 344.777 178.792C344.269 178.245 343.567 177.92 342.821 177.885C342.187 177.89 341.58 178.146 341.132 178.597C340.685 179.047 340.434 179.656 340.433 180.291C341.147 183.701 341.534 183.97 341.401 187.065C341.296 189.789 339.697 195.865 337.865 199.069C336.403 201.225 334.71 203.214 332.816 205C332.891 204.727 332.973 204.455 333.037 204.178C334.367 197.501 333.213 190.746 328.682 185.507C328.435 185.214 328.17 184.938 327.911 184.657C327.341 180.905 326.207 177.261 324.548 173.848C324.656 176.998 325.261 180.111 326.339 183.072C326.27 183.007 326.204 182.938 326.134 182.873C326.285 183.157 326.427 183.427 326.564 183.692C327.057 185.003 327.617 186.288 328.244 187.541C328.241 187.496 328.234 187.452 328.231 187.407L328.235 187.417C329.444 191.107 329.809 192.97 329.524 196.662C329.33 199.028 328.84 201.361 328.065 203.605C326.939 206.91 322.898 213.561 320.331 218.525C319.814 219.505 319.422 220.545 319.164 221.622C318.962 221.51 318.766 221.4 318.567 221.289C317.812 215.537 315.566 210.082 312.051 205.467C312.178 207.161 313.242 210.557 313.979 212.739C315.077 215.586 316.414 218.336 317.975 220.958C315.079 219.324 312.541 217.718 310.328 215.115C310.274 215.04 310.218 214.966 310.163 214.89C309.221 213.563 308.448 212.124 307.862 210.605C306.468 206.48 305.517 202.217 305.027 197.89C304.716 195.559 304.104 191.703 303.558 188.379C304.365 189.193 305.235 190.084 306.221 191.024C310.455 195.463 314.107 198.204 316.65 202.97C317.817 205.361 319.156 210.243 319.648 213.89C319.69 214.216 319.726 214.542 319.758 214.868C319.963 213.619 320.09 212.357 320.135 211.092C320.591 201.862 318.336 197.485 312.674 190.474C310.927 188.242 309.139 186.039 307.222 183.95C305.427 181.996 303.482 179.963 300.901 179.109C300.802 179.083 300.705 179.069 300.606 179.05C305.048 174.77 307.634 168.953 309.636 163.2C309.981 162.168 310.339 161.136 310.684 160.1C311.225 164.429 312.28 168.678 313.827 172.757C315.992 179.261 322.047 183.021 327.41 186.707C324.429 183.032 321.54 180.359 319.479 176.709C318.21 174.528 317.909 173.372 317.291 170.381C316.638 167.154 316.197 163.886 315.971 160.601C315.914 159.792 315.858 158.982 315.806 158.171C319.208 160.817 324.568 165.814 326.518 168.45C329.245 172.397 329.649 175.414 329.265 180.606C329.15 181.831 328.964 183.048 328.708 184.251C329.886 182.481 331.343 178.055 331.573 175.102C332.152 169.666 329.3 164.686 325.89 160.685C323.917 158.154 321.66 155.859 319.164 153.843C317.696 152.747 316.266 151.467 314.462 150.978C313.857 150.816 313.22 150.815 312.614 150.975C312.564 148.011 311.296 144.935 307.992 144.736C306.588 144.663 305.291 145.285 304.032 145.827C301.51 146.917 302.033 146.707 300.536 147.316C294.901 149.47 289.191 151.481 283.369 153.068C275.253 154.955 267.032 156.358 258.75 157.27C252.475 157.73 249.226 157.442 244.081 158.451C238.851 159.715 236.786 160.914 231.995 163.173C228.109 165.259 223.748 167.266 221.237 171.032C225.199 160.996 228.224 160.993 242.188 156.026C255.237 151.089 268.192 144.228 276.959 133.077C281.619 127.167 285.379 120.6 288.117 113.588C288.655 112.27 289.166 110.941 289.65 109.602C289.737 109.738 289.821 109.875 289.908 110.011C289.839 109.82 289.774 109.634 289.706 109.444C290.057 108.471 290.395 107.494 290.711 106.509C290.281 107.179 289.843 107.844 289.398 108.506L289.381 108.53C286.469 100.183 284.989 92.7553 286.227 83.7977C286.874 80.6283 289.333 70.7752 291.551 65.6462C292.724 62.7394 295.845 56.1312 298.306 51.3483C300.146 47.8911 302.106 44.4993 303.916 41.0257C305.75 37.467 307.431 33.8335 309.036 30.1664C310.105 35.2911 310.34 39.0891 310.729 45.54C311.014 51.2436 311 56.9583 310.687 62.6605C310.126 71.2302 309.675 75.7753 307.473 83.9742C306.634 87.4079 305.482 90.7573 304.031 93.9804C302.709 96.4727 301.167 98.8416 299.423 101.059C299.443 101.032 299.462 101.007 299.476 100.988C298.396 102.395 297.185 103.696 295.86 104.875C294.645 105.94 293.333 106.89 291.94 107.71C291.849 107.766 291.758 107.821 291.666 107.876C291.769 107.847 291.871 107.818 291.973 107.788C293.356 107.403 294.702 106.895 295.994 106.27C300.309 104.137 303.909 100.718 306.922 97.0081C311.429 90.827 313.931 83.3232 315.278 75.8487C316.306 68.6869 316.817 61.4605 316.808 54.2254C316.857 47.1766 316.41 40.133 315.472 33.1467C314.818 28.7932 314.11 24.2936 312.014 20.3724C311.721 19.8646 311.284 19.455 310.759 19.1949C310.233 18.9348 309.643 18.8359 309.062 18.9107C308.48 18.9854 307.934 19.2305 307.491 19.615C307.049 19.9996 306.73 20.5064 306.575 21.0718C306.256 21.8417 305.935 22.6104 305.611 23.378C305.176 24.4064 304.737 25.4331 304.295 26.4581C303.302 28.783 302.246 31.0801 301.166 33.3658C297.899 40.3555 293.855 46.9516 290.684 53.9889C286.54 62.5898 281.838 74.0088 281.614 85.7085C281.73 89.9592 282.491 94.1676 283.871 98.1897C285.234 101.927 287.012 105.499 289.17 108.84C285.463 114.437 281.432 119.812 277.098 124.939C277.589 120.196 277.247 115.362 276.91 110.623C276.017 102.558 274.225 94.3809 269.832 87.4494C267.169 83.2666 264.244 79.2569 261.074 75.4445C260.217 74.4295 259.378 73.3947 258.424 72.4676C258.399 72.4385 258.377 72.411 258.35 72.3802C256.879 70.577 254.327 69.3567 252.742 71.7522C252.062 72.8625 252.594 74.169 252.665 75.3698C252.899 77.3042 253.125 79.2396 253.302 81.1801C253.76 86.3599 253.838 91.5662 253.537 96.7574C253.182 102.854 253.018 108.985 254.126 115.021C254.714 118.568 255.417 122.257 257.487 125.273C259.68 128.783 262.798 130.372 266.87 130.702C268.581 130.816 270.299 130.749 271.996 130.502C268.94 133.62 265.688 136.54 262.26 139.243C260.342 140.814 253.533 145.217 247.749 147.908C240.79 151.278 239.91 151.286 233.498 154.199C230.21 155.839 226.583 157.391 224.083 160.16C219.805 165.006 219.478 171.773 218.71 177.912C217.604 175.334 217.022 172.947 217.682 170.245C218.774 165.047 220.675 161.664 222.325 157.705C224.622 152.856 227.838 145.495 228.937 142.609C231.423 136.33 234.23 130.134 235.667 123.503C236.553 119.74 237.484 115.975 237.869 112.12C238.24 108.275 238.202 104.402 237.756 100.565C237.081 95.1689 236.088 89.5071 232.954 84.944C232.137 83.8561 231.231 82.8379 230.246 81.8998C235.682 78.8556 237.852 71.7939 239.044 66.0449C240.52 58.7665 240.802 51.2963 239.879 43.9273C239.376 38.2853 238.205 32.7231 236.388 27.3581C234.437 21.219 231.866 15.3055 229.42 9.35322C228.444 7.01185 227.277 4.37445 227.079 3.92306C226.49 2.63643 225.853 1.26101 224.655 0.43953C224.065 0.0852648 223.373 -0.0619494 222.689 0.02117C222.006 0.104289 221.369 0.412999 220.881 0.898474C220.332 1.57965 219.941 2.3741 219.737 3.22457C219.141 4.97125 218.626 6.74389 218.042 8.49399C216.737 12.323 215.16 16.051 213.619 19.7893C212.102 23.6443 207.491 32.7694 206.935 39.6115C206.147 44.9468 207.102 50.4076 208.573 55.5461C210.282 60.8877 212.691 65.9793 215.737 70.6877C219.221 75.6879 224.423 79.0968 229.07 82.9169C225.668 78.4502 222.593 75.246 219.835 70.5543C218.106 67.283 218.018 66.6221 216.387 62.0045C213.035 51.4933 211.134 44.3809 213.688 35.5808C215.35 30.1451 216.385 28.3703 218.285 23.7665C220.183 19.3527 221.99 14.9022 223.585 10.3742C223.761 10.7932 223.939 11.2245 224.117 11.6573C223.91 12.7354 223.727 13.8184 223.553 14.9022C222.734 20.4389 222.253 26.0231 221.863 31.6048C221.446 38.2534 221.232 44.955 222.047 51.582C222.695 57.3055 223.858 62.9589 225.519 68.4739C226.595 72.6898 227.798 76.872 229.249 80.9746C228.871 80.633 228.489 80.2967 228.097 79.9726C228.253 80.1922 228.408 80.4134 228.561 80.6361C228.906 81.1325 229.215 81.6093 229.509 82.0783C229.348 82.1969 229.182 82.3071 229.01 82.4086C229.209 82.3574 229.405 82.2954 229.598 82.2229C232.838 87.4585 232.997 91.1841 233.175 97.3471C233.157 107.124 232.284 112.895 230.146 121.4C229.976 121.281 229.806 121.164 229.636 121.047C229.599 120.391 229.558 119.735 229.468 119.085C229.036 116.651 228.344 114.27 227.405 111.983C223.804 101.907 215.63 94.084 206.427 88.9647C203.358 87.15 200.12 85.6368 196.76 84.4465C193.293 83.4599 189.684 83.0735 186.088 83.3038C184.483 83.4733 182.783 83.8285 181.577 84.9739C181.052 85.5356 180.682 86.2244 180.504 86.9724C180.325 87.7205 180.344 88.5021 180.559 89.2405C181.471 91.5006 183.636 92.9331 185.201 94.7249C190.15 99.9308 195.709 104.519 201.759 108.389C208.381 112.597 215.55 115.796 222.808 118.759C224.264 119.887 225.703 121.084 227.403 122.516C226.849 121.601 226.293 120.748 225.735 119.942C226.913 120.414 228.091 120.883 229.269 121.349C229.395 121.76 229.521 122.171 229.652 122.58C229.69 122.661 229.703 122.778 229.784 122.82C229.345 124.521 228.858 126.336 228.321 128.317C225.009 138.411 220.985 148.257 217.569 158.314C217.167 159.646 216.737 161.011 216.346 162.393C215.857 159.45 215.209 156.535 214.403 153.662C209.884 138.317 196.26 124.261 180.719 120.088C173.166 117.816 164.756 117.841 157.588 121.364C154.119 122.679 149.434 126.02 151.491 130.224C152.506 132.082 154.355 133.321 155.784 134.848C159.513 138.543 163.128 142.354 166.957 145.949C171.577 150.491 176.561 154.648 181.858 158.378C184.539 160.331 187.156 162.383 189.987 164.118C197.775 168.806 206.307 172.121 215.077 174.444C215.145 174.537 215.215 174.629 215.277 174.726C215.545 175.326 215.808 175.92 216.067 176.508C216.281 177.505 216.501 178.5 216.739 179.492C216.753 179.043 216.77 178.595 216.788 178.147C219.633 184.651 222.022 190.451 224.035 195.257C225.026 197.773 229.422 207.537 230.851 210.822C232.801 215.937 234.488 221.147 235.907 226.433C239.217 239.216 241.042 248.13 237.478 260.044C234.892 269.32 230.263 276.892 224.173 285.863C217.878 294.859 212.412 302.24 204.257 310.869C202.734 312.442 201.178 313.984 199.59 315.493C198.141 312.242 196.887 309.141 195.536 305.656C194.13 302.314 192.904 298.899 191.863 295.426C189.307 285.965 187.501 276.291 184.18 267.049C179.01 253.309 170.922 240.855 160.473 230.546C156.554 227.035 152.383 223.815 147.994 220.913C145.089 219.209 142.073 217.704 138.966 216.406C140.927 213.459 142.637 210.351 144.078 207.117C146.319 201.815 147.767 196.212 148.373 190.488C148.786 183.982 148.204 177.451 146.646 171.121C145.39 166.429 143.611 161.893 141.343 157.598C142.073 157.917 142.802 158.301 144.04 158.893C147.328 160.666 150.567 162.534 153.692 164.582C156.86 166.636 157.983 167.603 161.794 172.029C161.65 171.843 161.506 171.656 161.362 171.47C163.255 173.843 164.826 176.457 166.031 179.243C166.793 180.725 169.064 187.78 169.069 189.572C169.396 195.918 169.209 198.679 167.556 204.299C166.143 209.13 164.787 211.983 161.61 216.588C160.341 218.454 157.435 221.332 154.938 223.383C154.803 223.525 154.22 223.905 154.681 223.672C157.023 222.639 159.26 221.38 161.358 219.913C164.32 217.671 166.897 214.961 168.986 211.889C173.401 205.139 175.838 196.926 174.777 188.851C174.368 185.784 173.58 182.78 172.431 179.907C170.735 175.176 168.139 170.819 164.787 167.076C159.937 161.458 153.28 157.906 146.822 154.459C143.935 153.146 138.739 150.362 135.711 151.802C135.144 152.126 134.701 152.629 134.449 153.231C134.197 153.834 134.152 154.503 134.32 155.134C136.057 159.478 139.014 164.324 140.614 169.661C142.764 176.599 142.97 180.388 143.45 187.735C143.885 197.467 142.171 207.175 138.431 216.169C131.951 213.3 128.617 212.244 122.883 209.447C114.916 205.307 107.114 200.81 99.5651 195.946C97.6485 194.679 95.8892 193.499 94.2231 192.352C95.823 192.243 97.4004 191.914 98.9107 191.375C107.371 188.615 113.417 181.082 116.335 172.899C118.267 166.975 118.727 160.67 117.673 154.529C116.839 148.808 115.145 143.245 112.648 138.031C108.973 131.137 104.395 124.764 99.037 119.08C96.7897 116.875 92.1652 111.489 88.872 112.199C88.287 112.366 87.777 112.729 87.4273 113.227C87.0775 113.724 86.9092 114.327 86.9504 114.935C87.0045 115.585 87.1803 116.219 87.4686 116.805C87.5137 116.916 87.5579 117.023 87.5978 117.119C88.2068 118.675 88.7464 120.257 89.2615 121.846C90.5483 125.89 91.5454 130.699 91.7238 133.025C92.7384 143.482 89.8352 153.492 84.7556 162.484C83.2355 165.193 81.5265 167.791 79.6414 170.26C78.3317 171.896 76.4092 174.015 74.647 175.962C70.8514 171.778 68.5812 168.463 65.1298 162.838C62.2488 157.82 61.5289 155.917 59.8188 150.772C58.485 146.676 57.4897 142.477 56.8429 138.218C56.6909 136.501 56.5704 134.783 56.5059 133.061C56.3729 128.657 56.5464 124.246 56.7645 119.847C57.1557 113.905 57.8573 107.988 58.4872 102.068C58.9331 97.5832 59.5957 93.9335 60.368 88.7632C57.7076 94.5834 55.5735 100.63 53.9911 106.831C51.8348 114.453 50.7372 122.335 50.7289 130.256C49.8092 129.194 48.8996 128.124 48.0306 127.02C45.4065 123.573 41.5032 118.056 38.7347 113.629C36.8225 110.586 34.8 107.587 33.325 104.299C33.0463 103.925 31.5677 99.6576 30.9525 97.2162C30.485 95.2638 30.1308 93.286 29.8917 91.2927C29.1018 82.9385 30.7078 77.9531 31.5698 69.9119C32.4471 63.2635 33.1902 56.5983 33.7575 49.9161C34.1819 44.7959 34.7261 39.662 34.4383 34.519C34.303 31.4972 33.8819 28.4949 33.1806 25.5525C33.3179 25.5556 33.4551 25.5611 33.5917 25.5725C33.9206 25.6271 34.2461 25.7002 34.5668 25.7914C39.3 27.4496 44.4731 32.2627 49.4747 37.5962C55.5047 44.219 59.1488 48.4938 63.846 56.164C68.2368 63.5427 70.1701 68.5272 71.7871 77.2747C72.3699 80.3725 73.1811 88.3744 72.3742 93.9538C71.7363 99.2503 72.0282 98.1594 71.1053 102.959C70.3439 105.615 69.4153 108.22 68.3251 110.759C67.2167 113.238 65.9226 115.63 64.4538 117.914C62.646 120.66 61.1712 122.716 58.5771 125.059C58.0345 125.53 57.4768 125.983 56.9037 126.418C57.3333 126.243 57.7604 126.062 58.1805 125.865C61.4661 124.375 64.2749 121.997 66.7823 119.436C70.3953 115.657 73.3096 111.267 75.3898 106.469C76.9803 103.002 77.4906 99.1764 78.0338 95.4336C79.2731 86.1427 77.8712 76.6649 75.3079 67.7077C71.9138 57.4593 65.8034 48.3845 58.7807 40.2748C52.9543 33.7495 42.3439 21.6629 33.439 20.732C29.0385 20.599 27.4984 23.6562 28.1508 25.7618C28.4697 27.4911 28.7721 29.2238 29.0228 30.9644C29.5535 35.8337 29.5762 40.745 29.0905 45.619C28.1868 59.7664 26.2066 72.9807 24.9377 83.9529C24.3693 92.4603 26.1404 100.961 30.0591 108.533C34.0572 115.083 39.112 120.956 44.5234 126.376C46.4877 128.309 48.5658 130.123 50.7468 131.809C50.798 134.253 50.9546 136.698 51.2339 139.135C52.3067 146.867 54.5072 154.4 57.7651 161.493C61.392 168.685 66.0092 175.332 71.4819 181.24C71.7237 181.495 71.9731 181.743 72.219 181.993C64.1191 177.359 55.4244 173.947 46.5683 171.054C36.8618 167.734 26.9599 164.893 16.7792 163.491C13.5079 163.069 10.2416 162.568 6.95773 162.254C4.74489 162.245 1.36851 161.262 0.248578 163.803C-0.5815 165.655 0.819272 167.111 2.21197 168.153C3.15823 168.931 4.07176 169.748 4.98894 170.559C8.31493 173.513 11.58 176.534 14.8444 179.556C20.714 185.055 26.9633 190.172 33.8821 194.301C40.8213 198.055 48.1632 201.264 55.9081 202.901C67.981 205.685 75.8159 203.742 86.5598 197.962C74.5953 200.83 68.585 201.401 57.0176 197.723C50.8929 195.974 44.9411 193.668 39.2367 190.834C34.4347 188.262 29.9045 185.212 25.715 181.729C20.3068 177.19 15.2413 172.26 9.91529 167.626C10.8275 167.744 11.7388 167.869 12.6498 167.987C12.4262 167.957 12.2026 167.927 11.979 167.897C18.0112 168.622 23.9866 169.761 29.8631 171.305C46.1476 175.816 64.0374 183.024 78.4915 188.749C79.4401 189.16 80.3911 189.586 81.3316 190.036C82.0715 190.625 82.8136 191.211 83.5581 191.793C94.8228 200.546 107.163 207.831 119.769 214.463C125.755 217.389 131.335 219.383 135.733 221.378C138.292 222.507 140.845 223.656 143.305 224.99C145.701 226.413 148.013 227.971 150.232 229.656C153.844 232.281 157.185 235.261 160.205 238.551C165.318 244.039 167.735 247.278 171.941 253.704C174.272 257.4 178.306 265.766 178.938 267.407C182.435 276.026 183.819 285.302 187.028 294.011C188.556 298.322 190.553 302.451 192.982 306.325C194.894 309.608 196.946 312.81 199.172 315.889C195.197 319.653 191.055 323.229 186.746 326.617C182.37 330.094 173.645 336.406 167.934 341.756C162.849 346.546 158.171 351.751 153.949 357.316C151.782 360.208 150.119 363.446 149.032 366.893C145.739 377.198 146.402 390.655 149.824 400.85C151.203 405.062 153.108 409.083 155.493 412.819C157.41 415.434 159.59 417.845 162 420.013C160.642 419.725 159.277 419.47 157.9 419.263C152.05 418.203 141.015 418.381 133.486 420.499C142.471 420.604 148.024 421.618 157.047 423.559C164.172 425.068 171.394 426.07 178.659 426.559C180.366 426.645 182.076 426.557 183.783 426.621C182.972 426.321 182.154 426.04 181.33 425.779C175.306 423.767 169.282 421.656 163.086 420.252C160.627 416.697 158.127 412.539 157.165 409.672C153.746 399.244 153.271 394.474 152.582 385.265C152.203 375.85 152.648 368.799 157.234 361.37C161.415 355.131 167.452 348.614 174.323 342.678C185.273 333.697 195.803 326.974 206.893 315.556C213.952 308.431 220.04 300.416 225.996 292.366C232.255 283.774 238.875 273.447 241.64 265.401C242.517 263.044 243.247 260.636 243.826 258.189C248.544 253.132 252.793 248.577 258.922 245.902C262.841 243.932 271.464 242.791 278.751 242.683C281.775 242.617 284.803 242.628 287.83 242.612C284.154 266.858 283.499 291.466 285.879 315.873C285.323 315.669 284.767 315.464 284.208 315.266C284.778 315.675 285.357 316.069 285.934 316.467C285.939 316.518 285.943 316.57 285.948 316.621C285.978 316.936 286.008 317.252 286.037 317.567C286.067 317.245 286.098 316.924 286.129 316.602C288.073 317.936 290.052 319.22 292.047 320.477C293.159 321.215 294.284 321.934 295.411 322.65C295.421 322.656 295.43 322.659 295.439 322.664C295.453 322.78 295.465 322.895 295.479 323.01C295.488 322.906 295.497 322.803 295.506 322.699C295.716 322.793 295.948 322.826 296.176 322.794C296.404 322.762 296.618 322.666 296.794 322.518C296.971 322.37 297.101 322.175 297.172 321.956C297.243 321.737 297.25 321.502 297.194 321.279C297.114 321.067 296.994 320.873 296.839 320.707C296.684 320.542 296.498 320.409 296.292 320.316C296.112 320.186 295.929 320.062 295.746 319.938C296.85 307.618 298.392 295.329 298.697 282.95C299.33 269.393 298.715 255.834 298.402 242.278C299.854 242.172 301.305 242.036 302.754 241.85C319.053 240.058 335.274 235.724 349.648 227.699C353.967 225.148 358.043 222.205 361.822 218.905C364.289 216.887 366.632 214.722 368.84 212.423C375.037 205.619 379.789 197.636 383.506 189.243C384.646 186.586 385.776 183.916 386.79 181.206C389.564 179.936 391.916 178.772 395.031 177.987C400.622 176.754 406.374 176.327 411.887 174.698C419.382 172.6 433.293 167.838 436.934 160.65C437.277 159.937 437.542 159.19 437.728 158.421C437.064 159.545 436.212 160.546 435.209 161.381ZM326.054 65.0115C326.463 60.1716 327.448 55.398 328.988 50.7918C330.603 46.258 333.514 40.5032 336.183 34.5247C337.272 32.1113 338.718 28.8197 340.074 25.5564C340.825 34.2964 341.052 43.0743 341.082 51.8449C341.202 61.9564 340.726 68.0627 339.295 75.0447C337.851 83.0438 335.024 89.4623 330.47 95.4011C329.85 96.2496 329.044 96.9441 328.113 97.4306C328.925 91.065 330.528 84.5849 332.278 78.2255C333.384 74.1195 334.84 70.1126 335.754 65.9545C337.399 57.9268 337.571 49.6832 337.642 41.5149C337.643 41.0264 337.639 40.5379 337.635 40.0495C337.613 40.1539 337.589 40.258 337.566 40.3625C336.186 46.4081 334.978 52.4909 333.65 58.5476C332.531 64.1916 330.533 69.6045 329.25 75.2058C328.265 79.7954 327.647 84.4561 327.402 89.1438C324.602 81.4091 325.207 73.0485 326.054 65.0115ZM327.395 95.0569C327.434 95.9289 327.493 96.7999 327.573 97.67C327.419 97.7289 327.262 97.7836 327.099 97.8329C327.196 96.9066 327.294 95.9813 327.395 95.0569ZM353.551 167.033C347.41 165.447 341.922 162.109 336.12 157.909C329.197 152.809 324.869 149.491 318.173 143.851C315.015 141.214 311.928 138.49 308.78 135.839C314.888 138.02 320.333 141.155 327.049 144.6C331.244 146.806 335.529 148.841 339.68 151.129C345.223 154.328 351.471 158.126 355.847 161.615C357.909 163.12 359.526 165.154 360.528 167.501C360.597 167.652 360.667 167.803 360.737 167.954C358.324 167.807 355.923 167.5 353.551 167.033V167.033ZM261.152 124.411C259.223 120.997 259.204 118.305 258.772 113.916C257.762 104.276 259.271 94.6153 258.755 84.9647C258.679 83.3428 258.55 81.7245 258.4 80.1081C258.845 80.6559 259.265 81.1851 259.611 81.6398C261.226 83.7051 265.638 89.4785 267.605 93.8473C270.233 98.7936 273.304 109.484 275.118 118.565C275.661 120.941 276.08 123.344 276.375 125.763C275.678 126.559 274.965 127.345 274.242 128.126C272.763 121.778 270.907 115.522 269.202 109.232C267.304 103.384 265.212 96.1591 263.41 90.9957C263.328 105.585 267.237 115.895 274.035 128.347C273.624 128.789 273.216 129.231 272.796 129.668C267.658 129.013 262.842 128.001 261.152 124.411L261.152 124.411ZM229.447 81.1571C229.083 76.7954 228.866 72.4242 228.607 68.0559C228.302 64.2689 227.887 60.4896 227.695 56.6943C227.209 42.7606 226.444 28.8318 224.692 14.9931C224.607 14.1383 224.518 13.2836 224.434 12.4286C224.993 13.7937 225.552 15.1778 226.071 16.4481C228.963 23.4453 231.614 30.5898 233.144 38.0226C234.282 45.1452 234.919 52.3388 235.051 59.5505C234.989 65.4732 235.069 70.2596 233.614 75.2587C233.041 77.5307 231.926 79.6296 230.363 81.3752C230.254 81.4839 230.132 81.579 230.015 81.6802C229.828 81.5031 229.637 81.331 229.447 81.1571ZM223.341 116.799C218.3 110.801 212.815 107.889 205.483 102.749C203.715 101.387 202.081 99.8603 200.6 98.1901C199.801 97.3151 199.015 96.4282 198.243 95.5294C198.418 95.9675 198.596 96.4054 198.78 96.8401C199.375 98.2832 200.064 99.6858 200.842 101.039C199.002 99.5995 197.041 98.0108 194.841 96.1166C192.16 93.7435 189.677 91.1625 187.168 88.6105C187.501 88.6095 187.97 88.6133 188.753 88.5918C194.886 88.6256 199.405 90.8112 206.133 94.6995C209.651 96.7111 212.943 99.0929 215.954 101.804C219.936 105.346 221.649 107.4 223.851 110.591C225.48 112.934 226.902 115.416 228.101 118.006C228.106 118.018 228.072 117.938 228.058 117.904C228.26 118.352 228.199 118.255 228.441 118.849C228.663 119.439 228.859 120.037 229.048 120.638C227.16 119.337 225.254 118.064 223.341 116.799ZM229.726 122.446C229.7 122.133 229.681 121.819 229.663 121.506C229.801 121.561 229.94 121.616 230.078 121.671C229.986 122.033 229.893 122.399 229.797 122.771C229.729 122.723 229.741 122.52 229.726 122.446ZM193.494 160.232C193.085 159.968 188.726 156.403 186.58 154.626C184.601 153.051 182.522 151.608 180.522 150.06C174.991 146.034 164.337 134.936 157.371 128.154C157.837 127.829 158.327 127.542 158.838 127.294C160 126.692 161.2 126.167 162.43 125.723C166.514 124.536 167.002 124.488 170.445 124.427C174.038 124.497 175.228 124.719 179.638 125.94C185.891 127.682 190.667 130.733 195.006 134.565C199.965 139.012 201.725 141.437 205.007 146.508C207.422 150.315 209.424 154.368 210.979 158.599C212.144 161.431 213.139 164.33 213.958 167.281C214.322 168.582 214.632 169.896 214.928 171.214C211.688 164.449 208.254 157.723 203.721 151.734C199.444 146.783 194.197 142.715 188.838 139.001C184.175 135.974 179.098 133.674 174.013 131.46C171.578 130.483 169.068 129.706 166.507 129.139C166.1 129.008 166.688 129.29 166.805 129.378C170.22 131.305 173.488 133.481 176.585 135.887C182.775 140.262 186.544 142.953 191.833 147.65C194.59 150.115 197.611 152.275 200.254 154.868C205.52 160.527 210.403 166.53 215.203 172.587C215.3 173.256 215.446 173.917 215.64 174.564C207.976 170.238 200.58 165.452 193.494 160.232ZM215.506 174.742C215.433 174.648 215.348 174.564 215.254 174.491C215.386 174.525 215.517 174.562 215.649 174.596C215.669 174.659 215.682 174.723 215.702 174.786L215.704 174.79C215.724 174.884 215.743 174.977 215.763 175.071C215.677 174.961 215.592 174.851 215.506 174.742ZM89.9219 189.303C88.0038 187.897 86.1663 186.473 84.3097 184.948C91.6398 179.333 99.1829 172.816 101.696 163.6C102.89 159.16 103.123 154.516 102.378 149.978C102.245 149.2 102.083 148.428 101.894 147.661C101.728 149.185 101.518 150.513 101.241 152.103C100.331 156.956 98.8097 161.675 96.7141 166.147C93.3171 173.15 88.6718 178.989 84.144 184.812C81.9334 182.99 79.6908 181.016 77.2427 178.721C76.3852 177.838 75.6088 177.014 74.8819 176.219C77.619 174.141 80.2094 171.877 82.6343 169.442C87.9426 163.708 92.0106 157.875 94.8001 149.943C97.774 140.84 97.3696 130.927 94.5413 121.82C95.1375 122.487 95.7432 123.171 96.3552 123.845C99.9601 128.178 100.024 128.252 103.503 133.552C105.216 136.328 107.001 139.087 108.291 142.092C109.404 144.522 111.82 152.52 112.273 157.701C112.238 157.442 112.203 157.183 112.168 156.924C112.274 157.93 112.348 158.939 112.356 159.951C112.297 163.198 112.264 164.227 111.984 165.961C110.966 171.614 110.031 173.386 107.07 178.286C103.642 183.496 99.8028 187.038 93.6491 188.992C92.4327 189.302 91.173 189.408 89.9219 189.303ZM218.763 178.036C218.975 177.393 219.179 176.784 219.379 176.191C219.215 176.896 219.057 177.602 218.885 178.302C218.846 178.214 218.801 178.123 218.763 178.036ZM294.45 283.016C294.143 291.371 293.985 299.763 294.313 308.127L294.311 308.123C294.281 308.101 294.247 308.086 294.211 308.077C294.175 308.068 294.138 308.067 294.102 308.073C294.095 308.072 294.094 308.065 294.086 308.066C293.85 308.072 293.614 308.087 293.378 308.101C293.368 308.086 293.361 308.067 293.361 308.048C293.361 308.029 293.366 308.01 293.376 307.994C293.342 308.022 293.32 308.061 293.313 308.104L293.29 308.106C293.075 307.516 291.576 308.4 291.169 308.527C291.646 308.499 292.116 308.404 292.59 308.352C292.588 308.385 292.595 308.417 292.61 308.447C292.626 308.488 292.655 308.524 292.693 308.549C292.73 308.575 292.774 308.588 292.819 308.588C293.23 308.561 293.637 308.501 294.039 308.41C294.143 308.406 294.243 308.365 294.32 308.294C294.47 312.033 294.715 315.767 295.09 319.489C293.905 318.726 292.673 318.037 291.437 317.358C291.213 317.194 290.988 317.031 290.757 316.877C290.317 316.608 289.866 316.214 289.322 316.246C289.132 316.246 288.946 316.301 288.787 316.406C288.628 316.51 288.504 316.659 288.43 316.834C287.685 316.544 286.937 316.261 286.187 315.984C286.194 315.906 286.202 315.828 286.209 315.75C286.497 312.671 286.763 309.59 287.006 306.507C287.651 298.259 288.295 290.009 288.706 281.746C289.208 268.705 288.742 255.65 288.398 242.608C291.633 242.588 294.865 242.525 298.09 242.3C296.169 255.793 295.074 269.406 294.45 283.016ZM295.205 237.387C282.045 238.289 267.464 235.998 255.894 243.715C250.763 247.215 247.167 252.416 243.95 257.652C246.284 247.201 245 238.103 242.043 226.666C240.283 220.098 238.359 213.541 235.694 207.277C233.023 201.331 229.694 195.698 226.358 190.106C224.382 186.845 222.237 183.696 219.988 180.622C219.625 179.894 219.291 179.196 218.98 178.51C219.896 176.533 220.844 174.21 221.896 172.662C223.704 170.432 226.629 169.056 229.145 168.102C234.068 166.319 239.098 164.688 244.269 163.81C248.23 163.357 252.23 163.465 256.208 163.275C260.7 163.024 265.172 162.495 269.599 161.69C274.986 160.815 280.377 159.89 285.676 158.576C292.841 156.528 299.865 154.018 306.706 151.062C306.702 151.447 306.678 151.831 306.635 152.213C306.55 152.714 306.354 153.887 306.242 154.278C306.144 154.687 306.028 155.091 305.916 155.497C302.965 157.201 299.876 158.663 296.852 160.232C291.799 162.804 286.058 165.692 282.401 166.999C276.693 169.15 270.739 170.58 264.678 171.255C258.181 171.651 251.679 170.783 245.178 171.025C240.524 171.348 235.832 171.716 231.296 172.855C227.438 173.9 223.86 175.721 220.319 177.537C224.151 176.412 228.66 175.123 231.912 174.864C239.465 174.378 247.013 175.349 254.521 176.069C259.881 176.657 265.297 176.485 270.609 175.558C274.421 175.029 278.156 174.046 281.735 172.629C288.542 170.129 295.397 165.13 300.388 161.232C302.126 159.9 303.842 158.528 305.46 157.053C304.989 158.565 304.468 160.063 303.966 161.564C302.417 165.894 301.842 167.462 298.995 171.917C296.62 175.298 292.795 178.294 287.466 181.225C283.132 183.679 276.702 185.704 271.527 185.903C266.412 186.113 261.288 185.916 256.203 185.315C251.197 184.908 246.225 184.142 241.328 183.024C235.265 181.585 229.325 179.64 223.197 178.467C222.545 178.341 221.894 178.213 221.243 178.081C221.631 178.276 222.019 178.47 222.41 178.659C230.254 182.405 237.786 186.982 246.239 189.261C251.183 190.57 256.247 191.378 261.353 191.673C265.984 191.981 270.65 192.084 275.256 191.419C278.833 190.967 282.326 190.005 285.63 188.562C289.546 187.003 293.239 184.933 296.612 182.406C296.616 182.698 296.65 182.99 296.716 183.275C297.194 185.994 297.675 188.713 298.1 191.441C299.274 198.894 300.516 206.562 304.446 213.133C307.716 218.725 313.166 220.833 319.002 222.34C318.782 223.468 318.653 224.612 318.616 225.761C318.475 228.38 318.54 231.003 318.627 233.624C310.947 235.573 303.109 236.833 295.205 237.387ZM341.637 138.445C343.447 135.257 344.917 131.889 346.024 128.394C347.76 121.835 348.552 115.056 350.32 108.504C352.57 100.809 354.557 96.6247 359.266 91.3154C359.291 91.2854 359.316 91.2549 359.341 91.225C359.873 101.433 359.199 111.667 357.332 121.717C356.592 125.253 355.953 128.842 354.57 132.196C353.843 133.907 352.957 135.545 351.924 137.091C351.112 138.334 350.102 139.435 348.934 140.352C348.067 140.976 347.145 141.521 346.18 141.979C344.608 140.788 343.143 139.659 341.637 138.445ZM383.502 172.067C381.319 180.032 378.173 187.7 374.135 194.903C374.334 192.186 374.369 189.458 374.24 186.736C374.095 183.196 373.896 179.625 373.066 176.169C372.147 172.338 370.816 168.618 369.097 165.074C367.746 162.162 366.281 159.291 364.199 156.822C360.776 152.871 356.524 149.749 352.356 146.635C350.519 145.241 348.919 144.045 347.44 142.931C347.738 142.855 348.035 142.773 348.328 142.679C350.385 142.034 352.263 140.92 353.815 139.425C357.618 135.903 360.095 131.218 361.635 126.315C363.837 120.098 364.671 113.517 365.093 106.963C365.449 101.725 365.514 96.4706 365.287 91.2249C365.783 93.8542 366.373 96.4673 367.114 99.0548C368.956 106.379 373.418 116.058 377.227 120.761C378.959 123.105 380.967 125.231 383.206 127.096C384.536 128.053 385.926 128.921 387.37 129.695C387.305 133.494 387.174 137.292 387.063 141.09C386.855 147.299 386.313 153.492 385.44 159.643C384.67 165.141 384.763 166.68 383.502 172.067Z" fill="#333333"/>
<path d="M299.476 100.989C299.483 100.98 299.49 100.972 299.497 100.963C299.504 100.953 299.493 100.967 299.476 100.989Z" fill="#333333"/>
<path d="M308.044 36.8466C308.044 36.6823 308.044 36.5181 308.045 36.3541C307.752 37.4677 307.449 38.5785 307.148 39.6898C306.404 42.6344 305.508 45.5386 304.465 48.3908C302.418 54.2305 299.859 59.8997 298.325 65.9091C296.572 72.0571 295.925 78.4301 294.652 84.6778C292.875 92.4163 290.792 100.085 289.491 107.927C292.498 99.8424 295.459 93.4377 298.35 85.625C300.391 79.6498 301.645 73.4407 303.14 67.3144C304.413 61.7428 306.147 56.2781 307.057 50.6263C307.864 46.0799 308.195 41.4616 308.044 36.8466Z" fill="#333333"/>
<path d="M342.509 157.031C339.255 155.213 335.95 153.48 332.538 151.976C331.976 151.725 331.417 151.467 330.86 151.207C330.954 151.295 331.046 151.383 331.14 151.471C339.951 159.781 346.536 163.305 358.246 166.283C353.075 163.074 347.817 160.005 342.509 157.031Z" fill="#333333"/>
<path d="M346.995 140.023C349.615 136.097 351.869 131.938 353.728 127.6C355.277 123.6 356.407 119.451 357.1 115.218C352.458 122.331 349.02 131.414 346.995 140.023Z" fill="#333333"/>
<path d="M529.115 127.437C527.712 126.959 526.35 127.643 525.382 128.656C524.423 129.502 523.493 130.381 522.499 131.187C520.871 132.683 515.854 135.84 511.822 137.63C511.529 137.763 511.233 137.891 510.938 138.02C507.212 139.598 503.323 140.759 499.342 141.482C494.717 142.4 492.597 142.482 485.771 142.576C481.971 142.593 478.165 142.474 474.372 142.778C470.632 143.018 466.932 143.644 463.239 144.254C468.267 144.4 475.118 144.807 478.81 145.461C484.141 146.295 489.487 147.282 494.899 147.338C498.675 147.278 502.43 146.768 506.086 145.818C513.752 143.545 519.546 140.958 526.362 135.319C526.284 135.927 526.163 136.376 525.884 137.784C525.421 139.649 524.767 141.462 523.932 143.193C523.323 144.573 522.562 145.88 521.663 147.091C521.245 147.622 520.728 148.316 519.478 149.776C517.202 152.362 515.685 153.713 514.137 154.667C509.89 157.101 507.935 157.821 502.513 159.317C498.209 160.387 497.422 160.672 493.859 160.842C487.588 161.033 484.882 160.596 479.601 159.674C472.888 158.746 466.409 156.993 459.858 155.31C456.423 154.367 453.882 153.726 451.154 151.419C450.612 150.94 450.088 150.442 449.573 149.934C452.423 149.023 455.214 147.935 457.929 146.676C463.35 143.971 468.144 140.162 472.445 135.924C475.778 132.727 478.813 129.234 481.511 125.486C483.027 123.417 484.473 121.296 485.816 119.11C485.638 119.277 485.461 119.443 485.282 119.609C480.264 124.335 474.941 128.726 469.346 132.752C464.418 136.479 459.113 139.679 453.517 142.298C449.168 144.163 444.631 145.557 439.985 146.457C435.198 147.3 432.349 147.515 426.503 147.855C423.908 148.073 421.237 148.264 418.84 149.367C413.102 152.083 409.857 157.868 406.568 163.011C409.183 160.33 411.685 157.514 414.626 155.178C416.696 153.57 420.077 152.135 421.377 152.178C426.271 151.964 431.158 152.875 436.062 152.517C440.608 152.226 445.101 151.372 449.438 149.976C449.476 150.041 449.513 150.106 449.551 150.17C452.35 155.638 458.368 157.918 463.659 160.292C467.958 162.32 472.462 163.878 477.094 164.939C483.373 166.616 489.9 167.162 496.37 166.553C499.601 166.234 502.724 165.369 505.84 164.504C510.14 163.242 514.404 161.555 518.132 159.039C521.634 156.529 524.398 153.177 526.938 149.73C528.768 146.818 530.162 143.654 531.075 140.337C531.744 136.788 533.524 129.013 529.115 127.437Z" fill="#333333"/>
<path d="M476.588 124.565C473.796 124.634 473.803 128.726 476.588 128.803C479.38 128.734 479.373 124.642 476.588 124.565Z" fill="#333333"/>
<path d="M505.599 61.7831C504.336 57.8793 503.235 53.8746 501.369 50.206C500.273 47.9964 497.604 46.8172 495.625 48.7231C493.727 51.085 491.921 53.5228 490.138 55.9725C486.899 60.4591 483.506 64.8494 480.609 69.5701C478.239 73.6617 476.161 77.915 474.389 82.2986C472.046 88.8066 470.685 95.6276 470.351 102.537C470.309 108.695 471.252 114.817 472.421 120.848C472.722 114.654 473.249 107.488 474.089 102.757C475.074 98.1966 476.333 93.7002 477.861 89.2922C480.072 83.0094 480.312 82.6252 483.639 76.0814C487.493 68.8861 492.695 62.5243 497.455 55.9211C497.587 56.2936 497.754 56.7514 497.993 57.357C501.264 66.8952 502.987 73.594 503.294 82.6354C503.393 87.1844 502.643 89.737 501.172 95.199C500.683 97.7605 496.472 104.368 494.986 106.128C491.837 110.189 486.117 115.516 483.222 117.859C481.165 119.605 477.015 121.939 473.608 123.398C473.486 123.456 473.365 123.513 473.244 123.57C473.423 123.537 473.602 123.507 473.781 123.475C476.713 122.967 479.659 122.411 482.402 121.217C486.366 119.587 489.966 117.18 493.386 114.622C498.808 110.528 503.533 105.222 506.113 98.8774C507.867 94.085 508.905 89.0597 509.193 83.964C509.047 76.4377 507.837 68.97 505.599 61.7831Z" fill="#333333"/>
<path d="M498.055 72.1337C496.375 75.9626 494.862 80.1988 493.649 82.786C491.727 86.7629 489.554 90.6146 487.577 94.5649C485.528 98.6074 483.624 102.721 481.606 106.778C479.055 111.84 476.958 115.618 474.921 121.265C478.961 115.855 484.085 110.688 487.836 104.759C491.986 98.507 495.173 91.6667 497.291 84.4671C498.396 80.1209 498.811 75.6336 499.37 71.1931C499.469 70.2848 499.56 69.3754 499.636 68.4648C499.11 69.6881 498.58 70.91 498.055 72.1337Z" fill="#333333"/>
<path d="M254.905 29.5282C252.113 29.5974 252.12 33.6891 254.905 33.766C257.697 33.6968 257.69 29.605 254.905 29.5282Z" fill="#333333"/>
<path d="M181.567 45.3677C178.775 45.4369 178.782 49.5286 181.567 49.6054C184.359 49.5362 184.351 45.4445 181.567 45.3677Z" fill="#333333"/>
<path d="M309.909 112.06C307.117 112.13 307.124 116.221 309.909 116.298C312.701 116.229 312.694 112.137 309.909 112.06Z" fill="#333333"/>
<path d="M493.719 154.091C489.699 154.422 485.65 154.769 481.616 154.517C480.265 154.525 471.608 153.077 470.137 152.906C464.612 152.141 459.945 151.82 456.795 151.244C451.881 150.313 447.001 149.168 442.002 148.776C447.878 150.756 453.135 153.881 459.22 155.647C466.593 157.573 474.245 159.068 481.895 158.603C486.667 158.154 491.248 156.55 495.665 154.757C496.506 154.413 497.34 154.051 498.166 153.672C496.686 153.83 495.202 153.962 493.719 154.091Z" fill="#333333"/>
<path d="M512.424 165.414C509.632 165.484 509.639 169.575 512.424 169.652C515.216 169.583 515.209 165.491 512.424 165.414Z" fill="#333333"/>
<path d="M244.071 124.565C241.279 124.634 241.286 128.726 244.071 128.803C246.863 128.734 246.856 124.642 244.071 124.565Z" fill="#333333"/>
<path d="M209.069 124.565C206.276 124.634 206.284 128.726 209.069 128.803C211.861 128.734 211.853 124.642 209.069 124.565Z" fill="#333333"/>
<path d="M161.368 185.147C161.262 184.612 161.101 184.089 160.889 183.586C160.85 184.719 160.735 185.847 160.543 186.964C159.282 193.07 157.464 199.047 155.111 204.821C152.639 211.093 151.815 213.045 148.648 220.054C153.488 214.856 157.979 209.042 160.357 202.278C162.171 196.752 162.519 190.849 161.368 185.147Z" fill="#333333"/>
<path d="M63.6857 187.198C54.3441 185.219 45.4716 184.114 38.039 183.049C37.6695 182.992 37.3005 182.929 36.9324 182.865C37.6278 183.219 38.3241 183.571 39.0244 183.915C42.4852 185.639 46.0497 187.146 49.6971 188.429C60.55 192.42 72.2885 192.651 83.6429 194.21C77.2881 191.099 70.5897 188.746 63.6857 187.198Z" fill="#333333"/>
<path d="M137.631 235.811C135.062 236.49 132.611 237.525 130.089 238.348C127.816 239.085 125.485 239.621 123.162 240.169C119.29 241.07 113.31 240.733 109.005 240.054C99.3148 238.167 91.316 234.639 83.7867 231.184C80.5346 229.677 77.3168 228.099 74.1332 226.451C73.8266 226.295 73.524 226.131 73.2203 225.969C76.9449 225.137 78.7051 225.039 82.3486 224.616C86.3797 224.129 90.4333 223.853 94.4931 223.786C101.295 224 108.086 224.523 114.886 224.816C120.661 225.186 126.426 225.822 132.22 225.766C135.375 225.732 138.528 225.667 141.681 225.571C141.527 225.538 141.372 225.505 141.218 225.472C134.031 223.975 126.825 222.58 119.655 221.005C110.687 219.33 101.57 218.581 92.4493 218.769C88.4589 218.978 84.4879 219.443 80.5249 219.942C76.2102 220.464 71.884 221.068 67.7403 222.427C65.4604 223.037 63.923 225.278 65.7806 227.288C66.3678 227.807 66.9958 228.277 67.6583 228.696L67.581 228.618C73.4614 232.426 79.9427 235.248 86.2916 238.179C94.4232 241.783 102.854 245.014 111.751 245.994C116.096 246.404 120.589 246.574 124.796 245.217C127.286 244.466 129.716 243.526 132.063 242.406C134.378 241.272 136.576 239.912 138.92 238.835C142.78 237.011 148.795 235.143 154.065 233.809C148.527 233.82 143.01 234.493 137.631 235.811Z" fill="#333333"/>
<path d="M126.185 227.916C123.837 228.3 116.876 228.881 111.782 229.347C111.402 229.38 111.021 229.408 110.641 229.436C111.404 229.642 112.167 229.843 112.932 230.039C116.217 230.923 119.593 231.43 122.993 231.55C126.983 231.667 130.911 230.8 134.883 230.613C138.233 230.564 141.565 231.023 144.897 231.308C138.275 228.071 133.581 226.857 126.185 227.916Z" fill="#333333"/>
<path d="M94.0603 43.7003C91.2682 43.7695 91.2755 47.8613 94.0603 47.9381C96.8524 47.8689 96.8452 43.7771 94.0603 43.7003Z" fill="#333333"/>
<path d="M49.057 57.8726C46.265 57.9418 46.2722 62.0335 49.0571 62.1103C51.8492 62.0411 51.8419 57.9493 49.057 57.8726Z" fill="#333333"/>
<path d="M41.5565 91.2189C38.7644 91.2881 38.7717 95.3798 41.5565 95.4566C44.3486 95.3874 44.3413 91.2957 41.5565 91.2189Z" fill="#333333"/>
<path d="M190.734 225.438C187.942 225.507 187.949 229.599 190.734 229.675C193.526 229.606 193.519 225.515 190.734 225.438Z" fill="#333333"/>
<path d="M175.565 312.672C175.174 309.059 173.5 305.742 171.625 302.683C169.957 299.957 168.121 297.338 166.128 294.84C164.363 292.783 162.688 290.544 160.532 288.888C160.197 288.698 159.817 288.598 159.431 288.599C159.045 288.6 158.666 288.701 158.331 288.894C157.996 289.086 157.717 289.362 157.522 289.695C157.326 290.028 157.221 290.406 157.216 290.792C157.27 291.378 157.452 291.946 157.748 292.454C157.862 292.753 158.14 293.284 158.641 294.776C159.094 296.105 159.449 297.467 159.702 298.848C159.806 299.473 159.819 299.575 159.73 298.91L159.821 299.59C160.329 304.885 159.784 307.885 157.734 313.189C156.499 316.209 155.959 318.138 153.621 321.174C151.868 323.449 149.834 325.492 147.567 327.255C146.538 328.003 144.555 329.372 142.851 330.546C144.214 325.395 145.313 320.164 144.88 314.841C144.707 313.261 144.332 311.709 143.763 310.224C149.272 301.236 152.443 293.183 150.935 282.226C150.87 281.746 150.79 281.267 150.706 280.791C150.611 281.645 150.519 282.367 150.413 283.099C149.232 292.234 146.438 301.013 143.563 309.731C141.758 305.451 138.408 302.369 134.306 300.112C134.533 300.068 134.761 300.025 134.986 299.982C134.667 299.975 134.348 299.968 134.03 299.963C132.471 299.135 130.856 298.418 129.197 297.817C127.488 293.887 125.424 290.121 123.031 286.567C118.194 279.364 112.61 272.542 105.623 267.324C102.033 264.457 84.0783 252.26 82.2321 260.605C82.0335 262.35 83.0087 263.993 83.4644 265.639C84.6584 268.995 85.6463 271.355 86.5391 273.39C88.1313 276.927 89.6147 280.539 91.6294 283.863C95.0774 289.334 99.1474 294.553 104.357 298.45C111.957 303.793 121.447 302.552 130.229 300.898C130.298 301.008 130.367 301.117 130.432 301.223C130.511 301.35 130.59 301.477 130.669 301.604C130.584 301.356 130.491 301.111 130.402 300.865C130.936 300.764 131.468 300.662 131.996 300.559C133.923 301.958 135.665 303.594 137.184 305.427C141.424 310.843 141.011 317.139 140.291 320.829C139.161 327.422 136.994 333.799 136.01 340.416C135.994 340.511 135.982 340.606 135.966 340.701C134.523 336.879 132.216 333.212 129.64 329.656C125.28 323.559 116.377 314.427 108.304 315.066C104.475 315.315 100.55 317.467 101.312 321.864C101.778 325.257 103.224 328.44 104.574 331.562C107.885 338.91 113.934 345.252 121.847 347.445C126.374 348.932 131.125 348.339 135.724 347.446C135.997 350.644 137.007 353.735 138.676 356.476C141.282 360.411 145.554 362.612 149.483 364.991C146.67 362.215 143.592 359.797 141.889 356.921C140.345 354.737 139.817 352.252 139.423 349.499C139.043 346.244 139.559 342.668 140.965 337.456C141.537 335.292 142.164 333.114 142.75 330.922C147.957 328.573 153.018 325.87 156.809 321.467C158.327 319.691 159.602 317.72 160.601 315.607C161.667 313.65 162.552 311.601 163.248 309.484C164.184 306.484 164.529 303.331 164.262 300.199C166.058 302.773 167.664 305.475 169.068 308.282C169.166 308.486 169.257 308.682 169.316 308.807C169.436 309.118 169.557 309.429 169.677 309.74C170.02 310.747 170.284 311.78 170.464 312.828C170.466 312.85 170.47 312.872 170.472 312.895C170.548 315.836 170.616 315.318 169.741 318.156C169.357 319.384 168.863 320.575 168.265 321.713C167.264 323.579 166.103 325.355 164.795 327.02C163.512 328.797 160.267 332.414 157.501 335.409C153.603 339.63 149.662 344.58 145.367 347.364C143.735 348.53 141.86 349.312 139.883 349.651C143.278 350.316 148.871 347.695 152.223 345.224C155.639 342.744 158.822 339.959 161.998 337.183C166.197 333.478 170.247 329.374 172.808 324.337C174.525 320.721 176.122 316.75 175.565 312.672ZM107.752 295.485C101.344 290.067 96.1881 283.32 92.6419 275.713C90.1711 270.367 88.7276 267.349 87.0079 262.206C88.8389 262.513 91.6718 263.799 94.305 265.279C101.603 269.507 105.763 273.248 111.885 279.236C116.745 284.058 121.343 289.138 125.66 294.453C126.13 295.053 126.937 296.129 127.802 297.335C127.387 297.197 126.971 297.059 126.554 296.93C127.127 297.268 127.694 297.618 128.257 297.973C128.716 298.623 129.177 299.291 129.602 299.931C121.459 299.9 113.827 299.788 107.752 295.485ZM130.061 299.932C129.924 299.575 129.779 299.22 129.634 298.866C130.137 299.204 130.649 299.564 131.16 299.937C130.792 299.935 130.426 299.933 130.061 299.932ZM126.646 345.791C123.257 344.902 118.833 342.196 116.924 340.354C112.953 336.825 110.923 333.242 108.233 327.652C107.525 326.103 106.91 324.511 106.394 322.888C105.889 321.098 105.98 321.696 105.962 320.634C106.044 320.568 106.096 320.525 106.127 320.499C107.456 319.647 109.284 319.845 109.87 319.846C112.787 320.424 115.984 322.441 119.523 325.054C122.319 326.976 131.418 335.572 134.968 341.198C135.232 341.605 135.48 342.022 135.734 342.435C135.588 343.909 135.568 345.393 135.675 346.871C132.306 346.711 129.732 346.593 126.646 345.791L126.646 345.791Z" fill="#333333"/>
<path d="M117.079 293.106C112.694 289.611 108.243 284.652 105.25 280.698C104.301 279.412 103.402 278.091 102.53 276.752C102.692 277.257 102.857 277.762 103.025 278.266C104.701 283.842 107.857 288.861 112.155 292.787C116.271 296.218 121.375 298.099 126.487 299.482C123.67 297.708 118.612 294.396 117.079 293.106Z" fill="#333333"/>
<path d="M149.333 257.282C144.408 252.873 138.527 248.922 131.863 247.968C129.499 247.637 127.095 248.199 125.123 249.544C123.16 251.004 123.395 253.864 124.462 255.81C127.25 261.099 130.669 266.031 134.644 270.497C138.76 274.934 143.871 278.261 148.952 281.503C149.13 282.58 149.319 283.651 149.483 284.48C149.575 283.668 149.656 282.833 149.715 281.989C149.971 282.153 150.227 282.316 150.483 282.479C150.234 282.234 149.983 281.99 149.733 281.746C150 277.574 149.64 273.182 146.705 270.025C146.445 269.681 146.81 270.351 146.818 270.423C147.937 273.138 148.038 274.886 148.332 277.369C148.418 278.092 148.619 279.453 148.851 280.884C145.006 277.146 141.103 273.443 137.797 269.211C135.526 266.396 129.394 255.966 128.024 253.215C127.96 253.046 127.901 252.875 127.847 252.703C128.025 252.606 128.221 252.51 128.373 252.439C129.968 251.897 129.463 252.078 130.597 252.007C131.46 252.022 132.317 252.17 133.135 252.445C139.449 254.134 147.385 260.34 151.101 264.788C154.639 269.258 155.233 274.345 154.851 279.645C154.529 281.746 153.932 283.795 153.075 285.739C152.968 285.904 152.912 286.143 153.125 285.76C154.204 284.188 155.098 282.498 155.791 280.722C156.439 278.743 156.826 276.688 156.942 274.61C157.607 267.487 154.478 261.953 149.333 257.282Z" fill="#333333"/>
<path d="M141.985 339.988C145.557 338.292 149.133 336.508 152.243 334.037C155.939 331.042 158.993 327.301 161.644 323.369C154.827 328.589 148.479 334.38 141.985 339.988Z" fill="#333333"/>
<path d="M126.409 338.8C123.278 336.987 119.96 335.512 116.838 333.678C121.545 339.039 128.012 342.263 134.486 344.988C131.965 342.711 129.264 340.641 126.409 338.8Z" fill="#333333"/>
<path d="M51.1517 419.66C44.3188 418.546 37.4091 417.945 30.5041 417.499C45.8193 422.376 57.7024 425.655 72.944 424.753C66.6144 422.773 58.2807 420.988 51.1517 419.66Z" fill="#333333"/>
<path d="M82.0424 406.101C81.5065 404.813 81.2093 404.137 80.7471 403.027C80.4536 402.33 80.1664 401.631 79.8854 400.929C79.8933 401.001 79.8999 401.074 79.9071 401.146C80.2747 405.239 81.0597 409.284 82.2498 413.217C83.5083 417.025 85.4582 420.559 87.4942 423.999C86.267 417.869 84.441 411.874 82.0424 406.101Z" fill="#333333"/>
<path d="M101.984 410.658C101.521 407.524 100.855 404.424 100.136 401.34C99.9315 400.457 99.7289 399.574 99.5283 398.691C99.5222 398.786 99.5159 398.881 99.5099 398.976C99.1973 404.008 99.0551 409.089 99.7478 414.096C100.437 418.487 101.523 422.806 102.992 427C102.986 421.537 102.649 416.08 101.984 410.658Z" fill="#333333"/>
<path d="M125.614 412.872C125.275 411.797 124.945 410.719 124.638 409.635C124.634 409.773 124.629 409.913 124.626 410.052C124.535 413.325 124.878 416.596 125.646 419.779C126.487 422.622 127.607 425.376 128.987 428C128.374 422.857 127.244 417.788 125.614 412.872Z" fill="#333333"/>
<path d="M189.476 422.999C190.596 420.113 191.505 417.15 192.197 414.132C192.761 411.29 193.298 407.543 193.649 405.11C190.655 410.585 189.566 416.815 189.476 422.999Z" fill="#333333"/>
<path d="M222.08 387.456C217.482 391.022 214.308 396.06 211.834 401.257C207.756 409.44 205.911 418.462 204.974 427.5C206.359 423.89 207.556 420.209 208.986 416.618C210.76 411.967 212.188 409.075 214.174 404.174C215.7 400.75 218.077 393.473 221.748 388.586C222.362 387.777 223.028 387.007 223.74 386.282C223.173 386.654 222.615 387.04 222.08 387.456Z" fill="#333333"/>
<path d="M252.56 369.058C248.436 366.204 245.206 369.429 242.329 372.303C238.432 376.162 234.812 380.291 231.496 384.66C225.676 392.182 220.79 400.458 217.634 409.455C215.336 415.376 214.287 421.675 213.972 428C214.889 424.413 216.025 420.885 217.372 417.437C219.933 411.613 222.956 406.003 226.412 400.661C232.354 391.265 237.035 384.773 244.741 376.792C245.954 375.583 247.148 374.347 248.475 373.26L248.488 373.251C248.728 373.096 248.974 372.949 249.226 372.814C249.246 372.815 249.265 372.816 249.285 372.817C249.391 372.844 249.49 372.873 249.567 372.897C249.815 373.044 250.055 373.204 250.287 373.374C250.329 373.408 250.371 373.442 250.411 373.477C250.419 373.509 250.429 373.541 250.436 373.574C250.478 376.672 248.977 379.483 246.594 383.652C238.708 397.142 230.772 406.128 222.523 417.363C220.672 419.907 218.83 422.458 216.931 424.967C220.248 422.566 225.369 417.533 229.121 414.03C235.716 407.827 241.755 400.989 246.612 393.329C249.712 388.028 260.288 373.634 252.56 369.058Z" fill="#333333"/>
<path d="M277.144 420.181C273.145 418.565 268.894 417.215 264.536 417.335C255.068 417.755 246.217 421.687 237.468 425C243.874 424.04 250.26 422.932 256.605 421.626C260.038 421.048 263.582 420.329 265.988 420.139C269.309 419.922 272.642 420.031 275.941 420.464C276.931 420.591 277.728 420.708 278.779 420.889C278.238 420.645 277.692 420.409 277.144 420.181Z" fill="#333333"/>
<path d="M324.332 414.484C317.891 413.137 311.418 411.69 304.83 411.339C298.482 411.274 292.191 412.408 285.959 413.498C291.456 414.075 296.979 414.285 302.499 414.495C308.115 414.841 313.743 414.983 319.368 414.774C321.174 414.718 322.979 414.65 324.784 414.582C324.634 414.549 324.483 414.517 324.332 414.484Z" fill="#333333"/>
<path d="M402.593 355.827C401.299 350.783 398.485 341.256 392.42 340.644C389.037 340.57 388.321 343.385 389.051 346.184C389.261 347.077 389.436 350.944 389.373 353.967C389.243 359.093 389.234 360.245 388.028 364.997C386.669 369.785 385.811 371.456 382.844 376.079C381.191 378.693 379.329 381.167 377.276 383.479C377.801 382.071 378.283 380.645 378.711 379.199C380.553 372.147 381.763 366.365 380.737 358.013C380.239 353.646 379.139 349.221 376.475 345.642C374.311 342.765 371.474 340.182 368.087 338.864C365.26 337.963 361.813 338.232 359.559 340.308C357.633 342.08 357.156 344.738 356.86 347.221C356.636 348.854 356.426 350.489 356.22 352.124C355.68 356.434 354.922 362.704 354.523 365.414C354.461 365.815 354.571 365.108 354.587 364.942C353.526 372.273 352.186 379.565 350.626 386.806C349.931 383.052 349.071 379.328 348.09 375.636C345.88 367.993 343.097 359.23 335.905 352.727C332.163 349.146 326.422 345.316 321.258 348.234C318.338 350.232 316.699 352.862 316.949 357.291C317.685 363.99 320.924 370.119 324.232 375.883C328.793 383.681 333.96 391.095 338.887 398.661C341.895 403.125 343.831 408.152 345.188 413.331C339.092 412.267 333.667 411.591 326.952 410.998C333.938 414.002 339.26 415.202 345.662 415.233C345.76 415.654 345.856 416.076 345.949 416.498C345.949 416.078 345.945 415.657 345.938 415.236C346.059 415.236 346.182 415.234 346.304 415.233C346.143 415.631 346.051 416.053 346.034 416.482C346.007 419.451 348.457 420.551 350.934 419.455C354.846 419.22 358.736 418.698 362.571 417.892C374.246 415.4 386.312 407.595 393.449 398.025C402.049 386.027 406.184 370.344 402.593 355.827ZM356.526 383.232C358.354 373.933 359.659 364.538 360.435 355.092C361.319 346.41 360.915 343.238 363.794 342.649C366.765 342.455 367.444 343.156 369.549 344.828C371.763 346.926 371.991 347.071 373.255 349.177C376.641 355.178 376.684 365.046 374.892 372.466C372.779 382.45 368.596 390.601 363.006 398.225C359.519 401.471 356.067 404.54 352.469 408.04C352.645 406.041 352.651 404.031 352.487 402.031C353.605 396.558 355.39 389.261 356.526 383.232ZM345.886 413.454C345.773 408.734 344.888 404.064 343.268 399.629C340.189 392.012 336.025 384.872 331.704 377.901C329.071 373.823 326.7 369.582 324.603 365.204L324.579 365.151C321.294 357.262 320.689 354.452 323.408 352.199C325.344 350.726 328.7 352.184 332.088 355.278C338.638 361.229 340.605 367.572 343.189 376.838C345.506 386.309 346.716 393.171 347.055 402.518C346.698 404.241 346.375 405.971 346.121 407.715C345.948 409.282 345.465 410.979 346.287 412.44C346.554 412.89 346.935 413.262 347.391 413.517C347.478 413.404 347.463 413.424 347.392 413.517L347.392 413.517C347.345 413.578 347.299 413.638 347.252 413.698L347.25 413.701L347.252 413.698C347.308 413.626 347.356 413.563 347.392 413.517L347.391 413.517L347.25 413.701C346.791 413.617 346.336 413.534 345.886 413.454ZM396.652 377.824C394.932 384.432 391.008 391.988 387.799 395.845C384.202 400.083 379.531 403.791 376.676 405.889C373.273 408.392 369.829 410.86 366.064 412.795C361.558 415.136 357.609 416.599 352.457 418.407C356.043 415.603 358.938 411.972 361.939 408.574C364.059 406.126 366.066 403.568 367.936 400.914C370.965 398.085 373.929 395.187 376.762 392.157C381.667 387.151 386.224 381.778 389.765 375.708C393.884 368.69 395.39 360.452 395.07 352.384C395.052 351.475 395.022 350.563 394.969 349.652C395.569 351.072 396.081 352.528 396.503 354.01C397.894 359.311 398.144 360.981 398.216 366.27C398.123 371.431 397.933 372.755 396.652 377.824Z" fill="#333333"/>
<path d="M287.975 312.394C287.976 312.402 287.978 312.409 287.979 312.417L287.979 312.409L287.975 312.394Z" fill="#333333"/>
<path d="M302.96 328.444C302.907 328.157 302.777 327.89 302.584 327.671C302.608 327.701 302.65 327.75 302.672 327.779C302.556 327.549 302.453 327.314 302.362 327.073C302.394 327.004 302.423 326.933 302.447 326.86C302.546 326.457 302.506 326.031 302.332 325.654C302.284 325.526 302.227 325.402 302.161 325.282C301.991 324.9 301.769 324.542 301.503 324.219C301.472 324.15 301.436 324.083 301.397 324.018C300.331 322.286 298.703 321.038 297.068 319.835C296.395 318.73 295.565 317.728 294.606 316.86C293.643 315.891 292.67 314.931 291.672 313.998C291.601 313.31 291.495 312.627 291.355 311.95C291.336 311.762 291.281 311.579 291.193 311.412C291.186 311.379 291.177 311.346 291.172 311.312L291.17 311.299C291.053 310.003 290.954 308.704 290.928 307.402C290.946 306.904 290.926 306.405 290.869 305.91C290.836 305.796 290.787 305.686 290.725 305.585C290.706 305.531 290.685 305.468 290.673 305.417C290.614 305.168 290.598 304.911 290.624 304.657C290.675 304.19 290.719 303.312 290.763 302.955C290.838 302.762 290.847 302.549 290.788 302.35C290.807 301.835 290.849 301.09 290.314 300.964L290.309 300.961C290.285 300.616 290.264 300.27 290.238 299.926C290.965 300.255 291.786 300.312 292.552 300.087C293.318 299.862 293.977 299.369 294.41 298.698C294.851 298.024 295.038 297.216 294.94 296.417C294.841 295.617 294.463 294.879 293.872 294.333C293.859 294.289 293.844 294.246 293.829 294.203C293.852 293.62 293.647 293.052 293.256 292.619C293.2 292.274 293.048 291.951 292.817 291.689C292.586 291.426 292.286 291.234 291.95 291.135C291.621 291.031 291.271 291.014 290.933 291.086C290.596 291.158 290.282 291.316 290.023 291.544C289.666 291.69 289.352 291.924 289.11 292.225C288.536 292.484 288.049 292.901 287.705 293.428C287.361 293.956 287.174 294.57 287.168 295.199C287.057 295.739 287.117 296.299 287.338 296.803C287.559 297.307 287.93 297.731 288.402 298.015C288.523 298.165 288.656 298.305 288.801 298.433C288.982 298.791 289.215 299.121 289.491 299.412C289.709 299.62 289.958 299.792 290.229 299.922C290.185 300.254 290.121 300.59 290.055 300.926C289.994 300.933 289.936 300.953 289.885 300.985C289.79 301.026 289.706 301.089 289.639 301.168C289.573 301.248 289.526 301.342 289.503 301.442C289.504 301.438 289.502 301.436 289.504 301.431C289.501 301.445 289.498 301.459 289.495 301.473C289.482 301.519 289.471 301.567 289.464 301.615C289.454 301.659 289.445 301.703 289.435 301.747C289.387 301.929 289.349 302.114 289.324 302.3C288.776 303.084 288.529 304.63 288.454 305.257C288.432 305.607 288.456 305.958 288.522 306.302C288.485 306.483 288.448 306.665 288.414 306.846C288.352 307.181 288.309 307.519 288.258 307.856C288.162 307.773 288.061 307.696 287.956 307.626C288.039 307.755 288.133 307.877 288.237 307.991C288.107 308.865 287.997 309.742 287.914 310.621C287.834 311.211 287.854 311.811 287.975 312.394C287.969 312.329 287.968 312.264 287.973 312.198C287.976 312.268 287.976 312.338 287.979 312.408C288.004 312.511 288.036 312.612 288.073 312.711C288.023 312.62 287.991 312.52 287.979 312.416C288.006 313.118 288.017 313.822 287.982 314.524C287.928 314.807 287.94 315.099 288.016 315.377C288.425 316.337 289.946 318.169 291.688 320.486C291.696 320.651 291.72 320.814 291.759 320.975C291.979 321.615 292.41 322.162 292.98 322.527C293.225 322.808 293.517 323.045 293.843 323.227C295.099 324.232 296.267 325.346 297.545 326.321C297.303 326.131 297.09 325.973 297.501 326.31C297.651 326.429 297.79 326.561 297.916 326.705L297.934 326.681C298.287 327.037 298.746 327.27 299.242 327.345C299.266 327.376 299.291 327.407 299.313 327.439C299.693 327.966 300.103 328.375 300.488 328.936C300.56 329.03 300.63 329.125 300.705 329.216C300.933 329.882 301.099 330.568 301.2 331.265C301.198 331.411 301.194 331.557 301.184 331.703C300.981 332.4 300.885 333.125 300.9 333.851C300.884 333.861 300.869 333.873 300.855 333.885C300.765 334.013 300.713 334.164 300.706 334.32C300.7 334.477 300.738 334.632 300.817 334.767C300.887 335.278 300.963 335.885 301.046 336.497C300.978 336.53 300.916 336.573 300.862 336.625C300.889 336.604 300.922 336.59 300.956 336.584C300.991 336.578 301.026 336.581 301.059 336.593C301.073 336.7 301.087 336.807 301.102 336.913C301.107 336.975 301.126 337.051 301.201 337.05C301.285 337.048 301.302 336.954 301.296 336.885L301.295 336.882C301.355 336.752 301.304 336.446 301.359 336.317C301.414 335.832 301.466 335.346 301.513 334.86C301.617 334.778 301.691 334.664 301.722 334.535C302.086 333.823 302.409 332.575 302.6 332.265C302.737 331.89 302.831 331.5 302.879 331.103C303.1 330.233 303.128 329.326 302.96 328.444Z" fill="#333333"/>
<path d="M259.97 263.626C258.103 268.039 255.644 272.176 253.313 276.354C249.932 282.262 246.245 287.988 242.759 293.834C238.482 301.189 233.687 308.229 228.411 314.902C222.287 322.771 214.617 329.215 207.733 336.381C198.685 345.595 190.197 355.492 183.452 366.535C180.748 370.904 178.634 375.613 177.167 380.537C175.535 386.796 174.677 393.232 174.611 399.7C174.713 407.69 176.064 415.605 177.198 423.497C177.604 413.587 177.442 401.041 178.756 394.264C179.663 388.702 180.509 383.073 182.527 377.783C186.728 367.423 194.868 356.712 203.262 347.324C209.106 350.164 215.399 351.804 221.494 353.994C223.8 355.035 225.781 355.32 227.264 352.866C228.492 350.556 229.144 347.994 229.757 345.466C230.249 343.324 230.691 341.17 231.104 339.011C231.351 337.673 231.841 336.025 230.623 335.009C228.945 333.675 226.651 333.709 224.625 333.362C222.281 333.036 219.927 332.759 217.564 332.616C221.098 329.171 224.62 325.715 227.936 322.059C236.752 311.742 244.352 300.445 250.588 288.39C253.172 283.547 255.447 278.546 257.4 273.416C258.741 269.842 260.063 266.236 260.719 262.463C260.809 261.995 260.899 261.526 260.988 261.057C260.646 261.912 260.315 262.772 259.97 263.626ZM224.311 336.237C225.773 336.731 226.892 337.008 227.565 337.308C227.138 338.901 226.661 340.483 226.218 342.071C225.34 344.857 224.678 347.72 223.629 350.448C223.512 350.424 223.403 350.4 223.32 350.38C218.656 349.382 213.375 348.95 209.367 348.388C208.31 348.228 205.292 347.619 203.344 347.233C204.368 346.089 205.395 344.961 206.419 343.86C209.658 340.336 213.08 336.989 216.507 333.649C219.124 334.464 221.699 335.406 224.311 336.237Z" fill="#333333"/>
<path d="M207.879 279.23C205.409 269.09 200.285 259.775 193.977 251.525C191.266 247.986 188.589 244.395 185.429 241.238C181.984 237.861 178.331 234.702 174.491 231.78C173.276 230.859 172.032 229.978 170.77 229.122C171.085 229.49 171.399 229.858 171.711 230.228C175.983 235.329 179.259 239.601 183.246 245.12C185.237 248.031 187.042 251.065 188.997 254C191.475 257.76 194.03 261.475 196.327 265.35C199.032 269.931 201.371 274.717 203.322 279.666C205.576 285.565 206.758 290.396 206.67 296.202C206.642 299.264 206.021 301.914 205.421 305.175C206.573 302.404 207.813 299.639 208.426 296.687C209.687 290.938 209.262 284.919 207.879 279.23Z" fill="#333333"/>
<path d="M255.116 212.064C253.413 207.687 251.081 203.582 248.193 199.879C247.025 198.352 245.779 196.887 244.459 195.489C244.981 196.611 245.483 197.742 245.964 198.882C246.315 199.694 247.44 202.413 248.054 204.201C250.006 209.269 251.548 215.217 251.892 218.824C251.864 218.61 251.835 218.396 251.806 218.182C252.217 221.684 252.473 222.159 252.611 227.184C252.337 234.111 251.091 240.962 250.659 247.882C251.997 244.305 253.25 240.697 254.485 237.083C255.559 234.19 256.359 231.202 256.873 228.158C257.661 222.773 256.845 217.196 255.116 212.064Z" fill="#333333"/>
<path d="M316.211 387.103C310.622 385.938 304.924 385.37 299.214 385.411C292.534 385.585 285.905 386.656 279.368 387.987C289.268 388.799 299.228 389.158 309.129 388.174C311.788 387.945 314.439 387.648 317.084 387.282C316.794 387.221 316.503 387.161 316.211 387.103Z" fill="#333333"/>
<path d="M160.586 413.213C154.823 377.156 176.705 338.547 209.837 322.119C185.344 347.404 169.293 380.735 160.586 413.213Z" fill="#A5DBE2"/>
</g>
<defs>
<clipPath id="clip0_17_355">
<rect width="532" height="428" fill="white"/>
</clipPath>
</defs>
</svg>
