<svg width="106" height="106" viewBox="0 0 106 106" fill="none" xmlns="http://www.w3.org/2000/svg">
<rect width="106" height="106" rx="53" fill="#F5F8F9"/>
<path fill-rule="evenodd" clip-rule="evenodd" d="M74.3333 42.5734C70.7787 40.6374 67.2213 39.6667 63.6667 39.6667C60.112 39.6667 56.5547 40.6374 53 42.5734V69C56.5547 67.2214 60.112 66.3334 63.6667 66.3334C67.2213 66.3334 70.7787 67.2214 74.3333 69V42.5734Z" stroke="#2F838D" stroke-linecap="round" stroke-linejoin="round"/>
<path fill-rule="evenodd" clip-rule="evenodd" d="M69.1493 45.768C67.3226 45.256 65.496 45 63.6666 45C61.8373 45 60.0133 45.256 58.184 45.768H69.1493ZM69.1493 51.1013C67.3226 50.5893 65.496 50.3333 63.6666 50.3333C61.8373 50.3333 60.0133 50.5893 58.184 51.1013H69.1493ZM69.1493 56.4347C67.3226 55.9227 65.496 55.6667 63.6666 55.6667C61.8373 55.6667 60.0133 55.9227 58.184 56.4347H69.1493ZM69.1493 61.768C67.3226 61.256 65.496 61 63.6666 61C61.8373 61 60.0133 61.256 58.184 61.768H69.1493ZM47.816 45.768C45.9866 45.256 44.1626 45 42.3333 45C40.504 45 38.68 45.256 36.8506 45.768H47.816ZM47.816 51.1013C45.9866 50.5893 44.1626 50.3333 42.3333 50.3333C40.504 50.3333 38.68 50.5893 36.8506 51.1013H47.816ZM47.816 56.4347C45.9893 55.9227 44.1626 55.6667 42.3333 55.6667C40.504 55.6667 38.68 55.9227 36.8506 56.4347H47.816ZM47.816 61.768C45.9893 61.256 44.1626 61 42.3333 61C40.504 61 38.68 61.256 36.8506 61.768" fill="#2F838D"/>
<path d="M47.816 61.768C45.9893 61.256 44.1626 61 42.3333 61C40.504 61 38.68 61.256 36.8506 61.768M69.1493 45.768C67.3226 45.256 65.496 45 63.6666 45C61.8373 45 60.0133 45.256 58.184 45.768H69.1493ZM69.1493 51.1013C67.3226 50.5893 65.496 50.3333 63.6666 50.3333C61.8373 50.3333 60.0133 50.5893 58.184 51.1013H69.1493ZM69.1493 56.4347C67.3226 55.9227 65.496 55.6667 63.6666 55.6667C61.8373 55.6667 60.0133 55.9227 58.184 56.4347H69.1493ZM69.1493 61.768C67.3226 61.256 65.496 61 63.6666 61C61.8373 61 60.0133 61.256 58.184 61.768H69.1493ZM47.816 45.768C45.9866 45.256 44.1626 45 42.3333 45C40.504 45 38.68 45.256 36.8506 45.768H47.816ZM47.816 51.1013C45.9866 50.5893 44.1626 50.3333 42.3333 50.3333C40.504 50.3333 38.68 50.5893 36.8506 51.1013H47.816ZM47.816 56.4347C45.9893 55.9227 44.1626 55.6667 42.3333 55.6667C40.504 55.6667 38.68 55.9227 36.8506 56.4347H47.816Z" stroke="#2F838D" stroke-width="0.5" stroke-linecap="round" stroke-linejoin="round"/>
<path fill-rule="evenodd" clip-rule="evenodd" d="M53 42.5734C49.4453 40.6374 45.888 39.6667 42.3333 39.6667C38.7787 39.6667 35.2213 40.6374 31.6667 42.5734V69C35.2213 67.2214 38.7787 66.3334 42.3333 66.3334C45.888 66.3334 49.4453 67.2214 53 69V42.5734Z" stroke="#2F838D" stroke-linecap="round" stroke-linejoin="round"/>
</svg>
