<svg width="112" height="112" viewBox="0 0 112 112" fill="none" xmlns="http://www.w3.org/2000/svg">
<rect width="112" height="112" rx="16" fill="#F5F8F9"/>
<path d="M86.4656 71.7581C81.5424 76.5482 74.4057 76.934 67.5974 73.9848C54.0876 68.1326 65.1943 35.9291 79.7268 38.2891C88.2062 39.6661 97.9804 45.2348 95.4561 53.6667C93.5088 60.1714 91.3888 66.968 86.4656 71.7581Z" fill="#A5DBE2"/>
<g clip-path="url(#clip0_32_47)">
<path d="M37.2637 61.6681L37.3295 66.6592L45.3334 70.2868C47.2245 68.0619 47.0151 64.4003 44.8824 62.3978C42.7496 60.3954 39.0203 60.359 37.2637 61.6681Z" fill="#A5DBE2"/>
<path d="M86.663 48.0152C86.5363 46.5494 86.3646 45.0869 86.1165 43.636C85.8991 42.5738 85.8461 41.3086 84.9348 40.5686C83.806 39.6785 82.4008 39.2105 81.0151 38.8628C79.7694 38.5535 78.5058 38.32 77.2353 38.1345C74.8957 37.8072 72.5353 37.5737 70.17 37.5837C68.5029 37.5894 66.8429 37.734 65.1812 37.8524C65.1833 37.6449 65.1832 37.4375 65.1809 37.23C65.1026 34.7207 64.8907 31.9948 63.4578 29.8418C62.2026 28.1127 60.1438 26.9425 57.9554 27.0022C55.3945 27.0326 52.3419 29.1323 51.1253 31.3044C49.6239 33.8198 49.6799 36.0429 49.8825 38.7881C48.4815 38.9616 47.0801 39.1398 45.6688 39.1978C42.0748 39.2697 38.765 38.9399 35.4882 38.4196C35.0342 38.3665 34.5785 38.3204 34.1212 38.3099C34.0843 38.3091 34.0474 38.3084 34.0104 38.3076C34.055 38.3175 34.0996 38.3274 34.1442 38.3373C34.2097 38.3523 34.2747 38.3693 34.3399 38.3852C33.0499 38.2516 31.7335 38.0044 30.5486 38.46C28.4492 39.3477 28.1896 42.3654 28.0411 44.329C27.8847 47.6404 28.2238 50.9502 28.2525 54.2618C28.4076 59.343 28.5552 64.4391 29.3148 69.4749C29.4646 70.507 29.4755 71.7289 30.2559 72.9267C30.7362 73.5659 31.4834 73.9442 32.2071 74.2592C33.4483 74.7578 34.792 74.9346 36.1232 74.9997C38.8683 75.0096 41.6098 74.7955 44.356 74.8136C46.9539 74.7897 49.5507 74.9694 52.1486 74.8959C56.744 74.716 61.3387 74.526 65.9281 74.2281C68.4447 74.1141 70.9653 73.9987 73.4591 73.6275C75.2867 73.3703 77.1069 73.0651 78.9341 72.8059C80.2092 72.6108 81.5306 72.4975 82.6918 71.8988C86.6124 69.8358 86.351 61.8135 86.8379 57.945C87.195 54.6403 86.882 51.319 86.663 48.0152ZM52.0165 32.1246C52.8671 30.9081 53.7436 30.2322 55.3278 29.3934C56.9536 28.6075 58.001 28.3764 59.7663 28.8497C63.0742 29.9208 64.1009 33.1194 64.9696 37.2969C65.0068 37.4841 65.0382 37.6724 65.0722 37.8603C64.4831 37.9018 63.8938 37.9396 63.3039 37.9661C59.2031 38.2297 55.0806 38.1571 50.9972 38.6534C50.6488 38.6936 50.3005 38.7364 49.9522 38.7795C50.2477 36.2977 50.4754 34.1825 52.0165 32.1246ZM57.379 39.8772C57.5169 40.3206 57.6168 40.7753 57.7369 41.2235C57.9141 42.0305 58.0531 42.5151 58.064 43.1825C58.046 43.1572 58.0288 43.1345 58.0099 43.1053C57.3415 42.1266 57.072 41.0818 56.7498 39.8916C56.9595 39.8866 57.1692 39.8818 57.379 39.8772ZM85.4114 61.1747C85.2115 63.537 85.1316 65.1628 84.4693 67.4143C84.0737 68.6159 83.9263 69.1788 83.1819 70.1779C82.3861 71.1784 81.1841 71.4495 79.8135 71.6593C78.3621 71.8894 77.5561 71.9871 76.0626 72.2195C73.9635 72.5222 72.5877 72.7617 70.5356 72.9215C67.6584 73.1103 64.7743 73.1768 61.8959 73.3487C59.0872 73.4789 56.2764 73.553 53.4682 73.6959C51.1504 73.8179 48.8312 73.7212 46.5137 73.6447C44.1441 73.5781 41.7716 73.6096 39.4026 73.6842C37.3068 73.7596 35.2439 73.8332 33.6255 73.3811C32.8041 73.2138 32.036 72.8535 31.387 72.3309C30.8673 72.0083 30.6381 70.3991 30.5457 69.6852C30.1593 66.9459 29.9202 64.1884 29.8293 61.4242C29.7046 57.655 29.7045 53.883 29.6083 50.1132C29.565 47.6014 29.307 45.0882 29.4562 42.5765C29.8248 38.7074 30.825 38.8174 34.6006 38.4501C35.0048 38.5562 35.4051 38.6768 35.804 38.8004C37.8935 39.5428 40.0561 40.0688 42.2566 40.3698C43.6701 40.5728 45.0965 40.7444 46.5276 40.6959C49.8307 40.5576 53.0939 39.8701 56.4096 39.8993C56.4613 39.8981 56.5131 39.897 56.5649 39.8958C56.5347 41.3849 56.6305 43.0004 57.7065 44.1185C58.1091 44.5476 58.7749 44.4037 58.9165 43.8266C59.0286 43.2294 58.8543 42.623 58.6792 42.0536C58.4132 41.2909 58.0631 40.5592 57.6353 39.8714C59.7648 39.8239 61.8949 39.7819 64.0227 39.6868C66.2709 39.5673 68.5134 39.3303 70.7673 39.3334C74.8428 39.3648 79.2123 39.9407 82.3239 40.9003C83.0333 41.1845 83.6477 41.4055 84.0912 41.823C84.2434 42.0169 84.1805 41.8723 84.4022 42.5757C85.2691 45.9343 85.465 48.9708 85.6456 52.3931C84.9672 52.3554 84.2883 52.3273 83.609 52.3089C81.2461 52.2456 78.8848 52.3704 76.5266 52.5045C75.079 52.5771 73.6291 52.6172 72.185 52.746C68.2324 53.1216 64.2934 53.6352 60.3302 53.9032C56.1707 54.2897 51.987 53.9956 47.8269 54.3687C43.6571 54.6332 39.0605 55.1733 35.2761 55.7084C33.9726 55.8874 31.5314 56.058 29.8882 56.4042C31.5301 56.3259 33.1688 56.4471 34.8104 56.4495C37.7943 56.4184 40.7779 56.282 43.7567 56.1124C46.2868 55.9615 48.8121 55.7207 51.3458 55.6351C53.4692 55.554 55.596 55.6556 57.7177 55.5222C64.0643 55.1756 70.3652 54.305 76.6746 53.5797C79.6166 53.155 82.0814 52.7381 84.958 52.521C85.1885 52.5018 85.4189 52.4824 85.6493 52.4629C85.6837 53.1161 85.7177 53.7819 85.7559 54.4685C85.874 56.7095 85.5405 58.9407 85.4114 61.1747Z" fill="#333333"/>
<path d="M80.1759 53.2802C80.1342 52.9545 80.1227 53.5076 80.0933 53.6284C79.9499 54.3997 79.8044 55.2357 79.3997 55.8163C79.3618 55.8663 79.3179 55.9117 79.2689 55.9513C79.2389 55.9563 79.229 55.963 79.2392 55.9712C79.2618 55.9825 79.1959 55.9846 79.2116 55.9809C79.2204 55.9876 79.2125 55.9858 79.1878 55.9754C79.1814 55.9728 79.1775 55.9709 79.173 55.9688C78.9192 55.8016 78.7777 55.5453 78.6305 55.3174C78.3403 54.8244 78.0673 54.3215 77.7637 53.8363C77.8895 54.3964 78.049 54.9486 78.2414 55.4901C78.3823 55.8325 78.5437 56.1969 78.8601 56.417C79.6207 56.8723 80.1182 55.814 80.192 55.2059C80.3005 54.568 80.2951 53.9163 80.1759 53.2802Z" fill="#333333"/>
<path d="M45.1226 67.2455C45.0817 65.8019 44.9745 64.3361 44.5941 62.9373C44.0334 61.0383 40.4231 62.0173 38.9164 62.0691C38.8107 62.0799 38.705 62.0923 38.5994 62.1036C39.5216 62.1854 40.4454 62.2461 41.3688 62.3126C42.2067 62.4002 42.988 62.4385 43.5536 62.907C43.568 62.9236 43.5747 62.9309 43.5761 62.9318C43.602 62.9986 43.6234 63.0669 43.6402 63.1365C43.8316 64.3106 43.7619 66.6691 43.6046 68.31C43.5861 68.4372 43.5862 68.4626 43.5932 68.4266C43.5822 68.5063 43.5714 68.5861 43.5605 68.6659C43.5642 68.6267 43.568 68.5946 43.5715 68.5682C43.568 68.5873 43.5637 68.6102 43.5582 68.6384C43.5107 68.8639 43.4458 69.0854 43.3639 69.3011C43.347 69.3375 43.3281 69.3729 43.3084 69.4079C43.2098 69.4158 43.1109 69.4217 43.0121 69.4263C40.3646 69.4939 38.6825 69.5466 36.7346 68.1445C36.2452 67.6995 36.2081 67.7118 35.9404 67.1848L35.9391 67.1811C35.6709 66.3627 35.5222 65.2617 35.4405 64.712C35.3924 64.3188 35.3644 63.9236 35.3567 63.5277C35.3421 63.2071 35.3746 62.846 35.6267 62.6144C36.1504 62.4078 36.7392 62.3852 37.2871 62.2534C36.8119 62.2546 36.3365 62.2468 35.8615 62.2595C35.491 62.2379 35.1996 62.4741 35.0313 62.7821C34.7682 63.3116 34.7786 63.9298 34.7233 64.5062C34.68 65.4282 34.7204 66.3522 34.844 67.2672C34.9977 68.2123 35.6809 68.9826 36.4383 69.5405C37.4504 70.3542 38.7286 70.7807 40.013 70.9467C40.9791 71.0805 41.9569 71.1129 42.93 71.0434C43.6601 71.0406 44.4325 70.8328 44.7375 70.1102C45.1621 69.2182 45.1391 68.2091 45.1226 67.2455Z" fill="#333333"/>
<path d="M43.5715 68.5682C43.5882 68.474 43.5818 68.4888 43.5715 68.5682V68.5682Z" fill="#333333"/>
</g>
<defs>
<clipPath id="clip0_32_47">
<rect width="59" height="48" fill="white" transform="translate(28 27)"/>
</clipPath>
</defs>
</svg>
