<svg width="112" height="112" viewBox="0 0 112 112" fill="none" xmlns="http://www.w3.org/2000/svg">
<rect width="112" height="112" rx="16" fill="#F5F8F9"/>
<g clip-path="url(#clip0_32_45)">
<path d="M23.3368 42.7582C23.3565 41.7004 21.6501 41.3373 21.0028 42.1738C20.3555 43.0103 20.7247 44.3059 21.5132 45.0106C22.3018 45.7153 23.3785 45.9788 24.4082 46.2186C25.743 46.5295 27.115 45.0041 26.666 43.7084C26.2171 42.4127 24.1959 42.0647 23.3368 42.7582Z" fill="#A5DBE2"/>
<path d="M30.2288 43.3921C29.5492 44.3281 29.1797 45.4536 29.1723 46.6105C29.1648 47.7674 29.5197 48.8976 30.1871 49.8423C30.8546 50.787 31.801 51.4987 32.8935 51.8774C33.9859 52.2562 35.1695 52.283 36.2779 51.954C38.9531 51.1599 42.0963 52.4527 43.4402 54.8998C46.499 60.4693 52.8417 64.062 59.188 63.82C65.5343 63.5779 71.5852 59.5123 74.2113 53.726C71.8078 55.5944 69.3171 57.5071 66.3751 58.2875C63.433 59.0678 59.8935 58.4282 58.1107 55.9597C54.5977 51.0953 48.0056 48.6894 42.188 50.1483C37.5773 51.3046 32.3269 48.2374 30.2288 43.3921Z" fill="#A5DBE2"/>
<path d="M96.6987 50.3798C96.5162 50.0315 96.3386 49.6805 96.1584 49.3309C95.4114 47.8651 94.5761 46.4473 93.7754 45.0106C91.71 41.2663 89.531 37.5788 87.6756 33.723C87.3051 32.9591 86.9755 32.176 86.6883 31.377C86.4902 30.9226 86.3463 30.3935 85.9056 30.1145C85.7166 30.0076 85.4951 29.9733 85.2827 30.0182C85.0702 30.063 84.8814 30.1838 84.7516 30.3579C84.4689 30.7584 84.423 31.2777 84.2577 31.7318C84.1037 32.2285 83.931 32.7194 83.7352 33.2012C82.4379 36.2239 80.4205 37.7834 77.4022 39.2678C74.4408 40.7083 71.6639 40.919 67.7907 40.7441C64.7305 40.6119 61.6864 40.2407 58.6302 40.0535C56.6765 40.0221 54.7289 40.2814 52.8514 40.823C51.5797 41.1904 50.3376 41.6536 49.1357 42.2084C47.82 42.7995 46.5277 43.5867 45.768 44.8529C45.5909 45.1285 45.4321 45.4154 45.2927 45.7118C44.7934 44.4948 44.1737 43.3087 43.1583 42.46C41.4041 41.0636 39.3921 40.0268 37.2373 39.4087C35.9031 39.0633 34.535 38.8652 33.1577 38.8181C30.8986 38.6896 28.3896 39.3842 26.9469 41.1814C25.1539 41.1829 23.3612 41.179 21.5694 41.0934C20.4253 41.03 19.2784 41.0357 18.135 41.1105C17.7278 41.116 17.3231 41.1742 16.9309 41.2839C16.6149 41.371 16.3454 41.5779 16.1794 41.8607C16.0135 42.1435 15.9643 42.4799 16.0422 42.7984C16.2736 43.5035 16.8559 43.9954 17.4325 44.4233C18.0361 44.8927 18.6796 45.3085 19.3555 45.6659C21.7327 46.9228 24.2566 47.8717 26.769 48.82C27.3969 50.0323 28.2543 51.111 29.2935 51.996C30.4158 52.9365 31.736 53.5871 33.0693 54.1709C34.5771 54.836 36.1137 55.4341 37.6534 56.0208C38.4109 57.926 39.3242 59.8193 40.8352 61.2238C42.003 62.2338 43.3773 62.9578 44.7436 63.6592C46.7369 64.6685 48.8319 65.4628 50.9931 66.0288C51.1872 67.2869 51.3579 68.2559 51.3309 69.6901C51.3023 72.0276 50.8243 74.4639 51.201 77.1609C51.3154 78.2581 51.6137 79.3281 52.0835 80.3261C51.6353 81.0737 51.2473 81.8557 50.9231 82.6649C50.3303 84.0868 49.8113 85.5388 49.3243 86.9999C50.3388 85.5437 51.2876 84.0437 52.2477 82.5515C52.4759 82.2148 52.6715 81.9183 52.853 81.6525C54.2244 83.6051 56.3535 84.916 58.9906 84.8465C59.9103 84.8284 60.8258 84.7152 61.7223 84.5089C61.8393 84.4827 61.956 84.4549 62.0724 84.4268C61.9978 84.4247 61.9232 84.4224 61.8486 84.4199C60.3898 84.3558 59.2772 84.2606 57.8837 83.8217C56.1373 83.2143 54.9223 82.1053 53.8884 80.3856C54.1146 80.1792 54.3605 79.9956 54.6226 79.8375C55.4313 79.367 55.435 79.3336 56.3729 79.1536C56.4019 79.1502 56.4345 79.1465 56.4681 79.1428C57.5337 79.0822 58.6026 79.1389 59.6558 79.3118C60.7621 79.4979 61.9643 79.7303 62.9534 80.1667C63.0686 80.2166 63.1832 80.2677 63.2973 80.3201C63.0413 80.0953 62.773 79.885 62.4935 79.6902C61.9054 79.3014 61.2796 78.9731 60.6255 78.7104C59.7212 78.3171 58.774 78.0312 57.8032 77.8585C57.0678 77.7102 56.312 77.6928 55.5706 77.807C54.9216 77.9324 54.305 78.1891 53.7586 78.5613C53.5655 78.6933 53.3739 78.8302 53.1934 78.9794C52.9841 78.3246 52.8304 77.6533 52.734 76.9726C52.4822 75.0601 52.7066 71.2721 52.1161 68.8727C51.8813 67.9191 51.5723 66.9854 51.192 66.08C51.469 66.1508 51.7467 66.2193 52.0256 66.2826C53.4101 66.5791 54.8177 66.7596 56.2228 66.927C57.6166 67.0727 59.0273 67.1748 60.4242 67.0142C62.2748 66.763 64.0919 66.3073 65.8421 65.6555C66.2846 67.4201 66.8007 69.1828 67.7405 70.7498C68.1281 71.3472 68.5537 71.9189 69.0148 72.4615C68.9246 72.6414 68.844 72.826 68.7736 73.0146C68.2178 74.4397 68.4288 76.007 68.4526 77.5006C68.5546 79.6869 68.7206 81.8703 68.9231 84.0494C69.3063 81.7822 69.5711 79.4966 69.7165 77.2019C69.8476 75.6896 69.7483 74.834 70.1336 73.6909C70.7853 74.3603 71.4706 74.9983 72.1608 75.6207C72.4069 75.8369 72.6546 76.0513 72.9039 76.264C72.6912 75.893 72.4708 75.5266 72.2476 75.1618C71.8329 74.4627 71.3934 73.78 70.9422 73.105C71.0097 73.1111 71.0757 73.118 71.1201 73.1226C71.1571 73.1285 71.1941 73.1344 71.231 73.1403C73.4374 73.5377 75.5729 74.2532 77.7854 74.6275C77.9627 74.6646 78.1399 74.7019 78.3172 74.7393C78.1058 74.6306 77.894 74.5227 77.6805 74.4183C76.1373 73.7143 74.6263 72.9347 73.049 72.3082C72.0756 71.9569 71.031 71.5163 69.9831 71.6995C69.4705 70.9599 68.9532 70.2235 68.4467 69.4799C67.6145 68.2045 66.8922 66.8619 66.1057 65.5583C67.1548 65.1644 68.1831 64.7142 69.187 64.2228C70.5315 63.5539 71.8959 62.9027 73.127 62.0353C76.0187 60.011 78.3494 57.2653 80.0553 54.1852C80.5737 53.266 81.0302 52.3133 81.4218 51.3333C81.834 50.3423 82.1963 49.4304 82.9446 49.0242C82.9664 49.019 82.9928 49.013 83.028 49.0062C83.0377 49.0042 83.0477 49.0034 83.0575 49.0015C83.4479 48.9716 83.8406 48.9918 84.2258 49.0619C85.8543 49.3244 87.4922 49.5718 89.0763 50.0428C91.3369 50.7213 93.5005 51.7642 95.8371 52.1658C95.9915 52.1902 96.1493 52.1804 96.2994 52.1372C96.4496 52.0939 96.5884 52.0181 96.7061 51.9153C96.8018 51.8277 96.8776 51.7206 96.9284 51.6012C96.9793 51.4818 97.0039 51.3528 97.0007 51.223C96.961 50.9237 96.8581 50.6363 96.6987 50.3798ZM26.4522 41.9164C25.9244 42.8624 25.8094 43.9753 25.8017 45.0419C25.8285 45.9792 26 46.9068 26.3101 47.7916C24.7249 46.8034 23.0932 45.8887 21.4484 45.0051C20.3814 44.4414 19.2957 43.8956 18.3376 43.1554C18.0613 42.9269 17.9099 42.8135 17.8022 42.7082C19.0198 42.5849 21.6914 42.4927 23.3148 42.2674C24.4213 42.13 25.519 41.9286 26.6023 41.664C26.5504 41.7464 26.4999 41.8301 26.4522 41.9164ZM89.5824 48.5596C87.9594 48.0655 86.2766 47.8142 84.6052 47.5453C83.7962 47.4245 82.9061 47.2843 82.1453 47.6686C81.4176 48.132 80.84 48.7969 80.4829 49.5826C80.2461 50.0835 80.0436 50.5995 79.8305 51.1108C79.1609 52.6431 78.3508 54.11 77.4106 55.4927C76.2341 57.3123 73.9517 59.5911 72.246 60.745C70.6361 61.8298 68.8652 62.6566 67.1074 63.47C65.5032 64.2373 61.7288 65.4067 59.8927 65.495C58.0509 65.6086 56.1186 65.3612 54.8616 65.1869C50.4954 64.5765 47.1317 63.3067 43.5308 61.2168C42.2236 60.421 41.7199 60.0555 40.6705 58.8172C39.7488 57.7367 38.5443 55.811 37.5247 54.157C37.1533 53.5379 36.7901 52.9139 36.4271 52.2898C36.6739 53.2133 36.9403 54.133 37.2703 55.0306C37.3817 55.3253 37.4957 55.6211 37.6123 55.918C36.1441 54.8588 34.6299 53.8659 33.1081 52.886C31.0294 51.5643 29.5253 50.4107 28.3538 48.4699C27.3662 46.8803 27.1886 44.9015 27.5162 43.3052C27.7612 42.4025 28.3313 41.6223 29.1166 41.1149C30.6415 40.1574 32.1276 40.0366 34.307 40.2516C36.3634 40.4062 38.6362 41.1653 40.7252 42.4961C41.4235 42.9178 42.0539 43.4432 42.5946 44.0544C42.6378 44.1014 42.6787 44.1505 42.719 44.2C43.1562 44.8116 43.5233 45.4704 43.8134 46.1641C43.8926 46.3546 43.9689 46.5464 44.0422 46.7393C44.1615 47.0545 44.2737 47.3724 44.3761 47.6935C44.4113 47.8556 44.4955 48.0029 44.6173 48.1154C44.739 48.2279 44.8924 48.3003 45.0567 48.3225C46.0332 48.417 46.2462 47.1466 46.64 46.4919C47.3402 45.1785 47.5262 44.9391 48.5834 44.2607C51.1979 42.7928 54.0956 41.9009 57.0825 41.6448C58.6087 41.5342 60.1305 41.7342 61.6502 41.8519C64.4109 42.0844 67.1738 42.3626 69.9471 42.3543C71.8573 42.3606 73.789 42.1975 75.6216 41.6326C78.4027 40.7438 81.0647 39.29 83.0821 37.1525C84.2435 35.8946 84.9941 34.3727 85.5575 32.7783C85.5774 32.8276 85.5984 32.8788 85.621 32.9327C87.2093 36.6697 89.3101 40.161 91.2578 43.7163C92.3942 45.7846 93.5996 47.8152 94.6946 49.906C94.7705 50.0566 94.8481 50.2064 94.926 50.356C93.1139 49.8549 91.3768 49.1183 89.5824 48.5596Z" fill="#333333"/>
<path d="M72.3253 43.6437C70.9732 44.274 69.7212 45.1075 68.4063 45.8122C66.6672 46.7708 64.8975 47.6728 63.1373 48.5918C62.0885 49.1494 61.0009 49.6423 59.9864 50.261C59.8984 50.3212 59.8194 50.3817 59.7445 50.4424C59.5131 50.0104 59.277 49.5826 59.0363 49.1643C59.1861 49.673 59.3291 50.1835 59.4699 50.6946C58.8583 51.3489 58.9195 52.065 59.3461 53.0436C59.7183 53.9596 60.0886 54.8765 60.4685 55.7894C60.6716 56.2769 60.8785 56.7634 61.1206 57.2331C61.1721 57.3326 61.2228 57.4354 61.2792 57.5342C61.2683 57.5412 61.2575 57.5483 61.2466 57.5552C61.2591 57.5513 61.2717 57.5473 61.2843 57.5434C61.3752 57.7202 61.5108 57.8701 61.6776 57.978C61.8138 58.0531 61.9697 58.0849 62.1245 58.0691C62.2792 58.0533 62.4255 57.9907 62.5437 57.8896C62.662 57.7885 62.7467 57.6538 62.7864 57.5033C62.8262 57.3528 62.8192 57.1938 62.7664 57.0474C62.7613 57.0342 62.7559 57.0204 62.7508 57.0072C63.4768 56.6993 64.1801 56.3404 64.8556 55.9333C66.3743 54.9107 67.7613 53.7047 68.9852 52.3426C70.1168 51.0396 71.1146 49.626 71.9635 48.1232C72.519 47.069 73.1299 46.0147 73.4582 44.864C73.6417 44.1262 73.1157 43.4292 72.3253 43.6437ZM65.6156 53.8916C64.7141 54.9103 63.704 55.8276 62.6035 56.627C62.113 55.3772 61.5025 53.9718 60.8154 52.549C60.725 52.3011 60.6428 52.0505 60.5725 51.7962C60.627 51.7389 60.7043 51.6703 60.7611 51.6213C61.4845 51.1505 62.2811 50.7976 63.0421 50.3916C64.9882 49.3897 66.9339 48.3859 68.8599 47.3456C69.6976 46.8918 70.5184 46.4069 71.3463 45.9351C69.7648 49.1538 67.9843 51.2578 65.6156 53.8916Z" fill="#333333"/>
<path d="M33.9901 46.693C34.7795 46.693 35.4196 46.0526 35.4196 45.2625C35.4196 44.4725 34.7795 43.8321 33.9901 43.8321C33.2006 43.8321 32.5606 44.4725 32.5606 45.2625C32.5606 46.0526 33.2006 46.693 33.9901 46.693Z" fill="#333333"/>
</g>
<defs>
<clipPath id="clip0_32_45">
<rect width="81" height="57" fill="white" transform="translate(16 30)"/>
</clipPath>
</defs>
</svg>
