<svg width="296" height="494" viewBox="0 0 296 494" fill="none" xmlns="http://www.w3.org/2000/svg">
<g clip-path="url(#clip0_52_199)">
<path d="M80.7139 320.021L66.642 307.699C51.9989 342.485 37.3558 377.271 22.7127 412.057C59.4273 396.845 82.7533 354.577 80.7139 320.021Z" fill="#A5DBE2"/>
<path d="M101.079 311.947C91.6356 333.281 102.789 361.316 124.311 370.343C145.833 379.371 173.663 367.687 182.28 346.006C186.342 335.786 201.789 334.338 210.172 341.46C218.555 348.583 220.768 360.773 219.638 371.712C218.508 382.651 214.637 393.136 213.057 404.019C211.477 414.902 212.611 427.045 220.052 435.146C226.952 419.927 230.703 403.471 231.079 386.766C231.455 370.062 228.449 353.454 222.24 337.94C217.644 326.639 202.207 321.384 191.666 327.533C163.094 344.197 122.942 337.167 101.079 311.947Z" fill="#A5DBE2"/>
<path d="M125.669 136.235C120.853 136.354 120.866 143.406 125.67 143.539C130.486 143.419 130.473 136.367 125.669 136.235Z" fill="#333333"/>
<path d="M200.128 135.156C195.312 135.276 195.324 142.328 200.128 142.46C204.944 142.341 204.932 135.289 200.128 135.156Z" fill="#333333"/>
<path d="M149.503 94.6725C148.135 91.4958 146.106 88.6463 143.552 86.3135C140.998 83.9808 137.976 82.218 134.687 81.1425C129.539 79.7734 123.845 79.6461 118.821 81.5626C111.153 84.5412 106.38 91.7799 102.418 98.6163C107.588 92.6004 113.213 86.6122 119.64 84.6309C122.928 83.6631 124.242 83.6363 127.758 83.607C132.485 83.4472 137.146 84.7482 141.106 87.3327C144.437 89.378 147.307 92.091 149.537 95.3006C149.745 95.5717 149.943 95.8505 150.145 96.1251C149.939 95.6375 149.726 95.1527 149.503 94.6725Z" fill="#333333"/>
<path d="M236.782 93.0625C236.337 89.8827 235.277 86.8199 233.66 84.0454C230.426 78.0428 223.626 75.273 217.084 74.9354C211.224 74.3547 205.314 75.2891 199.92 77.6489C194.946 79.4878 191.017 83.2224 187.728 87.2756C184.534 91.3728 181.95 95.9101 180.056 100.747C185.134 93.2024 190.724 86.6749 198.422 82.6529C201.853 81.1832 205.447 80.1298 209.129 79.5153C214.678 79.0227 225.1 78.2744 230.598 84.2888C233.474 87.2546 235.262 90.8636 236.756 95.1142C237.735 98.3144 236.922 94.2106 236.782 93.0625Z" fill="#333333"/>
<path d="M149.715 22.5582C145.754 15.1952 140.231 3.63372 132.077 0.594703C120.464 -2.5795 109.136 7.56126 103.165 16.5821C95.752 28.5554 90.4775 41.7012 84.515 54.4243C78.436 68.1954 71.7391 81.6867 65.4124 95.346C59.6499 107.93 52.8531 120.032 47.4945 132.798C42.8329 144.796 42.0408 155.299 46.4724 167.537C48.2966 172.936 50.8074 178.064 53.0993 183.273C56.6868 191.853 60.7644 200.386 67.0019 207.389C71.6019 212.014 76.837 216.365 82.9478 218.8C80.0244 217.009 77.3657 214.818 75.0489 212.291C72.4937 209.768 70.2191 206.977 68.2651 203.965C62.8859 195.151 60.9435 188.108 57.3529 178.383C52.5074 166.424 48.4333 154.969 50.6002 145.882C53.209 132.771 59.2716 123.457 65.31 110.454C70.2779 100.274 74.9917 89.9721 79.729 79.6836C83.211 72.2829 86.8139 64.9382 89.9416 57.377C96.089 44.1128 103.163 25.8872 110.503 16.4044C117.059 8.99325 123.977 4.62479 130.477 6.39569C132.728 7.0524 136.958 11.7241 139.881 16.0618C150.816 31.2704 154.915 41.0361 155.699 59.6642C157.118 46.5184 156.012 34.4155 149.715 22.5582Z" fill="#333333"/>
<path d="M254.539 30.0681C261.279 37.4265 269.587 51.9204 272.813 60.7568C274.7 66.7325 276.066 72.8492 277.43 78.9613C277.645 79.9242 277.86 80.887 278.077 81.8491C278.59 84.1261 279.119 86.3998 279.648 88.6735C280.764 93.4759 281.881 98.2783 282.849 103.113C285.819 118.607 287.738 129.714 288.686 144.902M254.539 30.0681L254.913 29.7362C254.912 29.7352 254.911 29.7342 254.911 29.7332M254.539 30.0681L254.908 29.7303C254.909 29.7313 254.91 29.7322 254.911 29.7332M254.539 30.0681C248.788 23.5848 244.328 20.9146 236.371 18.6202C230.176 16.7552 224.527 17.1297 216.605 17.7724L288.686 144.902M254.911 29.7332C261.7 37.1476 270.038 51.6979 273.283 60.5853L273.286 60.5957L273.29 60.6063C275.184 66.6042 276.555 72.7442 277.919 78.8549C278.134 79.8173 278.348 80.7789 278.565 81.7391L278.565 81.7393C279.076 84.0089 279.604 86.2787 280.132 88.5505C281.25 93.3571 282.37 98.1726 283.339 103.014L283.34 103.019C286.311 118.517 288.235 129.648 289.185 144.866M254.911 29.7332C252.015 26.4703 249.427 24.1465 246.547 22.3491C243.666 20.5517 240.515 19.295 236.513 18.1406C230.215 16.2455 224.476 16.6323 216.565 17.274L216.555 17.2748L216.545 17.276C204.972 18.679 193.482 20.7017 182.125 23.3354C176.842 24.5055 171.698 26.2351 166.781 28.4949L166.772 28.4991L166.763 28.5036C164.681 29.5622 162.776 30.7806 160.952 32.0936C162.3 30.8382 163.703 29.6412 165.156 28.5064C171.332 24.1313 178.537 21.4919 185.76 19.1461C197.269 15.6014 209.104 12.8221 221.091 11.7546L221.091 11.7546L221.096 11.754C235.396 10.3237 250.45 15.2274 259.739 26.4139L259.741 26.4161C267.062 35.1333 273.101 44.8491 277.678 55.2702C280.231 61.5154 281.675 68.1097 283.126 74.7341C283.551 76.674 283.976 78.6166 284.43 80.5537L284.431 80.5554C287.745 94.4774 290.551 108.511 292.564 122.676L292.565 122.678C294.17 133.642 295.142 144.69 295.477 155.766C295.592 164.499 294.716 173.217 292.865 181.753C288.596 201.439 278.821 219.589 259.232 227.058L259.222 227.062C248.177 231.554 236.418 234 224.518 234.291C232.575 232.736 242.307 229.403 247.845 227.118C251.161 225.75 255.102 223.824 258.623 221.878C262.129 219.94 265.259 217.962 266.941 216.482C282.064 204.073 287.497 184.393 289.383 166.26L289.384 166.25L289.385 166.24C289.837 159.12 289.771 151.976 289.185 144.866M289.185 144.866C289.185 144.865 289.185 144.863 289.184 144.861L288.686 144.902M289.185 144.866C289.185 144.868 289.185 144.87 289.185 144.871L288.686 144.902M218.895 234.795C219.542 234.806 220.19 234.811 220.838 234.812L218.895 234.795Z" fill="#333333" stroke="#333333"/>
<path d="M181.066 210.049C181.599 209.902 182.123 209.726 182.637 209.523C189.32 206.825 195.006 202.13 198.918 196.08C200.061 194.299 200.979 192.384 201.652 190.378C201.385 190.763 200.96 191.315 200.744 191.592C198.591 194.242 196.137 196.633 193.432 198.716C189.489 201.591 182.157 206.723 176.069 207.6C170.601 208.297 165.061 208.189 159.625 207.278C163.465 208.793 167.361 210.211 171.514 210.505C174.631 210.962 177.806 210.824 180.871 210.099" fill="#333333"/>
<path d="M153.714 173.006C155.211 169.372 157.712 166.239 160.925 163.972C158.139 164.951 155.654 166.633 153.71 168.853C151.766 171.074 150.429 173.759 149.828 176.649C149.125 180.879 150.992 185.822 155.179 187.472C156.084 187.856 157.016 188.172 157.967 188.416C157.117 187.884 156.285 187.319 155.489 186.709C150.778 183.283 151.838 176.534 153.714 173.006Z" fill="#333333"/>
<mask id="path-11-inside-1_52_199" fill="white">
<path d="M247.368 431.351C247.725 428.539 248.06 425.724 248.344 422.902C249.884 406.853 251.694 390.731 251.039 374.587C250.367 364.723 248.668 354.956 245.97 345.445C241.462 330.694 231.424 316.851 216.548 311.413C211.467 309.132 206.004 307.822 200.441 307.55C196.814 307.446 193.183 307.601 189.577 308.015C187.993 302.535 182.577 297.97 178.005 294.869C176.381 293.716 174.633 292.747 172.795 291.98C172.97 292.1 173.146 292.221 173.322 292.343C179.429 297.225 187.98 306.408 185.291 313.065C182.608 318.298 172.235 316.584 162.898 317.391C157.531 317.695 152.164 318.116 146.785 318.114C140.216 318.034 133.659 317.533 127.155 316.615C120.236 315.612 113.273 314.746 106.566 312.698C101.503 311.121 96.7957 309.351 93.5572 305.155C92.7446 304.239 92.2621 303.078 92.1866 301.857C92.0461 300.086 92.3407 298.549 93.4845 297.735C95.4826 296.268 98.0904 296.189 100.506 296.344C103.203 296.511 105.895 296.75 108.588 296.969C108.545 298.104 108.508 299.238 108.478 300.372C108.483 300.598 108.394 301.295 108.521 300.834C108.933 299.582 109.318 298.322 109.696 297.06C109.865 297.073 110.034 297.088 110.203 297.101C110.043 297.057 109.884 297.013 109.724 296.969C109.786 296.761 109.856 296.556 109.918 296.348C111.68 290.325 113.093 284.206 114.152 278.02C115.572 269.613 115.992 261.084 116.486 252.578C121.006 255.233 125.87 257.253 130.941 258.582C140.401 261.009 150.165 262.042 159.924 261.651C164.85 261.644 169.77 261.289 174.646 260.589C172.218 271.87 170.638 285.147 171.555 294.816C174.877 283.664 176.314 272.035 175.806 260.41C182.275 259.432 188.551 257.443 194.402 254.515C206.455 248.352 216.047 238.345 224.627 228.061C231.674 218.815 238.47 209.227 243.505 198.718C245.41 194.638 246.925 190.386 248.029 186.02C248.793 181.727 248.997 177.353 248.637 173.007C248.529 171.383 248.483 174.273 248.379 174.817C247.548 180.709 246.286 186.137 243.584 190.932C239.589 199.454 230.493 210.911 227.477 214.81C219.87 224.73 211.697 234.319 202.093 242.374C200.305 243.76 198.484 245.097 196.58 246.323C193.645 248.162 190.576 249.779 187.398 251.158C184.285 252.288 181.097 253.202 177.858 253.894C172.219 255.246 167.201 255.509 159.924 255.627C151.294 255.778 144.586 255.385 137.723 253.971C134.216 253.257 130.759 252.319 127.372 251.163C123.673 249.652 120.117 247.811 116.748 245.663C115.966 245.175 115.213 244.641 114.494 244.064C106.442 237.203 99.8312 229.978 95.0845 222.469C86.5311 209.885 81.8642 197.103 80.9048 182.77C80.4667 178.59 80.2481 174.39 80.2498 170.187C80.4197 166.467 81.294 162.989 82.0187 159.175C80.8328 162.702 79.4972 166.207 78.8585 169.885C78.2196 175.162 77.9479 180.476 78.0454 185.789C77.8866 201.475 83.6638 216.63 92.6811 229.314C98.0433 236.843 104.417 243.598 111.622 249.39C112.891 250.322 114.209 251.193 115.556 252.018C111.125 266.474 109.196 281.568 108.601 296.659C106.012 295.944 103.422 295.229 100.808 294.613C97.8995 293.889 94.6831 293.658 91.9711 295.147C91.0951 295.641 90.3441 296.328 89.776 297.158C89.2079 297.987 88.8379 298.935 88.6945 299.93C76.1182 295.413 61.3735 292.43 50.028 301.336C41.814 307.678 36.3425 316.935 32.2334 326.315C27.491 337.156 23.4005 348.271 19.9836 359.6C15.9474 374.42 12.2774 389.341 8.4448 404.216C3.3841 424.954 1.01488 446.305 0.425474 467.621C0.306608 470.379 0.172577 473.136 -6.10352e-05 475.891C0.196181 475.128 0.389594 474.364 0.580195 473.6C2.17024 466.183 3.80087 458.776 5.47208 451.377C16.6278 455.267 28.2473 457.559 39.494 461.118C42.9541 462.351 46.3443 463.772 49.6493 465.374C48.8121 472.842 48.0642 480.321 47.1345 487.779C47.0821 488.663 46.7431 490.456 47.2984 488.498C49.7113 481.528 51.695 474.435 53.4453 467.281C54.1859 467.667 54.943 468.068 55.7251 468.489C56.7296 469.031 57.721 469.597 58.7101 470.166C58.0966 469.588 57.4754 469.018 56.8466 468.456C55.852 467.579 54.8269 466.731 53.7872 465.899C54.902 461.257 55.9214 456.591 56.893 451.916C58.9509 442.268 60.3291 432.514 61.5164 422.73C62.4448 422.899 63.37 423.085 64.3009 423.244C65.5798 423.476 66.8579 423.714 68.135 423.957C67.3507 423.613 66.5658 423.27 65.7776 422.935C64.4262 422.329 63.0668 421.753 61.7038 421.192C62.9392 410.841 63.9873 400.461 65.4206 390.142C62.1953 399.772 59.5125 409.563 57.2579 419.456C43.6503 414.283 29.1822 411.745 14.6255 411.978C18.514 395.786 22.5264 379.625 26.6625 363.494C32.2314 344.813 41.2933 317.302 53.6242 305.995C61.9308 298.018 75.0873 298.003 88.6229 300.283C88.4753 301.116 88.4064 301.961 88.4173 302.806C88.9187 308.272 93.4192 312.432 97.9237 315.05C106.807 320.198 117.13 321.791 127.148 323.24C134.657 324.36 142.243 324.879 149.835 324.793C157.641 324.613 165.382 323.48 173.142 322.7C179.128 322.039 186.812 321.191 189.395 314.838C190.141 312.744 190.233 310.472 189.657 308.324C195.513 308.787 200.751 309.165 206.372 311.277C210.734 312.594 219.401 318.112 220.905 319.264C224.021 321.502 228.416 326.686 229.032 327.628C236.252 337.884 239.032 345.919 241.36 358.664C243.063 366.766 243.797 375.041 243.547 383.316C243.317 398.738 241.391 414.03 239.693 429.34C234.107 428.01 228.354 426.899 223.247 426.101C212.356 424.64 203.049 423.916 190.751 420.879C205.876 428.479 222.57 431.162 239.299 432.942C238.745 438.085 238.233 443.231 237.837 448.386C237.319 454.021 237.098 459.664 237.049 465.31C222.877 461.856 208.041 461.973 193.538 462.657C202.313 464.489 211.206 465.702 220.152 466.286C225.781 466.604 231.415 466.42 237.048 466.41C237.009 474.863 237.341 483.322 237.685 491.77C237.706 492.513 237.722 493.257 237.733 494C237.804 493.649 237.879 493.298 237.949 492.947C239.505 484.87 240.536 476.706 241.747 468.574C243.499 456.955 245.522 445.37 247.067 433.721C250.405 434.04 253.734 434.348 257.043 434.677C253.883 433.387 250.653 432.277 247.368 431.351ZM56.7399 421.825C54.8174 430.539 53.195 439.314 51.8727 448.149C51.1123 453.085 50.4875 458.038 49.9161 462.997C45.9977 460.222 41.6941 458.035 37.142 456.505C26.8514 453.573 16.077 452.759 5.51207 451.2C8.41183 438.293 11.4044 425.407 14.4899 412.542C28.6666 415.192 42.6021 418.983 56.7399 421.825H56.7399Z"/>
</mask>
<path d="M247.368 431.351C247.725 428.539 248.06 425.724 248.344 422.902C249.884 406.853 251.694 390.731 251.039 374.587C250.367 364.723 248.668 354.956 245.97 345.445C241.462 330.694 231.424 316.851 216.548 311.413C211.467 309.132 206.004 307.822 200.441 307.55C196.814 307.446 193.183 307.601 189.577 308.015C187.993 302.535 182.577 297.97 178.005 294.869C176.381 293.716 174.633 292.747 172.795 291.98C172.97 292.1 173.146 292.221 173.322 292.343C179.429 297.225 187.98 306.408 185.291 313.065C182.608 318.298 172.235 316.584 162.898 317.391C157.531 317.695 152.164 318.116 146.785 318.114C140.216 318.034 133.659 317.533 127.155 316.615C120.236 315.612 113.273 314.746 106.566 312.698C101.503 311.121 96.7957 309.351 93.5572 305.155C92.7446 304.239 92.2621 303.078 92.1866 301.857C92.0461 300.086 92.3407 298.549 93.4845 297.735C95.4826 296.268 98.0904 296.189 100.506 296.344C103.203 296.511 105.895 296.75 108.588 296.969C108.545 298.104 108.508 299.238 108.478 300.372C108.483 300.598 108.394 301.295 108.521 300.834C108.933 299.582 109.318 298.322 109.696 297.06C109.865 297.073 110.034 297.088 110.203 297.101C110.043 297.057 109.884 297.013 109.724 296.969C109.786 296.761 109.856 296.556 109.918 296.348C111.68 290.325 113.093 284.206 114.152 278.02C115.572 269.613 115.992 261.084 116.486 252.578C121.006 255.233 125.87 257.253 130.941 258.582C140.401 261.009 150.165 262.042 159.924 261.651C164.85 261.644 169.77 261.289 174.646 260.589C172.218 271.87 170.638 285.147 171.555 294.816C174.877 283.664 176.314 272.035 175.806 260.41C182.275 259.432 188.551 257.443 194.402 254.515C206.455 248.352 216.047 238.345 224.627 228.061C231.674 218.815 238.47 209.227 243.505 198.718C245.41 194.638 246.925 190.386 248.029 186.02C248.793 181.727 248.997 177.353 248.637 173.007C248.529 171.383 248.483 174.273 248.379 174.817C247.548 180.709 246.286 186.137 243.584 190.932C239.589 199.454 230.493 210.911 227.477 214.81C219.87 224.73 211.697 234.319 202.093 242.374C200.305 243.76 198.484 245.097 196.58 246.323C193.645 248.162 190.576 249.779 187.398 251.158C184.285 252.288 181.097 253.202 177.858 253.894C172.219 255.246 167.201 255.509 159.924 255.627C151.294 255.778 144.586 255.385 137.723 253.971C134.216 253.257 130.759 252.319 127.372 251.163C123.673 249.652 120.117 247.811 116.748 245.663C115.966 245.175 115.213 244.641 114.494 244.064C106.442 237.203 99.8312 229.978 95.0845 222.469C86.5311 209.885 81.8642 197.103 80.9048 182.77C80.4667 178.59 80.2481 174.39 80.2498 170.187C80.4197 166.467 81.294 162.989 82.0187 159.175C80.8328 162.702 79.4972 166.207 78.8585 169.885C78.2196 175.162 77.9479 180.476 78.0454 185.789C77.8866 201.475 83.6638 216.63 92.6811 229.314C98.0433 236.843 104.417 243.598 111.622 249.39C112.891 250.322 114.209 251.193 115.556 252.018C111.125 266.474 109.196 281.568 108.601 296.659C106.012 295.944 103.422 295.229 100.808 294.613C97.8995 293.889 94.6831 293.658 91.9711 295.147C91.0951 295.641 90.3441 296.328 89.776 297.158C89.2079 297.987 88.8379 298.935 88.6945 299.93C76.1182 295.413 61.3735 292.43 50.028 301.336C41.814 307.678 36.3425 316.935 32.2334 326.315C27.491 337.156 23.4005 348.271 19.9836 359.6C15.9474 374.42 12.2774 389.341 8.4448 404.216C3.3841 424.954 1.01488 446.305 0.425474 467.621C0.306608 470.379 0.172577 473.136 -6.10352e-05 475.891C0.196181 475.128 0.389594 474.364 0.580195 473.6C2.17024 466.183 3.80087 458.776 5.47208 451.377C16.6278 455.267 28.2473 457.559 39.494 461.118C42.9541 462.351 46.3443 463.772 49.6493 465.374C48.8121 472.842 48.0642 480.321 47.1345 487.779C47.0821 488.663 46.7431 490.456 47.2984 488.498C49.7113 481.528 51.695 474.435 53.4453 467.281C54.1859 467.667 54.943 468.068 55.7251 468.489C56.7296 469.031 57.721 469.597 58.7101 470.166C58.0966 469.588 57.4754 469.018 56.8466 468.456C55.852 467.579 54.8269 466.731 53.7872 465.899C54.902 461.257 55.9214 456.591 56.893 451.916C58.9509 442.268 60.3291 432.514 61.5164 422.73C62.4448 422.899 63.37 423.085 64.3009 423.244C65.5798 423.476 66.8579 423.714 68.135 423.957C67.3507 423.613 66.5658 423.27 65.7776 422.935C64.4262 422.329 63.0668 421.753 61.7038 421.192C62.9392 410.841 63.9873 400.461 65.4206 390.142C62.1953 399.772 59.5125 409.563 57.2579 419.456C43.6503 414.283 29.1822 411.745 14.6255 411.978C18.514 395.786 22.5264 379.625 26.6625 363.494C32.2314 344.813 41.2933 317.302 53.6242 305.995C61.9308 298.018 75.0873 298.003 88.6229 300.283C88.4753 301.116 88.4064 301.961 88.4173 302.806C88.9187 308.272 93.4192 312.432 97.9237 315.05C106.807 320.198 117.13 321.791 127.148 323.24C134.657 324.36 142.243 324.879 149.835 324.793C157.641 324.613 165.382 323.48 173.142 322.7C179.128 322.039 186.812 321.191 189.395 314.838C190.141 312.744 190.233 310.472 189.657 308.324C195.513 308.787 200.751 309.165 206.372 311.277C210.734 312.594 219.401 318.112 220.905 319.264C224.021 321.502 228.416 326.686 229.032 327.628C236.252 337.884 239.032 345.919 241.36 358.664C243.063 366.766 243.797 375.041 243.547 383.316C243.317 398.738 241.391 414.03 239.693 429.34C234.107 428.01 228.354 426.899 223.247 426.101C212.356 424.64 203.049 423.916 190.751 420.879C205.876 428.479 222.57 431.162 239.299 432.942C238.745 438.085 238.233 443.231 237.837 448.386C237.319 454.021 237.098 459.664 237.049 465.31C222.877 461.856 208.041 461.973 193.538 462.657C202.313 464.489 211.206 465.702 220.152 466.286C225.781 466.604 231.415 466.42 237.048 466.41C237.009 474.863 237.341 483.322 237.685 491.77C237.706 492.513 237.722 493.257 237.733 494C237.804 493.649 237.879 493.298 237.949 492.947C239.505 484.87 240.536 476.706 241.747 468.574C243.499 456.955 245.522 445.37 247.067 433.721C250.405 434.04 253.734 434.348 257.043 434.677C253.883 433.387 250.653 432.277 247.368 431.351ZM56.7399 421.825C54.8174 430.539 53.195 439.314 51.8727 448.149C51.1123 453.085 50.4875 458.038 49.9161 462.997C45.9977 460.222 41.6941 458.035 37.142 456.505C26.8514 453.573 16.077 452.759 5.51207 451.2C8.41183 438.293 11.4044 425.407 14.4899 412.542C28.6666 415.192 42.6021 418.983 56.7399 421.825H56.7399Z" fill="#333333" stroke="#333333" stroke-width="2" mask="url(#path-11-inside-1_52_199)"/>
<path d="M180.304 445.157C179.251 456.849 179.659 468.59 179.99 480.304C182.372 471.889 183.793 458.474 185.008 449.761C186.85 434.289 187.414 418.698 189.2 403.217C184.566 416.791 181.58 430.872 180.304 445.157Z" fill="#333333"/>
<path d="M229.166 358.949C223.237 357.222 217.525 354.803 211.53 353.295C203.89 351.373 196.071 350.326 188.354 348.778C180.495 347.233 172.725 345.257 164.833 343.879C154.748 342.185 144.562 341.109 134.37 340.309C115.245 339.277 96.0685 339.552 76.9361 338.553C70.016 338.323 61.0745 337.728 55.2856 336.988C49.3188 336.05 43.4183 334.74 37.4868 333.608C44.2905 335.864 51.0126 338.47 58.038 339.966C70.1972 342.578 82.6182 343.831 95.0067 344.767C108.481 345.726 122.021 345.19 135.486 346.334C144.795 347.12 152.982 348.106 160.35 349.284C168.19 350.617 175.936 352.468 183.801 353.665C195.737 355.624 207.695 355.477 218.668 357.836C223.59 358.923 228.588 359.545 233.554 360.377C232.105 359.864 230.636 359.403 229.166 358.949Z" fill="#333333"/>
<path d="M238.284 384.229C228.201 382.688 218.101 381.245 208.066 379.407C201.687 378.193 195.425 376.422 189.025 375.313C177.003 373.042 164.741 372.929 152.553 372.537C130.166 371.578 107.979 368.315 85.7388 365.805C76.4214 364.909 67.0412 365.017 57.708 364.37C47.6896 363.689 37.7471 362.209 27.7336 361.46C37.8004 363.651 47.759 366.367 57.9386 368.007C69.6259 369.753 79.8432 370.383 90.0277 371.831C111.765 374.966 142.101 378.642 166.951 379.192C181.071 379.898 191.109 381.538 204.614 383.475C213.198 384.423 221.854 384.589 230.483 384.713C234.27 384.767 238.06 384.698 241.845 384.866C240.664 384.625 239.475 384.418 238.284 384.229Z" fill="#333333"/>
<path d="M177.83 426.63C168.318 422.21 158.194 419.262 147.977 416.977C139.318 414.945 130.524 413.538 121.663 412.768C103.68 411.573 85.2279 412.558 67.6753 409.738C83.4443 414.837 100.004 416.518 116.423 418.117C127.463 419.304 139.81 420.893 145.578 421.671C154.462 422.84 165.688 424.346 176.14 426.883C177.77 427.285 179.393 427.725 180.986 428.255C179.949 427.685 178.897 427.143 177.83 426.63Z" fill="#333333"/>
<path d="M171.593 470.12C166.524 465.714 160.193 463.211 154.037 460.724C147.142 457.831 139.953 455.697 132.597 454.36C122.664 452.562 112.536 452.455 102.469 452.481C94.1223 452.383 85.7752 452.25 77.4285 452.445C85.5932 453.689 93.7381 455.068 101.914 456.236C117.818 458.29 128.192 459.095 144.771 463C153.005 465.179 162.348 466.751 169.486 470.055C171.478 471.058 173.396 472.203 175.225 473.481C174.054 472.318 172.849 471.191 171.593 470.12Z" fill="#333333"/>
</g>
<defs>
<clipPath id="clip0_52_199">
<rect width="296" height="494" fill="white"/>
</clipPath>
</defs>
</svg>
